<svg xmlns="http://www.w3.org/2000/svg" viewBox="0 0 131.40728 163.8424"><defs><style>.cls-1{fill:#ffffff;}.cls-2,.cls-3{fill:none;stroke:#ffffff;stroke-miterlimit:10;}.cls-2{stroke-width:2px;}.cls-4{fill:#f1e51c;}</style></defs><g id="Layer_2" data-name="Layer 2"><g id="Layer_1-2" data-name="Layer 1"><path class="cls-1" d="M27.07939,10.87272a1.84638,1.84638,0,0,0-1.204-2.242,1.80336,1.80336,0,0,0-2.572.754,5.111,5.111,0,0,0-.193,4.074,1.50282,1.50282,0,0,0,1.387,1.161c.812.058,1.531-.012,1.946-.912a4.88745,4.88745,0,0,0,.636-2.835m-.725-3.268c-.756-1.078-1.414-2.016-2.131-3.038-.41.499-.763.925-1.112,1.355-.088.109-.138.276-.249.334-.336.175-.694.31-1.043.46a4.19455,4.19455,0,0,1-.233-1.026,10.18475,10.18475,0,0,1,.223-1.908c.058-.262.336-.667.53-.676a18.92215,18.92215,0,0,1,2.906.068,2.06,2.06,0,0,1,.94.596c2.066,1.788,3.244,4.208,4.588,6.507.767,1.313,1.517,2.638,2.362,4.11a9.61236,9.61236,0,0,1,.569-1.036,2.69488,2.69488,0,0,1,.543-.449c.104.231.305.467.294.693-.028.598-.161,1.19-.229,1.788-.061.541-.424.625-.858.597-.318-.02-.632-.09-.949-.111a2.24722,2.24722,0,0,1-2.003-1.111c-.402-.714-.855-1.4-1.289-2.095-.071-.113-.162-.212-.301-.39-.209.381-.374.707-.563,1.019a5.03538,5.03538,0,0,1-4.731,2.827c-.6-.028-1.2-.088-1.797-.158a1.44981,1.44981,0,0,1-1.287-1.263,7.60314,7.60314,0,0,1,1.377-6.333c.834-1.085,2.586-1.949,4.008-.901a2.17411,2.17411,0,0,0,.435.141"/><path class="cls-1" d="M37.34369,8.85172c2.261-1.586,3.413-2.663,3.208-4.111a4.3975,4.3975,0,0,0-3.208,4.111m.057.995c0,1.266-.032,2.606.014,3.943a1.76922,1.76922,0,0,0,1.575,1.312,2.93294,2.93294,0,0,0,2.452-2.149,2.59867,2.59867,0,0,0-1.974-2.757c-.697-.139-1.402-.238-2.067-.349m3.822-1.805a4.57954,4.57954,0,0,1,2.564,4.554,2.95107,2.95107,0,0,1-1.822,2.813,9.44652,9.44652,0,0,1-4.224.698,3.51145,3.51145,0,0,1-1.817-.485,1.3397,1.3397,0,0,1-.751-1.212c.009-2.548,0-5.097-.003-7.645,0-.301.007-.603-.008-.903-.057-1.17-.282-1.436-1.386-1.811a2.51921,2.51921,0,0,1-.62-.467,2.25862,2.25862,0,0,1,.654-.421,18.42,18.42,0,0,1,2.349-.381c.916-.072,1.213.242,1.251,1.174.018.435.004.871.004,1.273.889-.565,1.756-1.124,2.631-1.67.68-.424,1.368-.109,2.036.042.146.033.284.33.331.528a3.07536,3.07536,0,0,1-.299,2.496c-.3.468-.592.942-.89,1.417"/><path class="cls-1" d="M111.61179,10.61652a5.458,5.458,0,0,0,1.251,3.306,2.14321,2.14321,0,0,0,2.237.827,2.47178,2.47178,0,0,1,.539-.017,2.04223,2.04223,0,0,0,1.936-1.258,4.31759,4.31759,0,0,0,.388-2.222,3.82,3.82,0,0,0-2.045-3.288,4.19945,4.19945,0,0,0-2.731-.404,1.34358,1.34358,0,0,0-.852.524,3.89132,3.89132,0,0,0-.723,2.532m4.522-4.272c-.852-.563-1.486-1.426-2.551-1.696a9.35771,9.35771,0,0,1-1.831-.548,1.44909,1.44909,0,0,1-.652-.914,16.26283,16.26283,0,0,1-.247-2.327,1.19639,1.19639,0,0,1,.194-.614c.198-.348.447-.307.647.003.195.302.328.65.546.933a4.769,4.769,0,0,0,.934.997q2.1975,1.572,4.449,3.067a5.65083,5.65083,0,0,1,2.298,3.349,13.17555,13.17555,0,0,1,.442,2.766,3.81457,3.81457,0,0,1-1.353,3.12,10.71759,10.71759,0,0,1-3.05,1.861,2.75927,2.75927,0,0,1-1.354.117,5.49475,5.49475,0,0,1-3.598-1.235,4.71534,4.71534,0,0,1-1.489-3.29,5.00947,5.00947,0,0,1,2.013-4.698,4.69013,4.69013,0,0,1,3.576-.785c.312.041.625.066.937.098.03-.068.059-.136.089-.204"/><path class="cls-1" d="M53.05239,5.621c.868-.6,1.618-1.169,2.42-1.651a5.03157,5.03157,0,0,1,1.453-.548,1.418,1.418,0,0,1,1.82,1.192,2.9322,2.9322,0,0,1-.53,2.511c-.563.688-1.177,1.333-1.802,2.034,1.095,2.307,2.881,5.413,3.91,6.269.252-.519.475-1.026.745-1.507.091-.162.302-.255.459-.38.106.176.311.357.302.526a16.49326,16.49326,0,0,1-.244,2.209.72684.72684,0,0,1-.573.413,2.878,2.878,0,0,1-1.476-.315,23.37979,23.37979,0,0,1-2.654-2.341c-.717-.725-1.299-1.584-2.001-2.327a5.96436,5.96436,0,0,0-1.208-.829c-.166-.105-.383-.132-.544-.242-.394-.266-.394-.589.04-.751a6.7778,6.7778,0,0,0,2.111-1.558,4.0954,4.0954,0,0,0,1.113-2.894c.041-.41-.189-.476-.522-.422a4.40755,4.40755,0,0,0-2.046,1.301c-1.121.936-1.049,2.244-1.072,3.484-.032,1.745.053,3.493.088,5.239.018.929-.083.994-.96.617-.148-.064-.293-.134-.443-.189-1.082-.403-1.08-.401-.902-1.578a21.53679,21.53679,0,0,0,.437-5.023c-.101-1.219-.144-2.444-.256-3.662-.017-.183-.256-.365-.425-.509-.161-.136-.386-.197-.545-.336-.306-.268-.273-.569.107-.692a18.25915,18.25915,0,0,1,2.374-.641c.644-.116.93.186.953.846a7.64815,7.64815,0,0,1-.059.839c-.022.277-.043.555-.07.915"/><path class="cls-1" d="M69.8809,4.29871c1.811-1.424,3.823-1.252,5.824-.998a3.36483,3.36483,0,0,1,2.478,2.482,12.22811,12.22811,0,0,1,.353,4.163,3.56378,3.56378,0,0,1-.896,2.297,16.27036,16.27036,0,0,0-1.087,1.382c.731.385,1.398.737,2.117,1.116a5.77526,5.77526,0,0,1,.476-.679.52373.52373,0,0,1,.408-.137c.08.013.178.208.184.325.024.441-1.015,1.77-1.441,1.733a8.86773,8.86773,0,0,1-2.32-.445c-.586-.221-1.052-.605-1.554.098-.064.089-.407.086-.524-.003a.58574.58574,0,0,1-.14-.51,1.812,1.812,0,0,1,.347-.552c.974-1.349,2.05-2.649,2.129-4.427.074-1.662.099-3.334-1.175-4.629a3.1223,3.1223,0,0,0-2.714-.927c-1.034.13-1.423.718-1.967,1.559a5.121,5.121,0,0,0-.449,2.804,35.10076,35.10076,0,0,0,.406,5.85,1.8111,1.8111,0,0,1,.012.596c-.129.614-.545.763-1.049.413a1.38285,1.38285,0,0,0-.539-.254c-.665-.099-.818-.498-.793-1.11.083-1.985.181-3.972.172-5.958a28.88048,28.88048,0,0,0-.333-3.767c-.024-.175-.521-.287-.801-.425-.177-.087-.359-.167-.539-.25.148-.158.267-.387.449-.461.443-.182.917-.285,1.375-.432.859-.276,1.579-.177,1.591,1.146"/><path class="cls-1" d="M99.708,10.64452a5.96285,5.96285,0,0,0-.728-3.167,4.18345,4.18345,0,0,0-1.088-1.253,5.883,5.883,0,0,0-2.754-1.161,2.16329,2.16329,0,0,0-2.049.543,4.12343,4.12343,0,0,0-1.027,2.247,7.8338,7.8338,0,0,0,.81,4.485,4.431,4.431,0,0,0,4.359,2.304,1.84245,1.84245,0,0,0,1.599-1.024,5.37865,5.37865,0,0,0,.878-2.974m2.234-1.133a6.82988,6.82988,0,0,1-2.546,5.439,4.64467,4.64467,0,0,1-1.06.513c-.108.048-.242.032-.352.076a7.91435,7.91435,0,0,1-4.903.003,3.40164,3.40164,0,0,1-1.861-1.233,6.701,6.701,0,0,1,3.613-10.749,5.90453,5.90453,0,0,1,6.956,4.773c.082.432.114.873.153,1.178"/><path class="cls-1" d="M83.13269,5.43331c-.787-.204-1.469-.355-2.134-.561-.558-.174-.697.142-.833.568a2.23827,2.23827,0,0,1-.364.534c-.124-.204-.333-.401-.353-.615a12.21634,12.21634,0,0,1-.001-1.566c.013-.375.164-.592.605-.536q2.32349.29851,4.653.556c.995.11,1.994.247,2.992.258a5.15576,5.15576,0,0,0,1.37-.409c.156-.045.414-.115.472-.045a.70728.70728,0,0,1,.135.535,8.09878,8.09878,0,0,1-.377,1.265c-.064.167-.234.406-.371.416a19.62844,19.62844,0,0,1-3.164.121c-1.516-.138-2.185.035-2.85,1.397a5.26535,5.26535,0,0,0-.312,4.807c1.043,2.157,2.388,2.608,4.609,2.425a2.7575,2.7575,0,0,0,1.143-.598c.268-.182.519-.503.821-.182.307.328-.02.593-.248.806a4.88871,4.88871,0,0,1-2.566,1.192,6.50288,6.50288,0,0,1-4.337-.749,3.72415,3.72415,0,0,1-2.109-2.999,6.536,6.536,0,0,1,2.731-6.246c.137-.108.277-.213.488-.374"/><path class="cls-1" d="M7.54209,7.163c0,1.988.059,3.978-.025,5.963a2.24282,2.24282,0,0,0,1.127,2.005c.172.132.448.435.419.474-.167.232-.39.547-.63.58a4.58921,4.58921,0,0,1-2.815-.387,1.01789,1.01789,0,0,1-.557-1.049q.258-3.8145.48-7.631a22.096,22.096,0,0,0,.005-2.229,1.99957,1.99957,0,0,0-.284-.708,4.95152,4.95152,0,0,1-.434-.847.58551.58551,0,0,1,.248-.516,12.3823,12.3823,0,0,1,1.541-.257c.444-.059.772.112.817.583.089.936.149,1.875.204,2.814.023.4.004.803.004,1.205Z"/><path class="cls-1" d="M15.88169,10.48221q0-2.32049,0-4.642a1.74783,1.74783,0,0,0-.709-1.678,1.35063,1.35063,0,0,1-.451-.746.576.576,0,0,1,.295-.476,13.31815,13.31815,0,0,1,1.735-.485c.73-.151,1.225.265,1.235,1.082.013,1.144-.067,2.289-.059,3.433.016,2.388.071,4.776.091,7.164a1.19526,1.19526,0,0,0,.952,1.21c.439.144.691.386.581.885-.11.502-.526.478-.863.431a16.24531,16.24531,0,0,1-2.266-.449c-.41-.118-.557-.503-.55-.966.025-1.588.009-3.175.009-4.763"/><path class="cls-1" d="M65.08879,5.41851q.114,3.72.228,7.44c.026.781.08,1.561.1,2.342.013.482-.548.739-1.088.512-.073-.03-.128-.104-.201-.13-1.141-.4-1.327-1.194-1.257-2.345.129-2.135.039-4.283.031-6.426-.001-.319-.078-.639-.07-.958.02-.778-.172-1.365-1.075-1.489-.147-.021-.261-.282-.39-.431a2.06494,2.06494,0,0,1,.474-.292c.535-.151,1.077-.284,1.622-.391a3.96665,3.96665,0,0,1,1.005-.09.77925.77925,0,0,1,.795.87c0,.461-.174.927-.174,1.388h0"/><path class="cls-1" d="M123.80229,7.68c.181,2.217.368,4.434.539,6.652.044.567.054,1.139.053,1.708-.002.352-.201.395-.487.244-.565-.299-1.123-.613-1.704-.876a.62848.62848,0,0,1-.396-.715c.082-1.358.22-2.718.203-4.076a22.1559,22.1559,0,0,0-.369-2.92c-.091-.615-.223-1.223-.321-1.837-.058-.364-.177-.529-.602-.407-.218.062-.494-.08-.744-.13.162-.216.279-.528.495-.63a14.7198,14.7198,0,0,1,1.853-.704c1.082-.345,1.553.004,1.588,1.148.013.422.006.845.007,1.267s0,.844,0,1.266c-.038.003-.077.007-.115.01"/><path class="cls-1" d="M45.95419,9.88352c-.134-1.559-.219-3.124-.435-4.671-.057-.403-.532-.743-.802-1.122-.094-.131-.237-.329-.196-.429a.58561.58561,0,0,1,.421-.253c.731-.092,1.465-.156,2.199-.221.675-.06.816.049.809.731-.012,1.103-.097,2.206-.086,3.309q.042,3.963.151,7.926c.017.64-.202.875-.813.681a6.63,6.63,0,0,1-1.39-.525.93436.93436,0,0,1-.31-.753c.094-1.158.264-2.309.382-3.466.04-.397.006-.802.006-1.203l.064-.004"/><path class="cls-1" d="M4.175,4.294c-.129,1.986-.276,3.866-.366,5.748-.072,1.484-.071,2.971-.113,4.455a1.70076,1.70076,0,0,1-.12.694c-.323.645-.411.657-1.059.316-1.28-.674-1.22-.668-1.071-2.133.217-2.133.372-4.274.481-6.415a12.22516,12.22516,0,0,0-.224-2.333,1.3222,1.3222,0,0,0-.367-.583c-.382-.438-.295-.858.274-.986a18.592,18.592,0,0,1,1.841-.268c.519-.063.738.205.725.707-.007.301-.001.603-.001.798"/><path class="cls-1" d="M105.88479,10.705c-.704-.01-1.358-.175-1.546-1.038-.026-.123-.047-.309.02-.379a11.408,11.408,0,0,1,.994-.922.55782.55782,0,0,1,.892.08,3.33813,3.33813,0,0,1,.611,1.22c.16,1.009-.034,1.18-.971,1.039"/><path class="cls-1" d="M12.171,11.21271a1.56436,1.56436,0,0,1-1.454-1.221,1.65474,1.65474,0,0,1,.962-1.523.77749.77749,0,0,1,.698.244,9.84065,9.84065,0,0,1,.649,1.793c.096.359-.379.715-.855.707"/><path class="cls-1" d="M13.39649,53.62147a5.47491,5.47491,0,0,0,.465-.448,12.93483,12.93483,0,0,1,2.981-2.612c1.286-.838,2.499-1.801,3.834-2.549a29.3183,29.3183,0,0,1,9.436-3.601c1.874-.316,3.743-.687,5.629-.893a10.21369,10.21369,0,0,1,5.874.837c.574.29,1.199.478,1.778.759,4.179,2.024,6.234,5.399,6.5,10.009a19.26089,19.26089,0,0,1-1.802,8.463,98.10216,98.10216,0,0,1-5.703,12.285c-.905,1.568-1.816,3.134-2.737,4.723.37-.07.772-.117,1.157-.225a6.26934,6.26934,0,0,1,4.831.72c.887.481,1.804.912,2.668,1.43.622.372,1.153.896,1.774,1.272a4.54168,4.54168,0,0,0,2.332.942.63931.63931,0,0,0,.427-.336c.911-1.846,1.787-3.709,2.71-5.55a6.49994,6.49994,0,0,1,1.027-1.559,1.14389,1.14389,0,0,1,2.044.473,3.4263,3.4263,0,0,1,.278,1.163c-.036,2.512-.056,5.026-.207,7.531a10.85906,10.85906,0,0,1-.704,2.724,2.71274,2.71274,0,0,1-2.032,1.792c-1.249.321-2.488.721-3.757.917a12.32481,12.32481,0,0,1-2.86-.005,21.86915,21.86915,0,0,1-3.099-.458c-1.2-.275-2.37-.679-3.555-1.02-1.39-.4-2.764-.882-4.179-1.155a10.85962,10.85962,0,0,0-3.173-.132,14.4962,14.4962,0,0,0-4.462,1.04,33.25046,33.25046,0,0,1-3.375,1.272,2.8841,2.8841,0,0,1-3.429-1.326,1.91256,1.91256,0,0,1,.66-2.603,13.96816,13.96816,0,0,0,1.949-1.29c1.054-.909,2.046-1.893,3.044-2.866.512-.5.945-1.081,1.473-1.561a16.34642,16.34642,0,0,0,3.668-4.99,26.1464,26.1464,0,0,0,1.442-2.905c1.123-3.287,2.703-6.463,2.944-9.985a48.89284,48.89284,0,0,0-.213-5.64,6.62488,6.62488,0,0,1-.113-.88,3.57937,3.57937,0,0,0-.585-2.083,23.86945,23.86945,0,0,0-1.298-2.211,6.52165,6.52165,0,0,0-5.263-2.975,20.00038,20.00038,0,0,0-15.696,6.597,13.3502,13.3502,0,0,0-3.62,7.733,47.431,47.431,0,0,0-.349,4.898,117.95535,117.95535,0,0,0,.398,13.133c.108,1.246.261,2.493.488,3.721a6.297,6.297,0,0,0,.669,1.392,13.95211,13.95211,0,0,1,.799,1.804,1.17424,1.17424,0,0,1-.786,1.516,7.94342,7.94342,0,0,1-1.888.194c-.795.029-1.592-.007-2.388.006-1.393.021-2.786.097-4.178.076a2.87661,2.87661,0,0,1-2.381-1.581,1.04466,1.04466,0,0,1-.1-.552c.06-4.364.137-8.728.19-13.092.035-2.899-.047-5.801.073-8.696a61.401,61.401,0,0,1,3.725-19.133,30.89,30.89,0,0,1,4.284-7.813c.822-1.093,1.55-2.258,2.3-3.404a9.74619,9.74619,0,0,0,.532-1.114c-.828.116-1.523.205-2.214.313a18.146,18.146,0,0,0-6.606,2.656,11.23538,11.23538,0,0,1-1.784.844,1.30411,1.30411,0,0,1-1.63-.486,3.23214,3.23214,0,0,1-.612-1.617c-.018-1.6.132-3.201.176-4.803.034-1.22.014-2.443.003-3.665a2.17668,2.17668,0,0,1,1.375-2.206,2.83982,2.83982,0,0,1,2.817.303,12.43779,12.43779,0,0,0,2.937,1.31,17.31362,17.31362,0,0,0,5.175.647c4.537.036,9.076.075,13.612-.005,3.591-.064,7.179-.309,10.769-.463,2.144-.092,4.289-.153,6.433-.244,2.805-.119,5.61-.277,8.416-.366a12.33127,12.33127,0,0,1,2.436.215,1.62039,1.62039,0,0,1,1.35,1.645,5.41815,5.41815,0,0,1-.231,1.849,10.34014,10.34014,0,0,0-.685,4.303,13.4064,13.4064,0,0,1-.135,2.294,1.55494,1.55494,0,0,1-1.823,1.463,13.66038,13.66038,0,0,1-2.667-.854c-.646-.252-1.225-.688-1.879-.911a33.819,33.819,0,0,0-3.606-1.043c-2.414-.535-4.829-1.116-7.274-1.446-2.204-.297-4.449-.304-6.677-.401-1.585-.069-3.174-.055-4.76-.113a10.74284,10.74284,0,0,0-7.272,2.73,11.00661,11.00661,0,0,0-2.788,3.592,36.065,36.065,0,0,0-3.324,10.753c-.086.482-.101.976-.149,1.464.056.021.111.042.166.063"/><path class="cls-2" d="M13.39649,53.62147a5.47491,5.47491,0,0,0,.465-.448,12.93483,12.93483,0,0,1,2.981-2.612c1.286-.838,2.499-1.801,3.834-2.549a29.3183,29.3183,0,0,1,9.436-3.601c1.874-.316,3.743-.687,5.629-.893a10.21369,10.21369,0,0,1,5.874.837c.574.29,1.199.478,1.778.759,4.179,2.024,6.234,5.399,6.5,10.009a19.26089,19.26089,0,0,1-1.802,8.463,98.10216,98.10216,0,0,1-5.703,12.285c-.905,1.568-1.816,3.134-2.737,4.723.37-.07.772-.117,1.157-.225a6.26934,6.26934,0,0,1,4.831.72c.887.481,1.804.912,2.668,1.43.622.372,1.153.896,1.774,1.272a4.54168,4.54168,0,0,0,2.332.942.63931.63931,0,0,0,.427-.336c.911-1.846,1.787-3.709,2.71-5.55a6.49994,6.49994,0,0,1,1.027-1.559,1.14389,1.14389,0,0,1,2.044.473,3.4263,3.4263,0,0,1,.278,1.163c-.036,2.512-.056,5.026-.207,7.531a10.85906,10.85906,0,0,1-.704,2.724,2.71274,2.71274,0,0,1-2.032,1.792c-1.249.321-2.488.721-3.757.917a12.32481,12.32481,0,0,1-2.86-.005,21.86915,21.86915,0,0,1-3.099-.458c-1.2-.275-2.37-.679-3.555-1.02-1.39-.4-2.764-.882-4.179-1.155a10.85962,10.85962,0,0,0-3.173-.132,14.4962,14.4962,0,0,0-4.462,1.04,33.25046,33.25046,0,0,1-3.375,1.272,2.8841,2.8841,0,0,1-3.429-1.326,1.91256,1.91256,0,0,1,.66-2.603,13.96816,13.96816,0,0,0,1.949-1.29c1.054-.909,2.046-1.893,3.044-2.866.512-.5.945-1.081,1.473-1.561a16.34642,16.34642,0,0,0,3.668-4.99,26.1464,26.1464,0,0,0,1.442-2.905c1.123-3.287,2.703-6.463,2.944-9.985a48.89284,48.89284,0,0,0-.213-5.64,6.62488,6.62488,0,0,1-.113-.88,3.57937,3.57937,0,0,0-.585-2.083,23.86945,23.86945,0,0,0-1.298-2.211,6.52165,6.52165,0,0,0-5.263-2.975,20.00038,20.00038,0,0,0-15.696,6.597,13.3502,13.3502,0,0,0-3.62,7.733,47.431,47.431,0,0,0-.349,4.898,117.95535,117.95535,0,0,0,.398,13.133c.108,1.246.261,2.493.488,3.721a6.297,6.297,0,0,0,.669,1.392,13.95211,13.95211,0,0,1,.799,1.804,1.17424,1.17424,0,0,1-.786,1.516,7.94342,7.94342,0,0,1-1.888.194c-.795.029-1.592-.007-2.388.006-1.393.021-2.786.097-4.178.076a2.87661,2.87661,0,0,1-2.381-1.581,1.04466,1.04466,0,0,1-.1-.552c.06-4.364.137-8.728.19-13.092.035-2.899-.047-5.801.073-8.696a61.401,61.401,0,0,1,3.725-19.133,30.89,30.89,0,0,1,4.284-7.813c.822-1.093,1.55-2.258,2.3-3.404a9.74619,9.74619,0,0,0,.532-1.114c-.828.116-1.523.205-2.214.313a18.146,18.146,0,0,0-6.606,2.656,11.23538,11.23538,0,0,1-1.784.844,1.30411,1.30411,0,0,1-1.63-.486,3.23214,3.23214,0,0,1-.612-1.617c-.018-1.6.132-3.201.176-4.803.034-1.22.014-2.443.003-3.665a2.17668,2.17668,0,0,1,1.375-2.206,2.83982,2.83982,0,0,1,2.817.303,12.43779,12.43779,0,0,0,2.937,1.31,17.31362,17.31362,0,0,0,5.175.647c4.537.036,9.076.075,13.612-.005,3.591-.064,7.179-.309,10.769-.463,2.144-.092,4.289-.153,6.433-.244,2.805-.119,5.61-.277,8.416-.366a12.33127,12.33127,0,0,1,2.436.215,1.62039,1.62039,0,0,1,1.35,1.645,5.41815,5.41815,0,0,1-.231,1.849,10.34014,10.34014,0,0,0-.685,4.303,13.4064,13.4064,0,0,1-.135,2.294,1.55494,1.55494,0,0,1-1.823,1.463,13.66038,13.66038,0,0,1-2.667-.854c-.646-.252-1.225-.688-1.879-.911a33.819,33.819,0,0,0-3.606-1.043c-2.414-.535-4.829-1.116-7.274-1.446-2.204-.297-4.449-.304-6.677-.401-1.585-.069-3.174-.055-4.76-.113a10.74284,10.74284,0,0,0-7.272,2.73,11.00661,11.00661,0,0,0-2.788,3.592,36.065,36.065,0,0,0-3.324,10.753c-.086.482-.101.976-.149,1.464C13.28649,53.57947,13.34149,53.60047,13.39649,53.62147Z"/><path class="cls-1" d="M97.52949,26.64227a47.14783,47.14783,0,0,1,10.104,1.028,23.676,23.676,0,0,1,7.471,2.929c.799.524,1.521,1.167,2.272,1.763.685.544,1.095.51,1.606-.192a9.745,9.745,0,0,0,.72-1.153,7.92305,7.92305,0,0,1,3.668-3.531,1.64273,1.64273,0,0,1,1.779.024,1.69649,1.69649,0,0,1,.797,1.843,7.22975,7.22975,0,0,1-.25.905,30.98026,30.98026,0,0,0-1.63,6.645,22.03516,22.03516,0,0,0-.051,2.93c.102,2.441-1.181,4.001-3.177,5.112a1.95076,1.95076,0,0,1-2.101-.089,30.30772,30.30772,0,0,1-2.37-1.938c-.611-.517-1.24-1.018-1.806-1.581a78.00066,78.00066,0,0,0-7.657-6.329,10.97132,10.97132,0,0,0-4.372-1.787c-.101-.024-.224-.005-.307-.055a7.00687,7.00687,0,0,0-3.715-.6c-2.877-.039-5.765-.119-8.631.08a14.44606,14.44606,0,0,0-8.627,3.767,12.52239,12.52239,0,0,0-3.122,4.83,24.48817,24.48817,0,0,0-1.548,6.659,29.61325,29.61325,0,0,0,.141,7.207,2.79867,2.79867,0,0,0,.749,1.639,3.56044,3.56044,0,0,0,1.742.556,25.27727,25.27727,0,0,0,3.005.303c2.65.092,5.301.182,7.951.181,2.546-.002,5.094-.089,7.639-.193,2.859-.118,5.714-.3,8.572-.449.627-.033,1.255-.057,1.883-.066a1.35009,1.35009,0,0,0,1.183-.617,11.16471,11.16471,0,0,1,3.279-3.042,1.67152,1.67152,0,0,1,1.782-.151,1.618,1.618,0,0,1,.841,1.624c-.038.888-.056,1.778-.115,2.665a18.04294,18.04294,0,0,0,.683,4.27c.132.771.291,1.542.351,2.32.057.741-.227.987-.931,1.24a2.46017,2.46017,0,0,1-2.912-.807c-.534-.618-.98-1.312-1.49-1.952a1.1136,1.1136,0,0,0-.507-.283c-2.401-.801-4.865-.296-7.3-.324q-6.2295-.069-12.461.015c-2.089.031-4.177.223-6.263.373-1.319.094-2.639.216-3.951.381a10.02365,10.02365,0,0,0-1.453.428c-.401.115-.516.331-.363.739.55,1.471,1.023,2.973,1.63,4.42a42.08458,42.08458,0,0,0,2.244,4.776,31.30207,31.30207,0,0,0,5.281,6.941,11.73168,11.73168,0,0,0,4.636,2.837,31.38549,31.38549,0,0,1,3.768,1.796,13.62968,13.62968,0,0,0,1.446.587,20.123,20.123,0,0,0,8.039,1.38,12.78133,12.78133,0,0,0,2.212-.546.23077.23077,0,0,0,.134-.079c.621-1.039,1.74-1.484,2.649-2.166a15.05241,15.05241,0,0,0,3.264-3.514,14.13742,14.13742,0,0,1,3.294-3.256,4.8094,4.8094,0,0,0,.554-.656c.23-.251.437-.598.727-.706a3.81669,3.81669,0,0,1,3.925.262,2.24684,2.24684,0,0,1,1.076,1.766c.022,2.907,1.14,5.635,1.353,8.516a5.04756,5.04756,0,0,0,.853,1.992,1.83086,1.83086,0,0,1,.198,1.831,1.65641,1.65641,0,0,1-1.527.843,3.0617,3.0617,0,0,1-2.505-.941c-.837-.812-1.761-1.533-2.62-2.323a2.14892,2.14892,0,0,0-2.047-.481,12.41569,12.41569,0,0,0-3.433,1.335,19.77075,19.77075,0,0,1-8.47,2.945,3.327,3.327,0,0,0-.723.117,22.35319,22.35319,0,0,1-6.864.406c-1.307-.029-2.616.011-3.923-.017a10.49039,10.49039,0,0,1-1.555-.195q-2.4735-.432-4.941-.894a4.98679,4.98679,0,0,1-1.052-.31,31.36832,31.36832,0,0,1-7.571-3.983c-1.07-.86-2.27-1.565-3.3-2.468a14.44871,14.44871,0,0,1-2.935-3.983c-1.017-1.826-1.954-3.699-2.89-5.57-.647-1.295-1.24-2.617-1.841-3.934a.8743.8743,0,0,1-.088-.603,1.6125,1.6125,0,0,0-.139-1.307,15.40373,15.40373,0,0,1-.862-5.139c-.062-1.116-.137-2.232-.145-3.348a37.87331,37.87331,0,0,1,2.691-14.587,30.79125,30.79125,0,0,1,24.66-18.868c.087-.011.174-.017.261-.022,1.08-.054,2.16-.108,3.428-.171"/><path class="cls-2" d="M97.52949,26.64227a47.14783,47.14783,0,0,1,10.104,1.028,23.676,23.676,0,0,1,7.471,2.929c.799.524,1.521,1.167,2.272,1.763.685.544,1.095.51,1.606-.192a9.745,9.745,0,0,0,.72-1.153,7.92305,7.92305,0,0,1,3.668-3.531,1.64273,1.64273,0,0,1,1.779.024,1.69649,1.69649,0,0,1,.797,1.843,7.22975,7.22975,0,0,1-.25.905,30.98026,30.98026,0,0,0-1.63,6.645,22.03516,22.03516,0,0,0-.051,2.93c.102,2.441-1.181,4.001-3.177,5.112a1.95076,1.95076,0,0,1-2.101-.089,30.30772,30.30772,0,0,1-2.37-1.938c-.611-.517-1.24-1.018-1.806-1.581a78.00066,78.00066,0,0,0-7.657-6.329,10.97132,10.97132,0,0,0-4.372-1.787c-.101-.024-.224-.005-.307-.055a7.00687,7.00687,0,0,0-3.715-.6c-2.877-.039-5.765-.119-8.631.08a14.44606,14.44606,0,0,0-8.627,3.767,12.52239,12.52239,0,0,0-3.122,4.83,24.48817,24.48817,0,0,0-1.548,6.659,29.61325,29.61325,0,0,0,.141,7.207,2.79867,2.79867,0,0,0,.749,1.639,3.56044,3.56044,0,0,0,1.742.556,25.27727,25.27727,0,0,0,3.005.303c2.65.092,5.301.182,7.951.181,2.546-.002,5.094-.089,7.639-.193,2.859-.118,5.714-.3,8.572-.449.627-.033,1.255-.057,1.883-.066a1.35009,1.35009,0,0,0,1.183-.617,11.16471,11.16471,0,0,1,3.279-3.042,1.67152,1.67152,0,0,1,1.782-.151,1.618,1.618,0,0,1,.841,1.624c-.038.888-.056,1.778-.115,2.665a18.04294,18.04294,0,0,0,.683,4.27c.132.771.291,1.542.351,2.32.057.741-.227.987-.931,1.24a2.46017,2.46017,0,0,1-2.912-.807c-.534-.618-.98-1.312-1.49-1.952a1.1136,1.1136,0,0,0-.507-.283c-2.401-.801-4.865-.296-7.3-.324q-6.2295-.069-12.461.015c-2.089.031-4.177.223-6.263.373-1.319.094-2.639.216-3.951.381a10.02365,10.02365,0,0,0-1.453.428c-.401.115-.516.331-.363.739.55,1.471,1.023,2.973,1.63,4.42a42.08458,42.08458,0,0,0,2.244,4.776,31.30207,31.30207,0,0,0,5.281,6.941,11.73168,11.73168,0,0,0,4.636,2.837,31.38549,31.38549,0,0,1,3.768,1.796,13.62968,13.62968,0,0,0,1.446.587,20.123,20.123,0,0,0,8.039,1.38,12.78133,12.78133,0,0,0,2.212-.546.23077.23077,0,0,0,.134-.079c.621-1.039,1.74-1.484,2.649-2.166a15.05241,15.05241,0,0,0,3.264-3.514,14.13742,14.13742,0,0,1,3.294-3.256,4.8094,4.8094,0,0,0,.554-.656c.23-.251.437-.598.727-.706a3.81669,3.81669,0,0,1,3.925.262,2.24684,2.24684,0,0,1,1.076,1.766c.022,2.907,1.14,5.635,1.353,8.516a5.04756,5.04756,0,0,0,.853,1.992,1.83086,1.83086,0,0,1,.198,1.831,1.65641,1.65641,0,0,1-1.527.843,3.0617,3.0617,0,0,1-2.505-.941c-.837-.812-1.761-1.533-2.62-2.323a2.14892,2.14892,0,0,0-2.047-.481,12.41569,12.41569,0,0,0-3.433,1.335,19.77075,19.77075,0,0,1-8.47,2.945,3.327,3.327,0,0,0-.723.117,22.35319,22.35319,0,0,1-6.864.406c-1.307-.029-2.616.011-3.923-.017a10.49039,10.49039,0,0,1-1.555-.195q-2.4735-.432-4.941-.894a4.98679,4.98679,0,0,1-1.052-.31,31.36832,31.36832,0,0,1-7.571-3.983c-1.07-.86-2.27-1.565-3.3-2.468a14.44871,14.44871,0,0,1-2.935-3.983c-1.017-1.826-1.954-3.699-2.89-5.57-.647-1.295-1.24-2.617-1.841-3.934a.8743.8743,0,0,1-.088-.603,1.6125,1.6125,0,0,0-.139-1.307,15.40373,15.40373,0,0,1-.862-5.139c-.062-1.116-.137-2.232-.145-3.348a37.87331,37.87331,0,0,1,2.691-14.587,30.79125,30.79125,0,0,1,24.66-18.868c.087-.011.174-.017.261-.022C95.18149,26.75927,96.26149,26.70527,97.52949,26.64227Z"/><path class="cls-1" d="M14.67439,126.91647a1.41017,1.41017,0,0,0,.317-.106,75.09442,75.09442,0,0,0,6.334-4.591,50.22808,50.22808,0,0,1,4.119-3.041c.254-.185.501-.38.742-.581q3.756-3.1305,7.51-6.264c2.422-2.024,4.859-4.031,7.25-6.091a4.80707,4.80707,0,0,0,1.513-2.152,2.27622,2.27622,0,0,0-.82-2.602,2.27633,2.27633,0,0,1-.879-2.172,1.264,1.264,0,0,1,1.369-1.231,7.65267,7.65267,0,0,1,1.953.28,10.64432,10.64432,0,0,0,6.335.049,6.524,6.524,0,0,1,3.76.044,1.35758,1.35758,0,0,1,.907.794c.88,1.847.593,3.305-1.081,4.843a31.75312,31.75312,0,0,1-8.019,5.719,22.82684,22.82684,0,0,0-3.556,2.456c-2.259,1.638-4.523,3.271-6.753,4.95-.945.711-1.809,1.53-2.709,2.302q-2.085,1.788-4.17,3.58a3.79974,3.79974,0,0,0-.575.597c1.522-.261,2.548.558,3.665,1.367,2.384,1.727,3.591,4.238,4.735,6.784,1.216,2.705,2.172,5.532,3.468,8.195,2.22,4.561,4.195,9.258,7.032,13.5a2.32453,2.32453,0,0,0,1.26,1.063c-.094-.812.587-1.018.976-1.461.885-1.008,1.732-2.051,2.596-3.077q1.5465-1.839,3.098-3.674a1.03925,1.03925,0,0,1,.156-.139c.563-.428,1.147-.872,1.903-.588a1.97876,1.97876,0,0,1,1.272,1.782,10.34333,10.34333,0,0,1,.031,2.606,25.28451,25.28451,0,0,1-2.137,6.875,8.03257,8.03257,0,0,1-.647,1.074,1.24933,1.24933,0,0,1-.489.457c-1.506.61-3.007,1.24-4.544,1.763a11.36216,11.36216,0,0,1-2.409.442c-1.832.2-3.263-.76-4.728-1.666-3.129-1.935-4.985-5.019-7.147-7.825a31.42943,31.42943,0,0,1-1.851-2.729c-.294-.477-.433-1.047-.685-1.553a16.30823,16.30823,0,0,0-.893-1.591c-.829-1.29-1.669-2.574-2.533-3.841-.629-.922-1.322-1.801-1.952-2.723-1.062-1.555-2.153-3.095-3.128-4.704-1.055-1.741-2.781-2.484-4.506-3.227a1.36044,1.36044,0,0,0-1.188.256,25.21042,25.21042,0,0,0-4.752,6.142,2.31871,2.31871,0,0,0-.26,1.143c.139,3.557.305,7.113.472,10.669q.183,3.9225.394,7.843a3.74177,3.74177,0,0,0,.187.75c.019.067.062.127.079.193a1.96825,1.96825,0,0,1-.114,1.903c-.486.572-1.153.342-1.765.212a2.23538,2.23538,0,0,1-.692-.233c-1.319-.807-2.797-.53-4.192-.508a6.05959,6.05959,0,0,0-2.468.89,4.441,4.441,0,0,1-2.647.599,2.05943,2.05943,0,0,1-1.916-2.538c.304-1.389.811-2.733,1.249-4.091.89-2.754,1.877-5.481,2.655-8.266a23.57041,23.57041,0,0,0,.583-4.341,82.10877,82.10877,0,0,0,.362-8.942c-.1-4.381-.115-8.763-.232-13.143-.035-1.355-.32-2.702-.425-4.057-.167-2.14-.254-4.286-.423-6.426-.1-1.25-.304-2.492-.443-3.74a2.07792,2.07792,0,0,0-1.437-1.854,1.32313,1.32313,0,0,1-.925-1.413,1.20076,1.20076,0,0,0-.05-.307c-.184-.701.153-1.232.869-1.176a6.06375,6.06375,0,0,0,2.725-.618c.844-.332,1.658-.746,2.513-1.041q2.2455-.7755,4.528-1.443c.938-.277,1.196.199,1.837,1.311a3.68751,3.68751,0,0,1,.336,1.725c.026,1.691-.022,3.383-.038,5.075-.017,1.762.045,3.53-.06,5.287-.204,3.431-.53,6.854-.747,10.284-.116,1.828-.113,3.663-.159,5.496a3.58856,3.58856,0,0,0,.054.466"/><path class="cls-2" d="M14.67439,126.91647a1.41017,1.41017,0,0,0,.317-.106,75.09442,75.09442,0,0,0,6.334-4.591,50.22808,50.22808,0,0,1,4.119-3.041c.254-.185.501-.38.742-.581q3.756-3.1305,7.51-6.264c2.422-2.024,4.859-4.031,7.25-6.091a4.80707,4.80707,0,0,0,1.513-2.152,2.27622,2.27622,0,0,0-.82-2.602,2.27633,2.27633,0,0,1-.879-2.172,1.264,1.264,0,0,1,1.369-1.231,7.65267,7.65267,0,0,1,1.953.28,10.64432,10.64432,0,0,0,6.335.049,6.524,6.524,0,0,1,3.76.044,1.35758,1.35758,0,0,1,.907.794c.88,1.847.593,3.305-1.081,4.843a31.75312,31.75312,0,0,1-8.019,5.719,22.82684,22.82684,0,0,0-3.556,2.456c-2.259,1.638-4.523,3.271-6.753,4.95-.945.711-1.809,1.53-2.709,2.302q-2.085,1.788-4.17,3.58a3.79974,3.79974,0,0,0-.575.597c1.522-.261,2.548.558,3.665,1.367,2.384,1.727,3.591,4.238,4.735,6.784,1.216,2.705,2.172,5.532,3.468,8.195,2.22,4.561,4.195,9.258,7.032,13.5a2.32453,2.32453,0,0,0,1.26,1.063c-.094-.812.587-1.018.976-1.461.885-1.008,1.732-2.051,2.596-3.077q1.5465-1.839,3.098-3.674a1.03925,1.03925,0,0,1,.156-.139c.563-.428,1.147-.872,1.903-.588a1.97876,1.97876,0,0,1,1.272,1.782,10.34333,10.34333,0,0,1,.031,2.606,25.28451,25.28451,0,0,1-2.137,6.875,8.03257,8.03257,0,0,1-.647,1.074,1.24933,1.24933,0,0,1-.489.457c-1.506.61-3.007,1.24-4.544,1.763a11.36216,11.36216,0,0,1-2.409.442c-1.832.2-3.263-.76-4.728-1.666-3.129-1.935-4.985-5.019-7.147-7.825a31.42943,31.42943,0,0,1-1.851-2.729c-.294-.477-.433-1.047-.685-1.553a16.30823,16.30823,0,0,0-.893-1.591c-.829-1.29-1.669-2.574-2.533-3.841-.629-.922-1.322-1.801-1.952-2.723-1.062-1.555-2.153-3.095-3.128-4.704-1.055-1.741-2.781-2.484-4.506-3.227a1.36044,1.36044,0,0,0-1.188.256,25.21042,25.21042,0,0,0-4.752,6.142,2.31871,2.31871,0,0,0-.26,1.143c.139,3.557.305,7.113.472,10.669q.183,3.9225.394,7.843a3.74177,3.74177,0,0,0,.187.75c.019.067.062.127.079.193a1.96825,1.96825,0,0,1-.114,1.903c-.486.572-1.153.342-1.765.212a2.23538,2.23538,0,0,1-.692-.233c-1.319-.807-2.797-.53-4.192-.508a6.05959,6.05959,0,0,0-2.468.89,4.441,4.441,0,0,1-2.647.599,2.05943,2.05943,0,0,1-1.916-2.538c.304-1.389.811-2.733,1.249-4.091.89-2.754,1.877-5.481,2.655-8.266a23.57041,23.57041,0,0,0,.583-4.341,82.10877,82.10877,0,0,0,.362-8.942c-.1-4.381-.115-8.763-.232-13.143-.035-1.355-.32-2.702-.425-4.057-.167-2.14-.254-4.286-.423-6.426-.1-1.25-.304-2.492-.443-3.74a2.07792,2.07792,0,0,0-1.437-1.854,1.32313,1.32313,0,0,1-.925-1.413,1.20076,1.20076,0,0,0-.05-.307c-.184-.701.153-1.232.869-1.176a6.06375,6.06375,0,0,0,2.725-.618c.844-.332,1.658-.746,2.513-1.041q2.2455-.7755,4.528-1.443c.938-.277,1.196.199,1.837,1.311a3.68751,3.68751,0,0,1,.336,1.725c.026,1.691-.022,3.383-.038,5.075-.017,1.762.045,3.53-.06,5.287-.204,3.431-.53,6.854-.747,10.284-.116,1.828-.113,3.663-.159,5.496A3.58856,3.58856,0,0,0,14.67439,126.91647Z"/><path class="cls-1" d="M98.17248,141.79757c.044-.003.089-.006.133-.008-.159-1.981-.275-3.965-.494-5.939a12.49293,12.49293,0,0,0-.656-3.057,17.39781,17.39781,0,0,0-1.642-3.092,6.81154,6.81154,0,0,0-2.709-2.484,21.06636,21.06636,0,0,0-3.517-1.338,11.15005,11.15005,0,0,0-2.829-.401c-1.269-.026-2.541.119-3.812.165a8.75566,8.75566,0,0,0-1.795-.002c-2.342.604-4.71,1.204-6.294,3.275a7.72809,7.72809,0,0,0-1.072,1.524,26.87611,26.87611,0,0,0-.916,2.774,19.679,19.679,0,0,0-.133,11.73,20.545,20.545,0,0,0,7.93,11.12,6.71248,6.71248,0,0,0,1.67.851c1.383.478,2.779.927,4.192,1.303a5.2784,5.2784,0,0,0,2.26.257,9.09727,9.09727,0,0,0,2.853-1.114,13.379,13.379,0,0,0,6.089-8.35,24.71564,24.71564,0,0,0,.742-7.214m5.906,4.166a4.95491,4.95491,0,0,0-.206.717,11.83306,11.83306,0,0,1-1.176,4.477,31.57352,31.57352,0,0,1-3.277,5.274,38.63753,38.63753,0,0,1-4.357,3.949c-2.101.716-3.989,2.085-6.391,1.876-1.154-.1-2.332.126-3.499.128-1.149.001-2.301-.058-3.446-.153-1.667-.14-3.329-.334-4.992-.508a18.43862,18.43862,0,0,1-2.12-.247,12.31465,12.31465,0,0,1-2.842-.84,32.85445,32.85445,0,0,1-4.166-2.502,7.73714,7.73714,0,0,1-2.286-2.969c-.246-.49-.613-.918-.886-1.397-.28-.488-.523-.998-.763-1.508-.292-.618-.595-1.233-.839-1.871a18.67543,18.67543,0,0,1-.757-2.303,12.55466,12.55466,0,0,1-.283-2.154c-.047-.783-.033-1.572-.006-2.357.027-.766.064-1.536.164-2.295a20.35876,20.35876,0,0,1,2.629-7.12,24.61056,24.61056,0,0,1,6.233-7.267,16.34643,16.34643,0,0,1,5.419-3.209c1.665-.511,3.32-1.053,4.986-1.562a3.86333,3.86333,0,0,1,.983-.14c2.163-.076,4.326-.167,6.489-.192.865-.01,1.731.132,2.69.213-.462-.978-.903-1.881-1.317-2.796a31.29,31.29,0,0,0-3.068-5.287c-1.379-1.931-2.672-3.924-4.052-5.854a12.89033,12.89033,0,0,0-1.465-1.483c-.147-.147-.296-.293-.429-.453s-.227-.358-.373-.504a18.64571,18.64571,0,0,1-1.866-1.98,2.20757,2.20757,0,0,0-3.34.303,5.28648,5.28648,0,0,0-.302.49,18.70915,18.70915,0,0,1-2.984,4.211c-.868.977-1.601,2.074-2.463,3.057a11.56033,11.56033,0,0,1-1.842,1.68.97136.97136,0,0,1-1.524-.812,12.635,12.635,0,0,1,.927-4.998c.38-1.196.876-2.362,1.166-3.579a12.95364,12.95364,0,0,0,.159-2.547,3.21441,3.21441,0,0,1,.516-1.67,2.88683,2.88683,0,0,1,2.413-1.096,3.94437,3.94437,0,0,1,.889-.003,24.2487,24.2487,0,0,0,3.41-.169,17.07359,17.07359,0,0,1,5.516.37,2.3793,2.3793,0,0,0,.775-.067,3.72908,3.72908,0,0,1,1.121-.064,19.38417,19.38417,0,0,1,5.554,2.38,22.59345,22.59345,0,0,1,6.479,6.383c1.576,2.196,3.044,4.471,4.518,6.738a10.06931,10.06931,0,0,1,1.159,2.282c.926,2.816,2.712,5.178,3.998,7.801.453.924.868,1.87,1.37,2.767,1.054,1.888,2.192,3.729,3.228,5.625q4.1925,7.671,8.323,15.377a45.55443,45.55443,0,0,0,4.672,6.939c.266.332.496.218.663-.042a5.46417,5.46417,0,0,0,.411-.903c.572-1.403,1.072-2.84,1.73-4.202a28.71958,28.71958,0,0,1,1.786-2.888,1.30205,1.30205,0,0,1,.342-.318c.474-.348.947-.698,1.438-1.022a.49146.49146,0,0,1,.431-.052,4.30787,4.30787,0,0,1,.799.738,1.13285,1.13285,0,0,1,.214.617,19.19683,19.19683,0,0,1-.444,5.878c-.339,1.313-.74,2.609-1.087,3.92a1.80953,1.80953,0,0,0-.061.967,1.65414,1.65414,0,0,1-.083,1.257c-.144.337-.261.686-.387,1.03a4.00858,4.00858,0,0,1-3.946,2.812,7.99324,7.99324,0,0,1-3.688-.558,9.27248,9.27248,0,0,0-1.914-.503,1.16953,1.16953,0,0,0-.564.012,3.80475,3.80475,0,0,1-2.547-.307c-.371-.149-.729-.33-1.1-.478a2.716,2.716,0,0,1-1.838-1.98,1.454,1.454,0,0,0-1.023-1.095.99388.99388,0,0,1-.497-.461c-.459-.902-.866-1.831-1.323-2.734a20.30614,20.30614,0,0,0-1.738-2.835c-1.129-1.544-2.027-3.256-3.054-4.877a8.21567,8.21567,0,0,0-.989-1.057"/><path class="cls-2" d="M98.17248,141.79757c.044-.003.089-.006.133-.008-.159-1.981-.275-3.965-.494-5.939a12.49293,12.49293,0,0,0-.656-3.057,17.39781,17.39781,0,0,0-1.642-3.092,6.81154,6.81154,0,0,0-2.709-2.484,21.06636,21.06636,0,0,0-3.517-1.338,11.15005,11.15005,0,0,0-2.829-.401c-1.269-.026-2.541.119-3.812.165a8.75566,8.75566,0,0,0-1.795-.002c-2.342.604-4.71,1.204-6.294,3.275a7.72809,7.72809,0,0,0-1.072,1.524,26.87611,26.87611,0,0,0-.916,2.774,19.679,19.679,0,0,0-.133,11.73,20.545,20.545,0,0,0,7.93,11.12,6.71248,6.71248,0,0,0,1.67.851c1.383.478,2.779.927,4.192,1.303a5.2784,5.2784,0,0,0,2.26.257,9.09727,9.09727,0,0,0,2.853-1.114,13.379,13.379,0,0,0,6.089-8.35A24.71564,24.71564,0,0,0,98.17248,141.79757Zm5.906,4.166a4.95491,4.95491,0,0,0-.206.717,11.83306,11.83306,0,0,1-1.176,4.477,31.57352,31.57352,0,0,1-3.277,5.274,38.63753,38.63753,0,0,1-4.357,3.949c-2.101.716-3.989,2.085-6.391,1.876-1.154-.1-2.332.126-3.499.128-1.149.001-2.301-.058-3.446-.153-1.667-.14-3.329-.334-4.992-.508a18.43862,18.43862,0,0,1-2.12-.247,12.31465,12.31465,0,0,1-2.842-.84,32.85445,32.85445,0,0,1-4.166-2.502,7.73714,7.73714,0,0,1-2.286-2.969c-.246-.49-.613-.918-.886-1.397-.28-.488-.523-.998-.763-1.508-.292-.618-.595-1.233-.839-1.871a18.67543,18.67543,0,0,1-.757-2.303,12.55466,12.55466,0,0,1-.283-2.154c-.047-.783-.033-1.572-.006-2.357.027-.766.064-1.536.164-2.295a20.35876,20.35876,0,0,1,2.629-7.12,24.61056,24.61056,0,0,1,6.233-7.267,16.34643,16.34643,0,0,1,5.419-3.209c1.665-.511,3.32-1.053,4.986-1.562a3.86333,3.86333,0,0,1,.983-.14c2.163-.076,4.326-.167,6.489-.192.865-.01,1.731.132,2.69.213-.462-.978-.903-1.881-1.317-2.796a31.29,31.29,0,0,0-3.068-5.287c-1.379-1.931-2.672-3.924-4.052-5.854a12.89033,12.89033,0,0,0-1.465-1.483c-.147-.147-.296-.293-.429-.453s-.227-.358-.373-.504a18.64571,18.64571,0,0,1-1.866-1.98,2.20757,2.20757,0,0,0-3.34.303,5.28648,5.28648,0,0,0-.302.49,18.70915,18.70915,0,0,1-2.984,4.211c-.868.977-1.601,2.074-2.463,3.057a11.56033,11.56033,0,0,1-1.842,1.68.97136.97136,0,0,1-1.524-.812,12.635,12.635,0,0,1,.927-4.998c.38-1.196.876-2.362,1.166-3.579a12.95364,12.95364,0,0,0,.159-2.547,3.21441,3.21441,0,0,1,.516-1.67,2.88683,2.88683,0,0,1,2.413-1.096,3.94437,3.94437,0,0,1,.889-.003,24.2487,24.2487,0,0,0,3.41-.169,17.07359,17.07359,0,0,1,5.516.37,2.3793,2.3793,0,0,0,.775-.067,3.72908,3.72908,0,0,1,1.121-.064,19.38417,19.38417,0,0,1,5.554,2.38,22.59345,22.59345,0,0,1,6.479,6.383c1.576,2.196,3.044,4.471,4.518,6.738a10.06931,10.06931,0,0,1,1.159,2.282c.926,2.816,2.712,5.178,3.998,7.801.453.924.868,1.87,1.37,2.767,1.054,1.888,2.192,3.729,3.228,5.625q4.1925,7.671,8.323,15.377a45.55443,45.55443,0,0,0,4.672,6.939c.266.332.496.218.663-.042a5.46417,5.46417,0,0,0,.411-.903c.572-1.403,1.072-2.84,1.73-4.202a28.71958,28.71958,0,0,1,1.786-2.888,1.30205,1.30205,0,0,1,.342-.318c.474-.348.947-.698,1.438-1.022a.49146.49146,0,0,1,.431-.052,4.30787,4.30787,0,0,1,.799.738,1.13285,1.13285,0,0,1,.214.617,19.19683,19.19683,0,0,1-.444,5.878c-.339,1.313-.74,2.609-1.087,3.92a1.80953,1.80953,0,0,0-.061.967,1.65414,1.65414,0,0,1-.083,1.257c-.144.337-.261.686-.387,1.03a4.00858,4.00858,0,0,1-3.946,2.812,7.99324,7.99324,0,0,1-3.688-.558,9.27248,9.27248,0,0,0-1.914-.503,1.16953,1.16953,0,0,0-.564.012,3.80475,3.80475,0,0,1-2.547-.307c-.371-.149-.729-.33-1.1-.478a2.716,2.716,0,0,1-1.838-1.98,1.454,1.454,0,0,0-1.023-1.095.99388.99388,0,0,1-.497-.461c-.459-.902-.866-1.831-1.323-2.734a20.30614,20.30614,0,0,0-1.738-2.835c-1.129-1.544-2.027-3.256-3.054-4.877A8.21567,8.21567,0,0,0,104.07849,145.96357Z"/><path class="cls-1" d="M85.24639,147.23287c-3.172-.052-4.703-2.323-5.299-5.441-.429-2.24,1.532-5.738,4.068-6.383a4.56767,4.56767,0,0,1,5.139,1.739c1.383,2.616,1.166,3.658.862,6.855-.166,1.734-2.547,3.266-4.77,3.23"/><path class="cls-3" d="M85.24639,147.23287c-3.172-.052-4.703-2.323-5.299-5.441-.429-2.24,1.532-5.738,4.068-6.383a4.56767,4.56767,0,0,1,5.139,1.739c1.383,2.616,1.166,3.658.862,6.855C89.85039,145.73687,87.46939,147.26887,85.24639,147.23287Z"/><path d="M93.42919,72.87257a1.6098,1.6098,0,0,0,.259.087,3.65411,3.65411,0,0,0,.823.101,2.4729,2.4729,0,0,0,1.353-.381c.01-.014.04-.057.045-.063-.034.006-.069.012-.104.017a9.08294,9.08294,0,0,1-1.064.087,8.43524,8.43524,0,0,0-1.312.152m5.268,4.726a1.9589,1.9589,0,0,1-1.4-.591,3.46737,3.46737,0,0,1-.365-.45,6.58755,6.58755,0,0,1-2.461.404c-.382,0-.763-.017-1.131-.035l-.119-.005a1.34648,1.34648,0,0,1-.485-.099c-.139-.059-.279-.116-.418-.174a6.7029,6.7029,0,0,1-2.89-1.861,4.56128,4.56128,0,0,1-1.063-2.569,7.33458,7.33458,0,0,1,1.005-4.54,5.793,5.793,0,0,1,3.613-2.647,4.38292,4.38292,0,0,1,.994-.111,6.48028,6.48028,0,0,1,1.838.296c.067.019.134.04.201.061.048-.041.097-.08.148-.117a1.84209,1.84209,0,0,1,1.967-.174,1.85019,1.85019,0,0,1,1.091,1.638,3.30139,3.30139,0,0,1-.551,1.931,1.83323,1.83323,0,0,1-1.552.835c-.043,0-.087-.001-.13-.004a2.03634,2.03634,0,0,1,.205,2.363,1.96388,1.96388,0,0,1,.376-.036,1.98507,1.98507,0,0,1,1.66.922c.128.197.234.391.337.579l.325.588c.134.244.269.489.411.73a2.012,2.012,0,0,1,.12,1.986,1.90915,1.90915,0,0,1-1.726,1.08"/><path d="M31.07329,74.009a2.14469,2.14469,0,0,1,.366.329,1.88482,1.88482,0,0,1,.292-.351,2.39332,2.39332,0,0,1,.343-.265,1.48324,1.48324,0,0,0,.683-1.414,2.892,2.892,0,0,0-.016-.293,2.08288,2.08288,0,0,0-1.205.751l-.031.042a1.53309,1.53309,0,0,1-.386.406c-.031.022-.069.048-.049.299a3.723,3.723,0,0,1,.003.496m-1.272,3.531-.482-.018c-.694-.027-1.387-.053-2.08-.072a1.99791,1.99791,0,0,1-1.461-.635,1.95,1.95,0,0,1-.468-1.846,1.91719,1.91719,0,0,1,1.31-1.336,2.79045,2.79045,0,0,1,.545-.1l.003-4.295a1.95362,1.95362,0,0,1-1.892-1.714,1.931,1.931,0,0,1,1.518-2.159,3.01713,3.01713,0,0,1,.682-.072c.056,0,.111.001.165.004.127.005.254.007.38.007a21.856,21.856,0,0,0,2.542-.2l.243-.029a8.65024,8.65024,0,0,1,.984-.056c.111,0,.221.002.331.006a1.92377,1.92377,0,0,1,1.925,1.882,1.9875,1.9875,0,0,1-.273,1.121,3.25063,3.25063,0,0,1,2.578,2.163,6.67264,6.67264,0,0,1,.222,3.284,1.96717,1.96717,0,0,1,.313.086,1.95075,1.95075,0,0,1-.298,3.742,3.00254,3.00254,0,0,1-.576.051l-1.163.023q-.846.015-1.692.035l-.057.001a2.00037,2.00037,0,0,1-1.551-.696,1.98511,1.98511,0,0,1-1.658.825Z"/><path d="M88.49679,65.03857a2.19014,2.19014,0,0,0-1.961-1.215c-.07,0-.14.003-.212.01l-.036.001c-.033,0-.067,0-.198-.1a37.89435,37.89435,0,0,0-7.3-4.407,38.75536,38.75536,0,0,0-7.541-2.56,8.73252,8.73252,0,0,0,.079-3.075,9.29328,9.29328,0,0,0-5.9-7.493,2.0813,2.0813,0,0,0-.37-.112l-.069-.016-.837-.222a1.74535,1.74535,0,0,1-.502.787l.26.653a2.0492,2.0492,0,0,0,.49.709,3.271,3.271,0,0,1,.356,3.755,3.47515,3.47515,0,0,1-2.939,1.574l-.086.001a2.24333,2.24333,0,0,1-1.985-1.092l-.054-.079a3.76533,3.76533,0,0,0-.224-.307,3.0793,3.0793,0,0,1-.669-1.715,1.71468,1.71468,0,0,1,.216-1.113c.208-.348.439-.692.683-1.055.114-.17.229-.342.346-.518l.436-.673a1.69653,1.69653,0,0,1-.572-.798l-.72.064a1.146,1.146,0,0,0-.341.058c-.159.053-.319.108-.474.173a9.47267,9.47267,0,0,0-5.815,8.668,9.15009,9.15009,0,0,0,.257,2.223,38.1006,38.1006,0,0,0-13.486,6.729,1.02863,1.02863,0,0,1-.608.251,2.40373,2.40373,0,0,0-2.337,2.366,4.41284,4.41284,0,0,0-.006.542,2.21763,2.21763,0,0,0,2.215,2.311c.086.006.171.009.254.009a2.63284,2.63284,0,0,0,2.728-2.098.48047.48047,0,0,1,.209-.33,34.47473,34.47473,0,0,1,12.613-6.138c.04-.01.091-.023.144-.037.03.038.063.079.1.122a9.20016,9.20016,0,0,0,7.219,3.524,10.89772,10.89772,0,0,0,1.932-.179,9.00767,9.00767,0,0,0,5.874-3.779l.002-.003a34.64915,34.64915,0,0,1,10.134,3.812,36.22734,36.22734,0,0,1,3.665,2.407,3.66545,3.66545,0,0,0,.125.948,2.38012,2.38012,0,0,0,2.306,1.866,2.54674,2.54674,0,0,0,1.187-.3,6.91775,6.91775,0,0,0,.804-.508,2.27553,2.27553,0,0,0,.94-1.48,3.233,3.233,0,0,0-.332-2.161"/><path class="cls-4" d="M98.089,76.48957v-.003a.72946.72946,0,0,1-.142-.12,5.41919,5.41919,0,0,1-.499-.663c-.113-.153-.175-.226-.27-.226a.56371.56371,0,0,0-.233.076,5.29852,5.29852,0,0,1-2.474.496c-.401,0-.805-.019-1.206-.037a.5489.5489,0,0,1-.175-.029,6.91024,6.91024,0,0,1-2.954-1.771,3.6208,3.6208,0,0,1-.86-2.058,6.41187,6.41187,0,0,1,.863-3.989,5.40616,5.40616,0,0,1,1.086-1.261,4.65079,4.65079,0,0,1,1.964-.987,3.56926,3.56926,0,0,1,.787-.088,5.66115,5.66115,0,0,1,1.584.263c.153.043.306.094.456.149a.48821.48821,0,0,0,.167.036.33242.33242,0,0,0,.263-.138,1.29824,1.29824,0,0,1,.251-.24,1.01187,1.01187,0,0,1,.59-.208.98941.98941,0,0,1,.437.109.95451.95451,0,0,1,.587.856,2.43825,2.43825,0,0,1-.404,1.407.92785.92785,0,0,1-.787.415,1.00721,1.00721,0,0,1-.339-.058,2.71305,2.71305,0,0,0-.896-.168,1.34881,1.34881,0,0,0-.168.007h-.055a2.25,2.25,0,0,1-.462-.076,2.7756,2.7756,0,0,1-.335-.099,2.4541,2.4541,0,0,0-.751-.12,2.28733,2.28733,0,0,0-1.435.518,3.43339,3.43339,0,0,0-.908,1.089,2.38979,2.38979,0,0,0-.145.503,5.95876,5.95876,0,0,0,.623-.062,13.8151,13.8151,0,0,1,1.493-.255c.51-.059,1.021-.095,1.534-.131.04-.004.08-.004.12-.004a1.07692,1.07692,0,0,1,1.17,1.137.98413.98413,0,0,1-.889.972c-.142.019-.281.037-.423.044-.178.018-.357.029-.532.033a22.21994,22.21994,0,0,0-3.06.473.51336.51336,0,0,0-.138.092,1.37572,1.37572,0,0,0,.699.881,4.6864,4.6864,0,0,0,1.261.594,4.55319,4.55319,0,0,0,1.027.124,3.408,3.408,0,0,0,1.851-.528c.018-.011.04-.026.058-.037a1.45162,1.45162,0,0,0,.281-.328,1.05346,1.05346,0,0,1,1.767.051c.149.234.277.481.411.722.212.382.419.765.638,1.14a1.125,1.125,0,0,1,.087,1.126.99666.99666,0,0,1-.907.568,1.02529,1.02529,0,0,1-.608-.197m-10.158-9.454a1.352,1.352,0,0,1-.568.9,6.25,6.25,0,0,1-.699.445,1.64875,1.64875,0,0,1-.766.196,1.46674,1.46674,0,0,1-1.424-1.176,2.8112,2.8112,0,0,1-.095-.776.70216.70216,0,0,0-.335-.656,35.80837,35.80837,0,0,0-3.793-2.492,35.30686,35.30686,0,0,0-10.419-3.917,1.06022,1.06022,0,0,0-.252-.029.76334.76334,0,0,0-.655.397,8.13631,8.13631,0,0,1-5.294,3.414,10.0377,10.0377,0,0,1-1.771.164,8.31119,8.31119,0,0,1-6.525-3.202c-.298-.354-.328-.5-.553-.5a2.8671,2.8671,0,0,0-.609.121,35.22,35.22,0,0,0-12.944,6.299,1.36566,1.36566,0,0,0-.54.845,1.7381,1.7381,0,0,1-1.843,1.392c-.062,0-.128,0-.193-.004a1.32371,1.32371,0,0,1-1.366-1.446c-.004-.142-.004-.292.003-.434a1.50755,1.50755,0,0,1,1.494-1.523,1.9235,1.9235,0,0,0,1.104-.441,37.01444,37.01444,0,0,1,13.451-6.645c.073-.018.142-.036.211-.058.346-.109.375-.142.27-.499a9.34647,9.34647,0,0,1-.274-1.286,7.94179,7.94179,0,0,1-.076-1.173,8.55408,8.55408,0,0,1,5.257-7.837,4.13865,4.13865,0,0,1,.412-.149.49144.49144,0,0,1,.142-.015c-.368.557-.729,1.071-1.049,1.607a2.63655,2.63655,0,0,0-.339,1.679,3.9953,3.9953,0,0,0,.878,2.201,3.33977,3.33977,0,0,1,.226.32,3.16923,3.16923,0,0,0,2.732,1.483c.037,0,.077-.004.113-.004a4.38077,4.38077,0,0,0,3.658-1.956,4.1501,4.1501,0,0,0-.463-4.933,1.10915,1.10915,0,0,1-.28-.397,2.38994,2.38994,0,0,1,.317.087,8.40491,8.40491,0,0,1,5.355,6.799,7.32687,7.32687,0,0,1,.055,1.851,9.40735,9.40735,0,0,1-.197,1.227c-.116.529-.105.55.437.667a37.8669,37.8669,0,0,1,7.684,2.572,36.72737,36.72737,0,0,1,7.126,4.303,1.16817,1.16817,0,0,0,.754.288c.037,0,.077,0,.117-.004.044-.004.087-.007.131-.007a1.28263,1.28263,0,0,1,1.159.736,2.33643,2.33643,0,0,1,.236,1.566m-50.692,8.485a1.00482,1.00482,0,0,1-.838.889,2.5959,2.5959,0,0,1-.477.037c-.929.018-1.858.033-2.791.054h-.032a1.06332,1.06332,0,0,1-.999-.597,1.15861,1.15861,0,0,1,.252-1.253,1.39393,1.39393,0,0,1,.207-.157,2.38282,2.38282,0,0,0,1.108-2.193,4.17013,4.17013,0,0,0-.091-.82c-.073-.328-.186-.441-.445-.441a1.67794,1.67794,0,0,0-.178.011,3.10834,3.10834,0,0,0-2.131,1.148,1.191,1.191,0,0,1-.226.269,1.12288,1.12288,0,0,0-.437,1.115,3.04236,3.04236,0,0,1,.003.394.78922.78922,0,0,0,.375.768.99572.99572,0,0,1,.379,1.235,1.04369,1.04369,0,0,1-1.027.653.25474.25474,0,0,1-.055-.004c-.652-.022-1.297-.047-1.945-.069-.208-.008-.419-.015-.627-.018a1.11418,1.11418,0,0,1-.82-.347,1.01791,1.01791,0,0,1,.438-1.69,3.78766,3.78766,0,0,1,.732-.091c.368-.029.415-.069.452-.441.011-.117.011-.233.011-.35q0-2.1855.003-4.368v-.087c-.011-.784-.029-.802-.794-.835a1.06434,1.06434,0,0,1-1.104-.914,1.02063,1.02063,0,0,1,.816-1.166,2.07029,2.07029,0,0,1,.477-.047h.132c.138.007.276.01.415.01a24.76292,24.76292,0,0,0,2.889-.236,7.84853,7.84853,0,0,1,.882-.051c.098,0,.196.003.295.007a1.02054,1.02054,0,0,1,1.049,1.009,1.00306,1.00306,0,0,1-.962,1.086c-.492.062-.987.069-1.479.117-.484.047-.532.098-.532.597a3.18057,3.18057,0,0,0,.084,1.071,5.8818,5.8818,0,0,1,2.353-.856,3.16516,3.16516,0,0,1,.372-.051c.088-.007.171-.011.259-.011a2.51776,2.51776,0,0,1,.71.098,2.16839,2.16839,0,0,1,1.541,1.476,5.71864,5.71864,0,0,1,.088,3.308c-.026.098-.051.197-.073.295a.617.617,0,0,0,.011.146c.127.029.277.062.422.087a3.47241,3.47241,0,0,1,.642.109,1.01626,1.01626,0,0,1,.666,1.104m61.797,2.966a2.793,2.793,0,0,0,2.204-1.567,2.93709,2.93709,0,0,0-.153-2.849c-.135-.233-.266-.47-.397-.706-.073-.135-.149-.27-.222-.401-.033-.062-.069-.124-.102-.186-.106-.193-.226-.412-.372-.638a2.92358,2.92358,0,0,0-1.614-1.216.82972.82972,0,0,0,.008-.095,3.06792,3.06792,0,0,0-.073-.794,2.7157,2.7157,0,0,0,1.122-.988,4.25181,4.25181,0,0,0,.696-2.455,2.7677,2.7677,0,0,0-1.596-2.423,2.75113,2.75113,0,0,0-2.689.109,7.19323,7.19323,0,0,0-1.872-.269,5.44641,5.44641,0,0,0-1.199.134,6.53434,6.53434,0,0,0-2.86,1.48c-.066.062-.131.12-.193.182a3.61864,3.61864,0,0,0-.12-.477,3.95981,3.95981,0,0,0-.306-.722,3.11387,3.11387,0,0,0-2.587-1.687,1.46314,1.46314,0,0,0-.175-.007h-.022a38.85078,38.85078,0,0,0-7.345-4.412,39.54594,39.54594,0,0,0-6.812-2.401c-.026-.007-.055-.014-.081-.022a9.25792,9.25792,0,0,0-.047-2.528,10.16678,10.16678,0,0,0-6.448-8.19,2.9609,2.9609,0,0,0-.525-.16l-.037-.008-1.224-.324a.66043.66043,0,0,0-.441.16,1.76615,1.76615,0,0,0-.506,1.53l.222,1.072a3.12,3.12,0,0,0,.492,1.02,2.36764,2.36764,0,0,1,.252,2.579,2.56833,2.56833,0,0,1-2.223,1.188l-.062.004a1.38187,1.38187,0,0,1-.597-.121,1.68757,1.68757,0,0,1-1.184-1.373,2.681,2.681,0,0,1-.244-.893.81189.81189,0,0,1,.065-.492,1.97709,1.97709,0,0,1,.288-.776c.149-.32.313-.604.408-.874.011-.015.018-.029.029-.044l.496-1.545c-.03.004-.081.033-.084.004a1.361,1.361,0,0,0-.517-1.133,1.03177,1.03177,0,0,0-.507-.106l-.739.066a2.0353,2.0353,0,0,0-.587.106c-.164.054-.343.113-.539.196a10.38305,10.38305,0,0,0-6.369,9.495,9.504,9.504,0,0,0,.113,1.585,39.02821,39.02821,0,0,0-12.992,6.659.29189.29189,0,0,1-.087.059.07133.07133,0,0,1-.025.003,3.2775,3.2775,0,0,0-3.152,2.955c-.189.182-.379.368-.561.557a2.82806,2.82806,0,0,0-2.787-2.634c-.124-.003-.244-.007-.364-.007a8.97253,8.97253,0,0,0-1.093.066l-.244.025a20.69012,20.69012,0,0,1-2.434.197c-.117,0-.23-.004-.346-.007-.066-.004-.131-.004-.201-.004a3.77107,3.77107,0,0,0-.885.095,2.85256,2.85256,0,0,0-2.219,3.151,2.80857,2.80857,0,0,0,1.888,2.339v.102l-.004,2.722a2.83624,2.83624,0,0,0-1.144,4.641,2.86312,2.86312,0,0,0,1.927.915,39.35247,39.35247,0,1,0,71.998.138"/><path d="M44.73569,113.76977c.241.359.448.708.696,1.025a4.51576,4.51576,0,0,0,.574.538c.134.12.272.235.413.347.29.23.576.466.878.68.132.093.316.113.443.21.261.198.477.464.753.634.512.315,1.06.571,1.58.874.194.113.329.338.529.429.685.311,1.387.586,2.082.875a3.32545,3.32545,0,0,0,.35.147c.58.159,1.162.309,1.744.464.009.002.015.018.025.02.208.049.416.11.627.142.188.027.384,0,.569.037.225.046.472.238.655.183a8.19585,8.19585,0,0,0,1.385-.602c.119-.062.186-.25.245-.394.056-.135.034-.308.107-.428a6.04767,6.04767,0,0,0,.641-.979,4.06392,4.06392,0,0,0,.09-1.122c.002-.025-.036-.052-.054-.078a12.01589,12.01589,0,0,0-1.174-1.654,10.93137,10.93137,0,0,0-1.957-1.565,5.36879,5.36879,0,0,0-1.439-.412c-.137-.037-.273-.081-.407-.126a4.05079,4.05079,0,0,1-.775-.278c-.354-.211-.672-.483-1.008-.725-.326-.234-.665-.45-.978-.699-.13-.103-.18-.313-.314-.404-.26-.174-.623-.237-.82-.457-.38-.424-.663-.935-1.012-1.391-.237-.309-.52-.583-.778-.877a1.53368,1.53368,0,0,1-.286-.369c-.101-.237-.15-.495-.236-.738-.048-.136-.184-.261-.182-.389.009-.661.083-1.323.068-1.982a1.84033,1.84033,0,0,1,1.003-1.431,3.07654,3.07654,0,0,0,.922-.371,3.66434,3.66434,0,0,1,2.389-.143,4.72707,4.72707,0,0,0,.992.219,1.759,1.759,0,0,1,.564.18c.506.332.983.709,1.487,1.044.66.44,1.323.879,2.01,1.273a4.44319,4.44319,0,0,0,1.034.367c.303.085.783.022.895.203a1.13109,1.13109,0,0,0,.885.532,12.883,12.883,0,0,0,1.589.237,16.57832,16.57832,0,0,0,2.017-.054,3.88816,3.88816,0,0,0,.919-.247,5.1747,5.1747,0,0,1,1.103-.398,1.2988,1.2988,0,0,0,1.109-.472.28288.28288,0,0,1,.127-.088c.522-.205,1.18-.283,1.52-.654.231-.251.363-.079.515-.153a.92057.92057,0,0,0,.199-.143c.052-.045.083-.126.141-.15.508-.205,1.031-.375,1.526-.608.313-.147.461-.47.903-.559a16.31612,16.31612,0,0,1,2.531-.39,2.77265,2.77265,0,0,1,2.148,1.124,3.47135,3.47135,0,0,1,.868,1.848,2.81371,2.81371,0,0,1-.357,1.913,8.22129,8.22129,0,0,1-2.142,2.521c-.546.432-1.091.868-1.65,1.284a10.80982,10.80982,0,0,1-1.09.721c-.302.172-.636.286-.954.431a11.23277,11.23277,0,0,0-1.017.479c-.455.264-.885.569-1.328.855-.181.116-.361.314-.55.323-.595.029-.825.462-1.091.87-.025.037-.005.103-.006.155,0,.05.018.114-.006.148a2.03167,2.03167,0,0,1-.309.384,1.38579,1.38579,0,0,0-.515,1.425,3.36551,3.36551,0,0,1,.003.643,1.79887,1.79887,0,0,0,.01.493c.075.249.223.475.303.722a1.96057,1.96057,0,0,0,1.837,1.118,10.82948,10.82948,0,0,1,2.432-.427,3.71567,3.71567,0,0,0,1.562-.281,7.5848,7.5848,0,0,0,2.379-1.353c.116-.102.287-.141.411-.237.135-.104.225-.271.367-.357.382-.232.789-.421,1.171-.653.316-.193.608-.424.913-.635a6.59628,6.59628,0,0,1,.593-.391c.219-.118.073-.644.643-.452.223.076.679-.439.982-.734a8.48258,8.48258,0,0,0,.719-.895c.156-.199.195-.505.559-.514.076-.002.145-.278.217-.428.028-.058.043-.152.086-.167a4.86666,4.86666,0,0,0,.523-.154c.114-.057.177-.208.283-.291a6.817,6.817,0,0,0,1.224-.968c.715-.912,1.332-1.901,2.002-2.849.106-.151.311-.233.414-.384.304-.445.537-.944.877-1.356.378-.455.263-1.073.648-1.54a6.05806,6.05806,0,0,0,.725-1.448,3.29963,3.29963,0,0,0,.202-.744c.021-.116-.069-.251-.048-.366.047-.241.168-.471.195-.712.032-.288-.094-.622.009-.869.278-.668.829-1.188.909-1.98.101-.991.37-1.964.492-2.954a17.63313,17.63313,0,0,0,.048-2.045,14.49991,14.49991,0,0,0-.032-1.561c-.049-.474-.188-.938-.283-1.407-.025-.128-.023-.262-.054-.388-.147-.598-.323-1.189-.446-1.791a3.79567,3.79567,0,0,0-1.9-2.945c-.052-.025-.173.081-.259.132-.03.019-.064.083-.072.078a4.88459,4.88459,0,0,1-.474-.253,1.31188,1.31188,0,0,0-1.496-.026,5.351,5.351,0,0,0-.953,1.013,1.09751,1.09751,0,0,0-.214.429c-.062.247-.082.504-.124.755a3.52707,3.52707,0,0,0-.115.656c.02.698.082,1.394.11,2.091.02.503.032,1.007.014,1.51-.035,1.022-.088,2.044-.142,3.065-.019.369-.071.736-.089,1.105a6.792,6.792,0,0,1,.01.712,5.9145,5.9145,0,0,1-.246.843,1.47993,1.47993,0,0,1-.125.264,4.021,4.021,0,0,1-.388.655,6.87473,6.87473,0,0,1-.984,1.018c-.42.325-.931.53-1.363.843-.402.292-.768.551-1.3.34-.416-.164-.875-.159-1.315-.29a2.28707,2.28707,0,0,1-1.545-1.578,12.70746,12.70746,0,0,1-.275-2.933c-.08-1.205-.098-2.416-.234-3.614a14.24437,14.24437,0,0,0-.541-2.531c-.271-.882-.65-1.731-1.002-2.586-.142-.344-.337-.666-.508-.998a3.009,3.009,0,0,0-.289-.545c-.251-.302-.548-.565-.807-.862a14.86851,14.86851,0,0,0-1.121-1.31,11.16371,11.16371,0,0,0-1.59-1.161c-.651-.405-1.338-.752-2.011-1.122-.39-.214-.784-.422-1.176-.634a6.27118,6.27118,0,0,1-.627-.349,4.6488,4.6488,0,0,1-1.202-.936,1.52713,1.52713,0,0,1-.371-1.507c.087-.219-.154-.547-.135-.818a2.4966,2.4966,0,0,1,.274-.823c.109-.238.41-.471.384-.675-.132-1.052,1.215-2.103,2.016-2.193.953-.107,1.888.259,2.88-.034.418-.123,1.022.379,1.539.6.205.088.405.188.608.28.15.069.304.129.453.2.19.092.374.2.566.287a3.95107,3.95107,0,0,1,.658.278c.634.445,1.243.925,1.871,1.379.68.492,1.356.991,2.062,1.444a2.45262,2.45262,0,0,0,1.178.514,4.78545,4.78545,0,0,0,1.87-.397,2.04144,2.04144,0,0,0,.756-.989,1.59154,1.59154,0,0,0,.014-.808,3.29323,3.29323,0,0,0-.226-1.254,20.105,20.105,0,0,0-1.761-2.58,24.19044,24.19044,0,0,0-1.81-1.767c-.24-.238-.677-.056-.858-.496-.076-.183-.519-.21-.791-.317-.437-.172-.871-.35-1.305-.53-.385-.159-.761-.34-1.151-.481-.608-.218-1.224-.414-1.838-.614-.587-.191-1.169-.403-1.767-.552a10.69537,10.69537,0,0,0-1.307-.178c-.274-.034-.548-.067-.823-.086-.312-.022-.716.132-.825-.321-.128-.528-.532-.389-.861-.398-.167-.005-.341.155-.504.141-.236-.021-.459-.16-.696-.198-.561-.089-1.121.148-1.71-.126-.457-.213-.961.393-1.514.14a6.94657,6.94657,0,0,0-1.149.042c-.363.041-.722.123-1.084.185-.357.06-.715.113-1.072.174-.042.007-.077.052-.12.065-.388.122-.773.261-1.169.354s-.816.098-1.203.217c-.397.121-.78.493-1.144.462-.358-.032-.679-.132-.991.088-.425.3-1.128-.062-1.406.591-.002.007-.124-.058-.187-.052a2.34565,2.34565,0,0,0-.531.086c-.117.04-.2.175-.316.224a5.99053,5.99053,0,0,0-.815.302c-.39.233-.725.561-1.119.788a16.08733,16.08733,0,0,0-1.486.744c-.834.604-1.58,1.331-2.414,1.936a6.00715,6.00715,0,0,0-1.569,2.27,1.49045,1.49045,0,0,0-.068.778,6.30745,6.30745,0,0,0,.182,1.028c.057.226.326.471.333.588.057,1.031,1.054.795,1.564,1.185.2.153.637.017.961-.024a2.2581,2.2581,0,0,0,.783-.198c.426-.233.738-.68,1.298-.658.055.002.114-.072.168-.115.544-.43,1.067-.889,1.636-1.281.434-.299.929-.505,1.39-.767.873-.495,1.709-1.073,2.622-1.477a10.99654,10.99654,0,0,1,2.013-.456c.118-.027.241-.2.327-.177a9.78022,9.78022,0,0,1,.977.357c.4.155.802.307,1.199.472.303.126.697.193.874.423a2.80682,2.80682,0,0,1,.512,1.212c.074.451.501.869.187,1.373-.006.008.059.049.072.082a.76159.76159,0,0,1,.041.188c.009.115.009.23.015.344.005.089.053.198.017.262a12.36985,12.36985,0,0,1-.832,1.368,3.63819,3.63819,0,0,1-.948.909,12.39354,12.39354,0,0,1-1.362.555c-.722.329-1.439.67-2.138,1.045a8.50583,8.50583,0,0,0-.746.602c-.332.232-.711.401-1.027.652a9.65454,9.65454,0,0,0-1.078,1.014,4.96786,4.96786,0,0,0-.857,1.1c-.367.749-1.083,1.294-1.226,2.174a7.71848,7.71848,0,0,1-.332.926c-.131.434-.557.749-.376,1.327a2.74633,2.74633,0,0,1-.138,1.167c-.073.405-.179.802-.256,1.206-.103.548-.192,1.098-.284,1.648-.003.015.05.036.051.057a2.11409,2.11409,0,0,1,.017.469c-.054.343-.148.68-.202,1.024-.05.325-.063.656-.105.982-.04.308-.087.616-.149.92a2.7605,2.7605,0,0,1-.243.906,4.589,4.589,0,0,1-.784.806c-.25.237-.478.573-.778.664a5.23328,5.23328,0,0,1-1.283.058,3.59247,3.59247,0,0,1-.883.048,2.60205,2.60205,0,0,1-.884-.437,5.8344,5.8344,0,0,1-.729-.688c-.036-.036-.015-.124-.043-.176-.054-.099-.108-.253-.19-.275-.792-.205-.713-.984-.985-1.514a4.39966,4.39966,0,0,1-.319-1.267c-.04-.234.034-.485.014-.724-.049-.612-.15-1.221-.177-1.833-.027-.608.026-1.22.013-1.829-.005-.209-.153-.418-.146-.625.024-.782.085-1.563.131-2.344.001-.019-.021-.038-.027-.058a7.00708,7.00708,0,0,1-.215-.777,11.80217,11.80217,0,0,0-.178-1.342,2.25646,2.25646,0,0,0-.54-.945,1.8512,1.8512,0,0,0-1.852-.519,2.32166,2.32166,0,0,0-1.7,1.099,6.97769,6.97769,0,0,0-.512,1.366c-.184.686-.312,1.387-.46,2.082a2.66885,2.66885,0,0,0-.149.833,5.07989,5.07989,0,0,1-.068,1.868c-.048.194-.066.395-.099.593-.013.076-.03.151-.045.227.087-.016.173-.032.266-.048-.034.288-.423.486-.204.879.097.174-.016.459-.012.693.002.11.073.218.083.33.062.7.11,1.401.176,2.101.049.522.109,1.044.183,1.563a7.38633,7.38633,0,0,0,.176.804c.076.299.195.59.241.893a9.39673,9.39673,0,0,0,.097,1.113c.1.348.433.605.314,1.053-.052.194.09.449.171.667.102.276.252.536.342.815.11.341.167.698.272,1.04.034.109.165.184.225.289.202.357.384.725.59,1.078.193.331.424.639.607.974.195.356.338.74.537,1.092.067.118.285.153.347.271.141.27.204.582.348.85.072.135.281.19.375.32.157.215.263.465.406.691.046.073.146.111.217.17a1.83884,1.83884,0,0,1,.163.156.59281.59281,0,0,1,.12.155,1.71021,1.71021,0,0,1,.071.25c.012.042.012.105.039.123.202.131.501.205.598.387.306.579.914.901,1.2,1.486.013.028.078.06.099.05.457-.22.27.45.585.421.007.54.231.258.346.164m3.387-23.089c-.107-.144-.215-.23-.227-.327-.008-.059.143-.129.205-.208a.787.787,0,0,0,.142-.26c.28-1.016.525-2.044.846-3.047.094-.294.442-.497.596-.784.142-.264.677-.436.275-.88-.016-.018.009-.099.038-.126.236-.22.478-.434.716-.65a.85855.85855,0,0,0,.132-.138,6.61333,6.61333,0,0,0,.79-1.166c.255-.612.924-.351,1.267-.716a.34682.34682,0,0,0,.097-.237c-.008-.081-.089-.153-.138-.23.144-.014.288-.029.433-.042.077-.007.154-.011.231-.016-.202-.551.546-.275.565-.645.003-.055.086-.134.147-.152a3.89744,3.89744,0,0,0,.469-.101c.116-.052.289-.184.282-.268-.031-.382.201-.236.39-.247a1.9006,1.9006,0,0,0,.631-.131c.659-.283,1.299-.613,1.964-.882.313-.127.378-.181.225-.465a.139.139,0,0,1,.039-.124c.078-.063.186-.174.253-.155.571.155.437-.257.455-.546.008-.123.005-.247.017-.37.004-.047.06-.124.049-.132-.434-.332-.139-.94-.482-1.286a1.61309,1.61309,0,0,0-.616-.352,3.677,3.677,0,0,0-.846-.174,1.658,1.658,0,0,0-.771.033c-.401.169-.754.45-1.145.648-.104.052-.305-.092-.411-.041-.41.2-.796.449-1.198.667-.173.094-.373.141-.541.241-.541.324-1.074.661-1.608.996a8.1776,8.1776,0,0,0-.846.557c-.256.209-.453.491-.707.703-.223.187-.493.316-.734.483a.707.707,0,0,0-.154.203c-.02.03-.031.098-.041.097-.127-.012-.255-.03-.381-.053-.064-.012-.146-.072-.187-.049a4.31568,4.31568,0,0,1-.986.533,12.35122,12.35122,0,0,1-1.673.134,1.2387,1.2387,0,0,1-1.095-.358c-.187-.193-.563-.198-.85-.297-.174-.06-.409-.089-.498-.216a8.73544,8.73544,0,0,1-.566-1.033,3.85306,3.85306,0,0,1-.296-.632,5.3578,5.3578,0,0,1-.198-.969,8.71182,8.71182,0,0,0-.049-1.16c-.153-.634.399-1.008.477-1.546a2.68028,2.68028,0,0,1,.163-.772,8.64433,8.64433,0,0,1,.923-1.656,12.572,12.572,0,0,1,1.395-1.286c.042-.039.024-.147.028-.223.002-.024-.017-.049-.026-.073.388.054.451-.244.639-.485a2.31989,2.31989,0,0,1,.929-.526c.255-.11.674.013.611-.491,0-.003.076-.011.114-.024.534-.187,1.072-.367,1.601-.567.41-.154.816-.322,1.212-.508.438-.206.853-.461,1.297-.651a4.80129,4.80129,0,0,1,.828-.195c.288-.066.581-.117.862-.204,1.006-.312,1.99-.718,3.015-.938a33.73858,33.73858,0,0,1,3.892-.573c.837-.079,1.692.044,2.537.01a12.63169,12.63169,0,0,0,1.26-.268,4.38374,4.38374,0,0,1,.733.06c.53.019,1.061.013,1.59.039.228.011.453.094.681.108.391.022.761.237,1.103.256.481.027.927.182,1.395.232a14.17266,14.17266,0,0,1,1.625.439,12.125,12.125,0,0,1,1.211.175c.641.219,1.247.539,1.877.792a1.60567,1.60567,0,0,0,.498.021.16813.16813,0,0,1,.106.034c.18.193.354.393.535.586a.34154.34154,0,0,0,.142.072,8.84521,8.84521,0,0,1,1.272.417c.422.21.772.559,1.187.786a10.98628,10.98628,0,0,0,1.197.487.28161.28161,0,0,1,.101.068c.754.885,1.549,1.739,2.244,2.668a12.74368,12.74368,0,0,1,1.029,1.881c.225.44.424.894.616,1.349.033.078-.025.196-.045.295a1.1813,1.1813,0,0,1-.037.115c.036.003.085-.009.108.011.051.042.131.106.125.15-.064.425-.159.847-.209,1.274-.02.169.141.415.068.512-.52.689-.971,1.449-1.91,1.705-.35.096-.616.528-.962.599a2.78346,2.78346,0,0,1-1.247-.137c-.814-.229-1.613-.513-2.413-.789a2.12536,2.12536,0,0,1-.393-.246,11.11974,11.11974,0,0,0-1.424-.834c-.14-.06-.369.008-.54-.148-.118-.107-.296-.147-.424-.246a10.82141,10.82141,0,0,0-1.021-.821c-.549-.329-1.136-.596-1.716-.869a8.53254,8.53254,0,0,0-1.639-.691,3.656,3.656,0,0,0-1.339.096,1.98,1.98,0,0,0-.984.294,2.42963,2.42963,0,0,0-.831,1.202c-.236,1.437.349,2.107,1.742,2.782a22.14011,22.14011,0,0,1,3.402,2.13,15.24778,15.24778,0,0,1,2.276,2.102,10.44352,10.44352,0,0,1,2.123,3.645c.338.987.751,1.948,1.091,2.934a6.63884,6.63884,0,0,1,.27,1.31c.084.653.16,1.311.181,1.968.027.869-.017,1.739-.003,2.608a8.82,8.82,0,0,0,.129,1.836c.06.263.453.467.723.657.257.181.557.297.826.46.503.305.847-.061,1.246-.257.67-.33.78-.989.987-1.59a12.35214,12.35214,0,0,0,.605-1.976,13.78044,13.78044,0,0,0,.101-2.274c-.005-.732-.054-1.464-.117-2.193-.039-.447-.166-.887-.206-1.334-.051-.568-.071-1.14-.074-1.71-.002-.446.033-.892.071-1.337.011-.125.135-.245.133-.366-.005-.338.589-.496.27-.92-.008-.01.044-.076.078-.104.313-.262.613-.544.949-.773a5.65337,5.65337,0,0,1,.655-.248c.407-.204.8-.436,1.201-.65a.43254.43254,0,0,1,.159-.013,8.97937,8.97937,0,0,1,1.355-.088,3.88844,3.88844,0,0,1,.911.329,6.73468,6.73468,0,0,1,1.08.383c.192.108.514.102.546.497.02.248.287.479.451.711.022.031.093.026.142.038-.241.474.328.472.427.732.185.486.295,1.002.483,1.487.123.318.369.588.484.907.092.252.028.559.103.82.126.433.308.85.467,1.273.007.019.022.038.022.056.006.655.019,1.309.011,1.964-.008.72-.01,1.443-.063,2.161-.089,1.186-.158,2.379-.342,3.552a15.86,15.86,0,0,1-1.007,4.056c-.38.857-.625,1.774-.948,2.658-.04.111-.229.164-.28.275-.179.397-.328.808-.489,1.214l-.576,1.193c-.898.71-1.125,1.829-1.685,2.746a9.32867,9.32867,0,0,1-.64.719,2.2158,2.2158,0,0,0-.16.446.83426.83426,0,0,1-.183.204c-.376.378-.746.761-1.13,1.131-.433.416-.881.817-1.317,1.23-.252.239-.484.499-.741.732-.352.321-.709.637-1.081.934-.88.702-1.751,1.416-2.665,2.073a10.68527,10.68527,0,0,1-1.243.574,13.2605,13.2605,0,0,0-1.292.792,10.60019,10.60019,0,0,1-1.077.817c-.353.181-.683.523-1.174.362-.111-.037-.283.156-.439.196-.092.025-.247-.099-.307-.058-.827.56-1.839.319-2.718.641-.307.113-.609.237-.916.348-.044.016-.106-.025-.158-.021a.82927.82927,0,0,0-.181.046.66459.66459,0,0,1-.195.064.196.196,0,0,1-.13-.101.50307.50307,0,0,1-.023-.177.92827.92827,0,0,1-.243.07,1.819,1.819,0,0,1-.395-.05,2.0311,2.0311,0,0,0-.45-.12c-.786.03-1.078-.735-1.661-1.007a1.92046,1.92046,0,0,1-.903-1.04,2.90636,2.90636,0,0,1-.3-.998c-.021-.289.2-.599.169-.884a3.53963,3.53963,0,0,1,.328-1.889,12.56368,12.56368,0,0,1,.767-1.503,5.19906,5.19906,0,0,1,.72-.691c.076-.078.083-.22.128-.329a.2291.2291,0,0,1,.083-.111c.717-.403,1.432-.81,2.158-1.198a4.48333,4.48333,0,0,1,.535-.156c.142-.055.268-.15.406-.218.379-.188.763-.366,1.14-.557a15.1175,15.1175,0,0,0,1.553-.823,9.45141,9.45141,0,0,0,1.476-1.198,17.10182,17.10182,0,0,0,1.491-1.764c.274-.364.544-.759.219-1.281-.234-.376-.319-.846-.562-1.213-.126-.191-.451-.251-.688-.366-.035-.017-.08-.01-.117-.024-.944-.355-1.692.224-2.503.516-.279.1-.583.137-.85.26-.208.096-.364.302-.566.419-.229.133-.593.11-.524.542.004.02-.264.056-.377.129-.323.206-.614.466-.95.645a5.23258,5.23258,0,0,1-.79.231c-.243.081-.47.207-.714.283-.52.161-1.044.315-1.572.448a11.1784,11.1784,0,0,1-1.857.403,7.906,7.906,0,0,1-1.542-.193c-.153-.019-.311.001-.466-.008-.489-.027-.977-.061-1.465-.087-.117-.007-.25.046-.35.007-.663-.255-1.334-.497-1.975-.801-.927-.441-1.835-.924-2.744-1.404-.52-.274-1.035-.56-1.531-.874a9.88583,9.88583,0,0,1-.78-.632c-.04-.031-.119-.016-.18-.018-.542-.024-1.084-.042-1.626-.073a.41682.41682,0,0,1-.225-.102c-.237-.199-.34-.129-.545.109a2.06481,2.06481,0,0,0-.633,1.252,8.10788,8.10788,0,0,0,.297,1.636c.011.056.077.1.093.157a4.45874,4.45874,0,0,0,1.829,2.244c.924.684,1.932,1.256,2.917,1.854a3.82788,3.82788,0,0,0,.974.429c.503.135,1.027.186,1.534.308.158.038.28.204.432.286,1.072.579,1.586,1.718,2.481,2.481a1.70887,1.70887,0,0,1,.336.922,9.75665,9.75665,0,0,1,.23,1.711,5.44618,5.44618,0,0,1-.267,1.114c-.057.274-.061.559-.112.834-.014.078-.108.198-.171.202-.384.023-.301.343-.423.555a3.48047,3.48047,0,0,1-.838.922c-.148.121-.444.04-.639.128a3.54628,3.54628,0,0,1-1.146.231c-.126-.003-.255.128-.382.198-.042.024-.104.078-.123.066-.481-.302-.962-.098-1.443-.012a.10563.10563,0,0,1-.053-.004c-.554-.213-1.101-.446-1.663-.634-.426-.142-.879-.203-1.306-.344a2.75486,2.75486,0,0,1-.526-.351c-.297-.184-.592-.371-.901-.531-.46-.236-.929-.455-1.399-.669a6.22748,6.22748,0,0,1-.857-.358c-.507-.336-.959-.757-1.472-1.082-.546-.345-1.149-.599-1.7-.938-.166-.102-.235-.357-.359-.535-.024-.034-.106-.023-.148-.051a2.75107,2.75107,0,0,1-.508-.371c-.372-.406-.716-.838-1.077-1.255-.374-.433-.751-.863-1.136-1.287-.086-.095-.231-.139-.308-.238-.401-.517-.781-1.05-1.182-1.567-.358-.461-.743-.901-1.097-1.366-.151-.198-.238-.445-.381-.651-.189-.273-.429-.513-.6-.795-.152-.251-.224-.55-.359-.813-.175-.339-.398-.654-.561-.998-.146-.306-.221-.645-.356-.956-.369-.854-.766-1.696-1.122-2.555-.094-.227-.014-.675-.131-.721-.505-.197-.311-.711-.551-1.004-.363-.443-.222-1-.348-1.495-.06-.237-.139-.469-.197-.706a4.72094,4.72094,0,0,1-.099-.528c-.15-1.19-.336-2.377-.43-3.571a24.4275,24.4275,0,0,1,.005-2.524c.015-.606.049-1.213.112-1.815.037-.358.158-.707.217-1.063a21.79582,21.79582,0,0,1,.362-2.222,14.651,14.651,0,0,1,.833-2.078,5.78631,5.78631,0,0,1,.814-1.518,2.63767,2.63767,0,0,1,1.257-.656,4.65327,4.65327,0,0,1,3.125.42,3.18648,3.18648,0,0,1,1.851,1.945,10.09789,10.09789,0,0,1,.582,3.903c-.037.505.014,1.015.006,1.522-.011.631-.089,1.264-.052,1.891.053.893.169,1.784.289,2.671a9.938,9.938,0,0,0,.291,1.318,2.02436,2.02436,0,0,0,1.589,1.145c.395-.015.88.081,1.165-.11a1.92692,1.92692,0,0,0,1.096-1.622c-.026-.565-.276-1.125-.262-1.683a20.88207,20.88207,0,0,1,.3-2.417c.083-.575.185-1.147.287-1.719a.47945.47945,0,0,1,.076-.181"/><path class="cls-4" d="M72.05449,94.15927a9.825,9.825,0,1,0-9.825,9.825,9.82525,9.82525,0,0,0,9.825-9.825"/><path d="M63.27709,84.44168c0-.202.034-.317-.007-.392-.09-.166-.347-.394-.31-.453.326-.509-.436-.212-.357-.507-.289.15-.678.228-.846.464a14.04218,14.04218,0,0,0-.975,1.749c-.095.184-.089.421-.19.599-.122.216-.271.488-.475.571-.4.162-.887.134-1.264.329-.368.192-.643.557-1.131.377-.045-.016-.168.052-.166.058.112.444-.586.2-.57.734.01.361-.549.735-.848,1.107-.216.269-.422.544-.632.816a6.6627,6.6627,0,0,0-.776,1.04,7.12133,7.12133,0,0,0-.404,1.321c-.11.412-.386.833.024,1.237-.019.009-.054.018-.054.027a5.33914,5.33914,0,0,0-.028,1.254c.123.602.374,1.176.552,1.768.04.133-.04.308.013.429a16.52773,16.52773,0,0,0,.737,1.507c.307.537.659,1.05,1.006,1.564a1.2096,1.2096,0,0,0,.378.385c.299.164.637.259.934.426.251.141.452.37.702.512a10.722,10.722,0,0,0,1.2.585,7.21274,7.21274,0,0,0,.735.169c.207.06.54.11.582.242.158.485.118,1.035.503,1.447.014.015-.016.072-.023.11-.131.686.542.785.858,1.142a2.773,2.773,0,0,0,.326-.245c.15-.125.351-.229.429-.392.152-.319.225-.675.348-1.009.177-.483.344-.973.567-1.434.085-.177.369-.434.465-.397a1.13442,1.13442,0,0,0,1.138-.267,16.83825,16.83825,0,0,0,2.006-1.291,7.63627,7.63627,0,0,0,1.385-1.865,6.38335,6.38335,0,0,0,.514-1.574,6.58821,6.58821,0,0,0,.213-1.259c.04-.709.041-1.422.025-2.132a2.93852,2.93852,0,0,0-.151-1.196c-.432-.876-.969-1.699-1.453-2.55-.1-.176-.101-.427-.231-.563a5.23092,5.23092,0,0,0-.841-.683c-.544-.374-1.092-.743-1.66-1.077a5.39772,5.39772,0,0,0-.996-.42c-.33-.112-.628-.219-.723-.615-.083-.346-.212-.68-.322-1.02-.078-.241-.159-.481-.207-.628m-18.541,29.328c-.115.094-.339.376-.346-.164-.315.029-.128-.641-.586-.421-.021.01-.085-.022-.099-.05-.285-.585-.893-.907-1.2-1.486-.097-.182-.396-.256-.597-.387-.028-.018-.027-.081-.039-.123a1.71056,1.71056,0,0,0-.071-.25.5967.5967,0,0,0-.121-.155,1.71633,1.71633,0,0,0-.163-.156c-.071-.059-.17-.097-.216-.17-.144-.226-.25-.476-.406-.691-.094-.13-.303-.185-.375-.32-.144-.268-.207-.58-.349-.85-.061-.118-.28-.153-.346-.271-.199-.352-.343-.736-.537-1.092-.184-.334-.415-.643-.607-.974-.207-.353-.388-.721-.591-1.078-.06-.105-.191-.18-.224-.289-.106-.342-.162-.699-.272-1.04-.09-.279-.24-.538-.342-.815-.081-.218-.223-.473-.172-.667.119-.448-.214-.705-.313-1.053a9.19032,9.19032,0,0,1-.097-1.113c-.046-.303-.166-.593-.242-.893a7.42191,7.42191,0,0,1-.176-.803q-.1095-.78-.183-1.564c-.066-.7-.113-1.401-.176-2.101-.01-.112-.08-.22-.082-.33-.004-.234.108-.519.012-.692-.22-.394.169-.592.204-.88-.093.016-.18.032-.267.048.016-.076.033-.151.046-.227.033-.198.051-.399.099-.593a5.079,5.079,0,0,0,.067-1.868,2.70006,2.70006,0,0,1,.15-.833c.148-.695.275-1.396.459-2.082a7.0454,7.0454,0,0,1,.513-1.366,2.31977,2.31977,0,0,1,1.699-1.099,1.85125,1.85125,0,0,1,1.853.52,2.23431,2.23431,0,0,1,.539.944,11.80293,11.80293,0,0,1,.179,1.342,7.00768,7.00768,0,0,0,.215.777c.006.02.027.039.026.058-.045.781-.106,1.562-.131,2.344-.006.207.142.416.146.625.013.609-.039,1.221-.012,1.829.027.612.128,1.221.177,1.833.019.24-.055.49-.015.724a4.40094,4.40094,0,0,0,.32,1.267c.271.53.193,1.309.985,1.514.082.022.136.176.19.275.028.052.006.14.043.177a5.82223,5.82223,0,0,0,.728.687,2.611,2.611,0,0,0,.884.437,3.59247,3.59247,0,0,0,.883-.048,5.292,5.292,0,0,0,1.284-.057c.299-.092.527-.428.777-.665a4.63173,4.63173,0,0,0,.785-.806,2.75971,2.75971,0,0,0,.242-.906c.063-.304.11-.612.15-.92.042-.326.054-.657.105-.982.053-.344.147-.681.201-1.024a2.11322,2.11322,0,0,0-.016-.469c-.002-.02-.054-.042-.052-.057.092-.55.181-1.1.285-1.648.076-.403.183-.801.255-1.206a2.73067,2.73067,0,0,0,.138-1.167c-.18-.578.245-.893.377-1.327a7.71283,7.71283,0,0,0,.331-.926c.144-.88.859-1.425,1.227-2.174a4.90915,4.90915,0,0,1,.857-1.1,9.749,9.749,0,0,1,1.078-1.014c.315-.251.694-.42,1.027-.652a8.22342,8.22342,0,0,1,.746-.602c.698-.375,1.416-.716,2.137-1.045a12.41581,12.41581,0,0,0,1.363-.555,3.63422,3.63422,0,0,0,.947-.909,12.37811,12.37811,0,0,0,.833-1.368c.036-.064-.012-.173-.017-.262-.007-.114-.006-.229-.016-.344a.71866.71866,0,0,0-.041-.188c-.012-.033-.077-.073-.072-.082.315-.504-.112-.922-.186-1.373a2.79623,2.79623,0,0,0-.513-1.212c-.176-.23-.571-.297-.874-.423-.396-.165-.798-.317-1.198-.472a10.03262,10.03262,0,0,0-.977-.357c-.086-.023-.209.15-.328.177a11.00471,11.00471,0,0,0-2.012.456c-.913.404-1.749.982-2.623,1.477-.46.262-.956.468-1.389.767-.569.392-1.093.851-1.636,1.281-.054.043-.114.117-.168.115-.561-.022-.873.425-1.299.658a2.24705,2.24705,0,0,1-.783.198c-.324.041-.761.177-.96.024-.511-.39-1.507-.153-1.565-1.185-.006-.117-.275-.362-.332-.588a6.202,6.202,0,0,1-.182-1.028,1.48018,1.48018,0,0,1,.068-.778,5.98479,5.98479,0,0,1,1.569-2.27c.834-.605,1.579-1.332,2.413-1.936a16.235,16.235,0,0,1,1.487-.744c.393-.227.729-.554,1.119-.788a6.16215,6.16215,0,0,1,.814-.302c.117-.049.2-.184.317-.223a2.28371,2.28371,0,0,1,.53-.087c.063-.006.185.059.188.052.278-.653.98-.29,1.405-.591.313-.22.633-.12.992-.088.363.031.746-.341,1.143-.462.387-.119.807-.124,1.204-.217.396-.093.78-.232,1.169-.354.043-.013.078-.058.12-.065.357-.061.715-.114,1.072-.174.361-.062.72-.143,1.084-.185a6.93249,6.93249,0,0,1,1.148-.042c.554.253,1.058-.353,1.515-.14.589.274,1.149.037,1.71.126.237.038.46.178.696.198.162.014.337-.146.503-.141.33.01.734-.13.861.398.109.453.513.299.826.321.275.019.549.052.823.086a10.7485,10.7485,0,0,1,1.307.178c.597.149,1.18.361,1.767.552.614.2,1.23.396,1.837.614.391.141.767.322,1.151.481.434.18.869.358,1.306.53.272.108.715.134.79.317.182.44.618.258.859.496a24.77705,24.77705,0,0,1,1.81,1.767,20.10578,20.10578,0,0,1,1.761,2.58,3.33207,3.33207,0,0,1,.226,1.254,1.591,1.591,0,0,1-.015.808,2.04733,2.04733,0,0,1-.755.99,4.78409,4.78409,0,0,1-1.87.396,2.45567,2.45567,0,0,1-1.179-.514c-.705-.452-1.381-.952-2.061-1.444-.628-.454-1.237-.934-1.871-1.379a4.02183,4.02183,0,0,0-.658-.278c-.193-.087-.376-.194-.567-.286-.148-.072-.302-.132-.452-.201-.204-.092-.404-.192-.609-.28-.517-.221-1.12-.723-1.538-.6-.992.293-1.928-.073-2.88.034-.802.091-2.148,1.141-2.016,2.193.026.204-.275.437-.385.675a2.49462,2.49462,0,0,0-.273.823c-.019.271.221.599.135.818a1.52268,1.52268,0,0,0,.371,1.507,4.63192,4.63192,0,0,0,1.202.936,6.05657,6.05657,0,0,0,.627.349c.392.212.785.42,1.176.634.673.37,1.36.717,2.01,1.123a11.034,11.034,0,0,1,1.591,1.16,15.07878,15.07878,0,0,1,1.121,1.311c.259.296.555.559.806.861a2.88833,2.88833,0,0,1,.289.545c.171.332.367.654.508.998.352.855.732,1.704,1.002,2.586a14.24692,14.24692,0,0,1,.542,2.531c.136,1.198.153,2.409.233,3.614a12.65271,12.65271,0,0,0,.276,2.933,2.28316,2.28316,0,0,0,1.545,1.578c.44.131.898.126,1.314.291.533.21.898-.049,1.3-.341.432-.312.943-.518,1.364-.843a6.81813,6.81813,0,0,0,.983-1.018,3.95627,3.95627,0,0,0,.389-.655,1.40973,1.40973,0,0,0,.124-.264,5.78721,5.78721,0,0,0,.246-.843,6.792,6.792,0,0,0-.01-.712c.018-.369.07-.736.09-1.105.053-1.021.107-2.043.142-3.065.017-.503.006-1.007-.014-1.51-.029-.697-.09-1.393-.11-2.091a3.45761,3.45761,0,0,1,.114-.656c.043-.251.063-.508.125-.754a1.06857,1.06857,0,0,1,.214-.43,5.3773,5.3773,0,0,1,.952-1.013,1.31183,1.31183,0,0,1,1.496.026,5.25555,5.25555,0,0,0,.474.254c.009.004.043-.06.073-.079.085-.051.207-.157.258-.132a3.7932,3.7932,0,0,1,1.9,2.945c.124.602.3,1.194.446,1.791.031.126.029.26.055.388.095.469.233.933.282,1.407a14.4972,14.4972,0,0,1,.033,1.561,17.63114,17.63114,0,0,1-.048,2.045c-.122.99-.391,1.963-.492,2.954-.081.792-.632,1.312-.909,1.98-.104.247.022.581-.01.869-.026.242-.148.471-.194.712-.022.115.068.251.048.366a3.27192,3.27192,0,0,1-.203.745,6.03046,6.03046,0,0,1-.724,1.447c-.385.467-.27,1.085-.648,1.54-.341.412-.574.911-.877,1.356-.104.151-.308.233-.414.384-.67.949-1.288,1.937-2.002,2.849a6.88746,6.88746,0,0,1-1.224.968c-.106.084-.169.234-.284.291a4.8006,4.8006,0,0,1-.523.154c-.043.015-.058.109-.085.167-.072.15-.141.426-.217.428-.364.009-.403.315-.559.514a8.61077,8.61077,0,0,1-.719.895c-.304.295-.76.81-.982.734-.57-.192-.425.334-.644.452a6.43995,6.43995,0,0,0-.592.391c-.305.211-.598.442-.914.635-.381.232-.788.422-1.17.653-.142.086-.233.253-.367.357-.124.096-.295.135-.412.237a7.59112,7.59112,0,0,1-2.378,1.353,3.71568,3.71568,0,0,1-1.562.281,10.84841,10.84841,0,0,0-2.433.427,1.96233,1.96233,0,0,1-1.837-1.117c-.08-.248-.228-.474-.302-.723a1.7596,1.7596,0,0,1-.011-.493,3.28571,3.28571,0,0,0-.003-.643,1.39011,1.39011,0,0,1,.515-1.425,2.03211,2.03211,0,0,0,.309-.384c.024-.034.006-.097.007-.147.001-.053-.019-.119.005-.156.267-.408.497-.841,1.092-.87.188-.009.369-.207.55-.323.442-.286.873-.591,1.327-.855.323-.187.676-.324,1.018-.479.318-.145.652-.259.953-.431a10.82716,10.82716,0,0,0,1.091-.721c.559-.416,1.103-.852,1.65-1.284a8.24322,8.24322,0,0,0,2.142-2.52,2.8172,2.8172,0,0,0,.356-1.914,3.46391,3.46391,0,0,0-.868-1.848,2.77106,2.77106,0,0,0-2.148-1.124,16.321,16.321,0,0,0-2.53.39c-.442.089-.59.412-.904.559-.494.233-1.018.403-1.525.609-.058.023-.09.104-.141.149a.92609.92609,0,0,1-.2.143c-.151.074-.283-.098-.514.154-.34.37-.999.448-1.521.653a.28855.28855,0,0,0-.127.088,1.29773,1.29773,0,0,1-1.108.473,5.09724,5.09724,0,0,0-1.103.397,3.89588,3.89588,0,0,1-.92.247,16.56551,16.56551,0,0,1-2.017.054,12.8654,12.8654,0,0,1-1.588-.237,1.1313,1.1313,0,0,1-.886-.532c-.112-.181-.591-.118-.894-.202a4.45322,4.45322,0,0,1-1.035-.368c-.687-.394-1.349-.833-2.009-1.273-.505-.335-.982-.712-1.488-1.044a1.743,1.743,0,0,0-.564-.18,4.70383,4.70383,0,0,1-.991-.219,3.66731,3.66731,0,0,0-2.39.143,3.05584,3.05584,0,0,1-.922.371,1.83924,1.83924,0,0,0-1.002,1.431c.015.66-.06,1.321-.069,1.982-.001.128.134.253.182.389.086.243.136.501.236.738a1.5591,1.5591,0,0,0,.286.369c.259.294.542.568.779.877.349.456.631.967,1.012,1.391.197.22.559.283.819.458.135.09.185.3.315.403.313.249.652.465.977.699.337.242.654.514,1.009.725a4.06644,4.06644,0,0,0,.774.278c.135.045.27.089.407.126a5.37666,5.37666,0,0,1,1.44.412,10.8899,10.8899,0,0,1,1.956,1.565,11.847,11.847,0,0,1,1.174,1.654c.019.026.056.053.055.078a4.0605,4.0605,0,0,1-.091,1.122,6.04071,6.04071,0,0,1-.64.979c-.073.12-.052.293-.107.428-.059.144-.126.332-.245.394a8.26723,8.26723,0,0,1-1.385.602c-.183.055-.431-.137-.656-.183-.184-.037-.381-.01-.568-.037-.212-.032-.419-.093-.628-.142-.009-.002-.015-.018-.024-.02-.582-.155-1.164-.305-1.745-.464a3.19207,3.19207,0,0,1-.349-.147c-.696-.289-1.398-.564-2.083-.875-.2-.091-.335-.316-.529-.429-.519-.303-1.067-.559-1.579-.874-.277-.17-.492-.436-.753-.634-.128-.097-.312-.117-.443-.21-.302-.214-.589-.45-.879-.68-.141-.112-.279-.227-.413-.347a4.44006,4.44006,0,0,1-.573-.538c-.248-.317-.456-.666-.696-1.025"/><path d="M61.868,101.24677c-.029.038-.059.077-.089.115.108.263.205.532.329.788.042.086.155.134.227.208a1.28106,1.28106,0,0,1,.121.174,1.97248,1.97248,0,0,0,.221-.275c.038-.071.009-.177.045-.251.148-.303.303-.604.469-.899.218-.388.42-.799.932-.874.394-.058.792-.095,1.18-.178.09-.019.126-.227.224-.285a12.092,12.092,0,0,0,1.267-.725c.241-.187.54-.337.589-.795.04-.375.479-.702.723-1.063a1.50691,1.50691,0,0,0,.229-.501c.104-.462.198-.929.259-1.398.073-.563.132-1.131.151-1.698a12.3156,12.3156,0,0,0-.073-1.256.43267.43267,0,0,0-.035-.152,6.09828,6.09828,0,0,0-1.961-2.818,8.27344,8.27344,0,0,0-1.387-.82,4.45339,4.45339,0,0,0-.578-.279,3.32733,3.32733,0,0,0-.842-.259c-.19-.018-.448.543-.563-.086a.56416.56416,0,0,0-.083.009c-.062.01-.124.021-.186.032.014-.088.032-.175.039-.264a.54094.54094,0,0,0-.005-.205q-.36-1.0995-.728-2.196c-.022-.067-.051-.131-.076-.196a1.05849,1.05849,0,0,0-.131.2c-.091.23-.159.469-.257.695-.111.257-.344.501-.352.756-.018.562-.175.931-.773,1.063a2.54992,2.54992,0,0,0-.66.365c-.168.098-.329.207-.5.299a.26131.26131,0,0,1-.187.009,1.39176,1.39176,0,0,0-1.432.604c-.055.108-.217.171-.341.232-.138.067-.348.066-.421.169a2.03679,2.03679,0,0,0-.313.696c-.158.67-.621,1.2-.819,1.863-.071.239-.288.452-.298.779-.015.484-.181.966-.181,1.448a4.036,4.036,0,0,0,.253,1.086,15.76253,15.76253,0,0,0,.565,1.769,6.12975,6.12975,0,0,0,.746,1.177c.32.436.666.853,1.027,1.255.056.061.281-.057.38-.004a3.32741,3.32741,0,0,1,.843.565,2.8171,2.8171,0,0,0,1.577.632,3.71009,3.71009,0,0,1,.875.489m1.409-16.805c.048.147.129.387.207.628.11.339.239.674.322,1.02.095.396.393.503.723.615a5.36933,5.36933,0,0,1,.996.42c.568.334,1.116.703,1.66,1.077a5.18793,5.18793,0,0,1,.841.683c.13.136.131.387.231.563.484.851,1.021,1.674,1.454,2.55a2.95577,2.95577,0,0,1,.15,1.196c.016.71.015,1.423-.025,2.132a6.51033,6.51033,0,0,1-.213,1.259,6.36205,6.36205,0,0,1-.514,1.573,7.62277,7.62277,0,0,1-1.385,1.866,16.75166,16.75166,0,0,1-2.006,1.29,1.13432,1.13432,0,0,1-1.138.268c-.096-.037-.38.22-.465.396-.223.462-.39.952-.567,1.435-.123.334-.196.69-.348,1.009-.078.162-.279.267-.429.392a2.773,2.773,0,0,1-.326.245c-.316-.357-.989-.457-.858-1.143.007-.037.037-.094.023-.109-.385-.412-.345-.962-.502-1.447-.043-.132-.376-.182-.583-.242a7.21274,7.21274,0,0,1-.735-.169,10.722,10.722,0,0,1-1.2-.585c-.25-.142-.451-.371-.702-.512-.297-.167-.635-.262-.933-.426a1.20228,1.20228,0,0,1-.379-.385c-.346-.514-.699-1.027-1.006-1.565a16.53234,16.53234,0,0,1-.737-1.507c-.053-.12.027-.296-.012-.428-.179-.592-.43-1.166-.553-1.768a5.3934,5.3934,0,0,1,.028-1.254c0-.01.035-.018.054-.027-.41-.404-.134-.825-.024-1.237a7.0982,7.0982,0,0,1,.404-1.321,6.66223,6.66223,0,0,1,.776-1.04c.21-.273.417-.548.632-.816.299-.372.858-.746.848-1.107-.016-.534.682-.29.57-.734-.002-.006.122-.074.166-.058.488.18.763-.185,1.131-.377.377-.195.864-.167,1.264-.33.204-.083.353-.354.475-.57.101-.178.095-.416.19-.599a14.04361,14.04361,0,0,1,.975-1.749c.168-.236.557-.315.846-.465-.079.296.683-.001.357.508-.037.059.22.287.31.453.041.075.007.19.007.392"/><path d="M60.04249,94.71327c-.044.036-.088.073-.132.109.308.327.561.765.938.955.503.252,1.047.647,1.691.253.308-.189.674-.282.991-.459a1.90865,1.90865,0,0,0,.52-.458c.064-.078.011-.244.037-.364.061-.288.269-.625.18-.846-.168-.415.095-.94-.393-1.306-.1-.075-.153-.439-.443-.514-.284-.075-.563-.181-.851-.227-.523-.085-1.069-.346-1.548.128-.066.066-.114.159-.191.204a2.159,2.159,0,0,0-.879,1.662c.032.287.054.575.08.863m5.151,3.401c-.6.204-1.01.341-1.419.483a2.63257,2.63257,0,0,1-1.858.198.77126.77126,0,0,0-.438-.027c-.779.206-1.271-.313-1.814-.699a6.10965,6.10965,0,0,1-.938-.729c-.153-.161-.154-.457-.252-.681a1.95926,1.95926,0,0,0-.308-.505c-.119-.135-.381-.201-.42-.341a5.19182,5.19182,0,0,1-.272-1.506,6.39071,6.39071,0,0,1,.336-1.897c.117-.334.524-.566.801-.844.008-.008.027-.014.026-.017-.135-.557.426-.545.658-.801a.91712.91712,0,0,1,.216-.127,4.775,4.775,0,0,1,1.076-.637c.462-.13.749-.561,1.181-.633a3.53922,3.53922,0,0,1,1.313.085,5.10984,5.10984,0,0,1,1.283.477c.733.393,1.537.719,1.819,1.639.087.286.341.519.433.804.212.656.353,1.335.555,1.994.292.949-.278,1.625-.738,2.313a11.25053,11.25053,0,0,1-1.037,1.121,1.45224,1.45224,0,0,0-.203.33"/><path class="cls-4" d="M60.04259,94.713c-.026-.288-.048-.576-.081-.863a2.1612,2.1612,0,0,1,.88-1.661c.077-.046.125-.139.191-.205.478-.473,1.025-.212,1.548-.128.288.046.567.153.851.227.29.076.343.439.443.514.488.366.225.892.393,1.307.089.22-.119.558-.18.845-.026.121.027.286-.037.364a1.87589,1.87589,0,0,1-.52.458c-.317.177-.683.27-.992.459-.643.395-1.187-.001-1.69-.253-.377-.189-.63-.627-.938-.955.044-.036.088-.073.132-.109"/><path d="M94.45,120.52937l.101-.071a.622.622,0,0,0,.064.164c.381.496.762.991,1.151,1.482a4.84263,4.84263,0,0,0,1.237,1.094,2.01159,2.01159,0,0,0,.471.223,1.10106,1.10106,0,0,0,1.108-1.829,4.75532,4.75532,0,0,0-.372-.302,4.62815,4.62815,0,0,1-.591-.513c-.378-.442-.743-.897-1.086-1.367-1.08-1.481-2.144-2.974-3.221-4.457a4.80272,4.80272,0,0,0-2.231-1.618,1.46075,1.46075,0,0,0-1.19.029,1.07717,1.07717,0,0,0-.651.963,1.032,1.032,0,0,0,.532.986,2.13,2.13,0,0,0,.567.213,1.77616,1.77616,0,0,1,.994.599c.414.52.783,1.076,1.211,1.672-.143-.012-.212-.014-.279-.024a3.47183,3.47183,0,0,0-3.772,2.145,2.59276,2.59276,0,0,0,.958,3.42c.085.056.171.11.255.169a2.48041,2.48041,0,0,0,2.412.261,8.82484,8.82484,0,0,0,1.297-.622,1.83235,1.83235,0,0,0,.605-.549,2.56758,2.56758,0,0,0,.46-1.737c-.013-.11-.02-.221-.03-.331m-8.758,3.191a2.85073,2.85073,0,0,0-.346.272,10.695,10.695,0,0,1-2.197,1.714c-.584.382-1.177.753-1.781,1.102a7.4272,7.4272,0,0,1-1.364.682,10.04362,10.04362,0,0,1-1.518.261c.032.235-.165.339-.394.428-1.084.422-2.162.863-3.253,1.269a.801.801,0,0,0-.619.672,2.05917,2.05917,0,0,1-2.259,1.628,1.25271,1.25271,0,0,1-.945-.56,1.34764,1.34764,0,0,1-.239-.509,9.40768,9.40768,0,0,1-.18-1.73,1.80971,1.80971,0,0,1,2.585-1.514,1.031,1.031,0,0,0,.909.051c1.12-.452,2.244-.895,3.367-1.339a10.011,10.011,0,0,1,1.669-.589,3.346,3.346,0,0,0,1.025-.47c.941-.58,1.897-1.146,2.787-1.797a17.28267,17.28267,0,0,0,1.621-1.517c.176-.168.133-.366.082-.57a8.66312,8.66312,0,0,1-.284-2.334,8.816,8.816,0,0,1,4.183-7.534,8.43507,8.43507,0,0,1,4.537-1.375c.102-.002.204-.011.306-.005a.51255.51255,0,0,0,.543-.348c.165-.388.346-.77.515-1.157.63-1.439,1.263-2.878,1.884-4.322.253-.587.51-1.176.705-1.784a14.19168,14.19168,0,0,0,.403-1.697,34.44051,34.44051,0,0,0,.618-7.034,35.47423,35.47423,0,0,0-1.827-10.719c-.06-.179-.13-.355-.193-.534a.49625.49625,0,0,0-.36-.343,3.02449,3.02449,0,0,1-.566-.226,1.67019,1.67019,0,0,1-.769-2.263c.081-.171.162-.342.247-.511a1.5661,1.5661,0,0,1,1.929-.762c.271.1.549.182.815.291a1.24076,1.24076,0,0,1,.668.717,1.838,1.838,0,0,1,.014,1.487,1.02373,1.02373,0,0,0-.018.834,34.9301,34.9301,0,0,1,1.296,4.53,37.56278,37.56278,0,0,1-.208,16.881.52343.52343,0,0,1-.226.397c-.093.056-.129.217-.177.336-.441,1.109-.865,2.224-1.324,3.325-.352.846-.749,1.674-1.125,2.51-.06.133-.121.266-.171.402-.11.301-.091.345.189.47.079.035.164.06.244.093a8.753,8.753,0,0,1,5.741,7.639,8.86984,8.86984,0,0,1-7.657,9.625,8.73183,8.73183,0,0,1-8.498-3.577c-.115-.147-.229-.296-.384-.496"/><path class="cls-4" d="M91.51009,122.07537a1.17751,1.17751,0,0,0,1.221-1.291,1.21379,1.21379,0,0,0-1.183-1.299,1.39393,1.39393,0,0,0-1.347,1.382,1.18945,1.18945,0,0,0,1.309,1.208m2.94-1.546c.01.11.017.221.03.331a2.56752,2.56752,0,0,1-.46,1.737,1.83235,1.83235,0,0,1-.605.549,8.82436,8.82436,0,0,1-1.297.622,2.48041,2.48041,0,0,1-2.412-.261c-.084-.059-.17-.113-.255-.169a2.59276,2.59276,0,0,1-.958-3.42,3.47183,3.47183,0,0,1,3.772-2.145c.067.01.136.012.279.024-.428-.596-.797-1.152-1.211-1.672a1.77616,1.77616,0,0,0-.994-.599,2.13,2.13,0,0,1-.567-.213,1.032,1.032,0,0,1-.532-.986,1.07605,1.07605,0,0,1,.651-.963,1.46066,1.46066,0,0,1,1.19-.029,4.80272,4.80272,0,0,1,2.231,1.618c1.077,1.483,2.141,2.976,3.221,4.457.343.47.708.925,1.086,1.367a4.68807,4.68807,0,0,0,.59.513,4.77167,4.77167,0,0,1,.373.302,1.10106,1.10106,0,0,1-1.108,1.829,2.03782,2.03782,0,0,1-.472-.223,4.855,4.855,0,0,1-1.236-1.094c-.389-.491-.77-.986-1.151-1.482a.62237.62237,0,0,1-.064-.164l-.101.071"/><path class="cls-4" d="M31.68359,117.356a2.80608,2.80608,0,0,1-.039-1.39c.017-.089.146-.169.241-.226.148-.089.322-.139.466-.235a1.02179,1.02179,0,0,0,.42-1.113.85413.85413,0,0,0-.758-.741,11.4303,11.4303,0,0,0-1.893.155c-.274.046-.538.183-.833.217a1.0008,1.0008,0,0,0-.903.921.977.977,0,0,0,.646,1.071.61866.61866,0,0,1,.47.714q-.0195,1.7685,0,3.537a.68634.68634,0,0,1-.468.771.95317.95317,0,0,0-.492,1.185.99839.99839,0,0,0,.947.766c.624-.021,1.247-.08,1.871-.115a1.02394,1.02394,0,0,0,.689-1.627c-.097-.127-.218-.235-.317-.36a.48119.48119,0,0,1,.021-.671,7.89917,7.89917,0,0,1,.759-.656.32176.32176,0,0,1,.303-.022,5.48186,5.48186,0,0,1,.828,1.002.55359.55359,0,0,1-.039.092.9451.9451,0,0,1-.115.129,1.096,1.096,0,0,0-.342,1.3,1.01455,1.01455,0,0,0,1.029.657c.871.052,1.74.135,2.609.2a1.08009,1.08009,0,0,0,1.12-.73,1.03982,1.03982,0,0,0-.537-1.254,3.35282,3.35282,0,0,1-.499-.332c-.2-.167-.369-.371-.569-.537a10.74233,10.74233,0,0,1-1.705-1.745c-.249-.326-.24-.375.087-.63.08-.063.164-.121.248-.179q.873-.6135,1.747-1.225a1.08813,1.08813,0,0,0,.412-1.236,1.04106,1.04106,0,0,0-1.035-.717,1.6696,1.6696,0,0,0-1.032.418c-.975.761-1.943,1.531-2.914,2.296-.121.095-.248.182-.423.31m8.442.812a6.67349,6.67349,0,0,1-5.355,6.6,6.682,6.682,0,0,1-7.995-6.502,6.51447,6.51447,0,0,1,3.349-5.806,9.84235,9.84235,0,0,1,1.098-.533,3.45474,3.45474,0,0,1,1.581-.245c.639.028,1.278.041,1.917.067a2.27068,2.27068,0,0,1,.473.062,6.649,6.649,0,0,1,4.889,5.796c.018.218.033.435.043.561"/><path d="M91.5097,122.07587a1.19,1.19,0,0,1-1.309-1.208,1.39342,1.39342,0,0,1,1.348-1.382,1.21214,1.21214,0,0,1,1.182,1.298,1.17832,1.17832,0,0,1-1.221,1.292"/><path d="M31.68339,117.35637c.175-.128.302-.215.423-.31.971-.765,1.939-1.535,2.914-2.296a1.67,1.67,0,0,1,1.033-.418,1.04109,1.04109,0,0,1,1.035.716,1.09148,1.09148,0,0,1-.413,1.237q-.873.6135-1.747,1.225c-.083.058-.168.116-.248.178-.327.255-.336.304-.087.63a10.662,10.662,0,0,0,1.705,1.745c.201.166.37.37.569.537a3.168,3.168,0,0,0,.5.332,1.0405,1.0405,0,0,1,.536,1.255,1.07963,1.07963,0,0,1-1.119.73c-.87-.065-1.739-.148-2.609-.2a1.01581,1.01581,0,0,1-1.03-.657,1.096,1.096,0,0,1,.342-1.3,1.09907,1.09907,0,0,0,.116-.129.88161.88161,0,0,0,.038-.092,5.55658,5.55658,0,0,0-.827-1.003.324.324,0,0,0-.304.023,8.1576,8.1576,0,0,0-.759.655.48246.48246,0,0,0-.021.672c.099.125.22.233.317.36a1.02278,1.02278,0,0,1-.689,1.626c-.624.036-1.247.095-1.871.116a.99949.99949,0,0,1-.947-.766.95321.95321,0,0,1,.492-1.185.68594.68594,0,0,0,.468-.771q-.0195-1.76851,0-3.537a.61731.61731,0,0,0-.47-.714.977.977,0,0,1-.646-1.071,1.00271,1.00271,0,0,1,.904-.922c.294-.033.558-.17.832-.217a11.43346,11.43346,0,0,1,1.894-.155.85317.85317,0,0,1,.757.742,1.02084,1.02084,0,0,1-.42,1.113c-.143.096-.317.145-.466.235-.094.057-.224.137-.241.225a2.80979,2.80979,0,0,0,.039,1.391"/><path d="M40.12559,118.16767c-.01-.126-.025-.343-.043-.561a6.649,6.649,0,0,0-4.889-5.796,2.33955,2.33955,0,0,0-.473-.062c-.639-.026-1.278-.039-1.917-.066a3.441,3.441,0,0,0-1.581.244,10.10937,10.10937,0,0,0-1.098.533,6.516,6.516,0,0,0-3.349,5.807,6.68063,6.68063,0,0,0,7.995,6.501,6.67269,6.67269,0,0,0,5.355-6.6m1.197,4.052c1.122.738,2.083,1.639,3.253,2.25.643.336,1.261.724,1.868,1.123a3.53533,3.53533,0,0,0,1.895.697,1.31434,1.31434,0,0,1,.453.147,37.652,37.652,0,0,0,4.776,1.677,1.18034,1.18034,0,0,0,1.099-.15,1.51615,1.51615,0,0,1,2.205.483,2.89462,2.89462,0,0,1,.423,1.967,1.28623,1.28623,0,0,1-.427.839,2.06719,2.06719,0,0,1-2.074.454,1.15264,1.15264,0,0,1-.786-.82.93655.93655,0,0,0-.783-.701,35.871,35.871,0,0,1-4.676-1.561,7.77192,7.77192,0,0,0-1.21-.354,3.885,3.885,0,0,1-1.422-.533c-1.005-.701-2.09-1.266-3.133-1.902-.57-.347-1.091-.774-1.636-1.161a4.404,4.404,0,0,0-.617-.406c-.428-.204-.507-.184-.842.155a8.76814,8.76814,0,0,1-14.887-4.747,8.51814,8.51814,0,0,1,3.812-8.779c.059-.042.119-.083.182-.12.185-.111.2-.247.113-.442-.504-1.13-.994-2.266-1.493-3.398a26.01068,26.01068,0,0,1-1.258-3.857,2.66208,2.66208,0,0,1-.028-1.082,2.63061,2.63061,0,0,0-.01-.863,37.26578,37.26578,0,0,1-.616-8.912,36.64618,36.64618,0,0,1,2.128-10.668,1.73168,1.73168,0,0,0,.079-1.062,3.02347,3.02347,0,0,1-.06-.867,1.57171,1.57171,0,0,1,1.451-1.536,2.22752,2.22752,0,0,1,1.493.38,1.45107,1.45107,0,0,1,.577.799,2.45364,2.45364,0,0,1-.091,1.709,1.32947,1.32947,0,0,1-.93.796.8022.8022,0,0,0-.578.583,35.73837,35.73837,0,0,0-1.692,7.036,34.11646,34.11646,0,0,0-.319,4.615,35.39939,35.39939,0,0,0,.784,7.456c.055.253.164.509-.145.698-.055.034-.061.188-.05.281a2.7966,2.7966,0,0,0,.105.513,27.74793,27.74793,0,0,0,1.113,3.263c.494,1.086.953,2.189,1.429,3.283.214.493.442.561.925.347a5.60836,5.60836,0,0,1,.829-.242c.083-.022.175-.01.26-.027a6.91824,6.91824,0,0,1,4.748.905,8.56281,8.56281,0,0,1,4.624,6.888,8.33306,8.33306,0,0,1-.641,4.275c-.078.184-.144.373-.22.571"/></g></g></svg>