<svg xmlns="http://www.w3.org/2000/svg" viewBox="0 0 131.40728 171.49594"><defs><style>.cls-1{fill:#ffffff;}.cls-2,.cls-3{fill:none;stroke:#ffffff;stroke-miterlimit:10;}.cls-2{stroke-width:2px;}</style></defs><g id="Layer_2" data-name="Layer 2"><g id="Layer_1-2" data-name="Layer 1"><path class="cls-1" d="M27.07939,10.87272a1.84638,1.84638,0,0,0-1.204-2.242,1.80336,1.80336,0,0,0-2.572.754,5.111,5.111,0,0,0-.193,4.074,1.50282,1.50282,0,0,0,1.387,1.161c.812.058,1.531-.012,1.946-.912a4.88745,4.88745,0,0,0,.636-2.835m-.725-3.268c-.756-1.078-1.414-2.016-2.131-3.038-.41.499-.763.925-1.112,1.355-.088.109-.138.276-.249.334-.336.175-.694.31-1.043.46a4.19455,4.19455,0,0,1-.233-1.026,10.18475,10.18475,0,0,1,.223-1.908c.058-.262.336-.667.53-.676a18.92215,18.92215,0,0,1,2.906.068,2.06,2.06,0,0,1,.94.596c2.066,1.788,3.244,4.208,4.588,6.507.767,1.313,1.517,2.638,2.362,4.11a9.61236,9.61236,0,0,1,.569-1.036,2.69488,2.69488,0,0,1,.543-.449c.104.231.305.467.294.693-.028.598-.161,1.19-.229,1.788-.061.541-.424.625-.858.597-.318-.02-.632-.09-.949-.111a2.24722,2.24722,0,0,1-2.003-1.111c-.402-.714-.855-1.4-1.289-2.095-.071-.113-.162-.212-.301-.39-.209.381-.374.707-.563,1.019a5.03538,5.03538,0,0,1-4.731,2.827c-.6-.028-1.2-.088-1.797-.158a1.44981,1.44981,0,0,1-1.287-1.263,7.60314,7.60314,0,0,1,1.377-6.333c.834-1.085,2.586-1.949,4.008-.901a2.17411,2.17411,0,0,0,.435.141"/><path class="cls-1" d="M37.34369,8.85172c2.261-1.586,3.413-2.663,3.208-4.111a4.3975,4.3975,0,0,0-3.208,4.111m.057.995c0,1.266-.032,2.606.014,3.943a1.76922,1.76922,0,0,0,1.575,1.312,2.93294,2.93294,0,0,0,2.452-2.149,2.59867,2.59867,0,0,0-1.974-2.757c-.697-.139-1.402-.238-2.067-.349m3.822-1.805a4.57954,4.57954,0,0,1,2.564,4.554,2.95107,2.95107,0,0,1-1.822,2.813,9.44652,9.44652,0,0,1-4.224.698,3.51145,3.51145,0,0,1-1.817-.485,1.3397,1.3397,0,0,1-.751-1.212c.009-2.548,0-5.097-.003-7.645,0-.301.007-.603-.008-.903-.057-1.17-.282-1.436-1.386-1.811a2.51921,2.51921,0,0,1-.62-.467,2.25862,2.25862,0,0,1,.654-.421,18.42,18.42,0,0,1,2.349-.381c.916-.072,1.213.242,1.251,1.174.018.435.004.871.004,1.273.889-.565,1.756-1.124,2.631-1.67.68-.424,1.368-.109,2.036.042.146.033.284.33.331.528a3.07536,3.07536,0,0,1-.299,2.496c-.3.468-.592.942-.89,1.417"/><path class="cls-1" d="M111.61179,10.61652a5.458,5.458,0,0,0,1.251,3.306,2.14321,2.14321,0,0,0,2.237.827,2.47178,2.47178,0,0,1,.539-.017,2.04223,2.04223,0,0,0,1.936-1.258,4.31759,4.31759,0,0,0,.388-2.222,3.82,3.82,0,0,0-2.045-3.288,4.19945,4.19945,0,0,0-2.731-.404,1.34358,1.34358,0,0,0-.852.524,3.89132,3.89132,0,0,0-.723,2.532m4.522-4.272c-.852-.563-1.486-1.426-2.551-1.696a9.35771,9.35771,0,0,1-1.831-.548,1.44909,1.44909,0,0,1-.652-.914,16.26283,16.26283,0,0,1-.247-2.327,1.19639,1.19639,0,0,1,.194-.614c.198-.348.447-.307.647.003.195.302.328.65.546.933a4.769,4.769,0,0,0,.934.997q2.1975,1.572,4.449,3.067a5.65083,5.65083,0,0,1,2.298,3.349,13.17555,13.17555,0,0,1,.442,2.766,3.81457,3.81457,0,0,1-1.353,3.12,10.71759,10.71759,0,0,1-3.05,1.861,2.75927,2.75927,0,0,1-1.354.117,5.49475,5.49475,0,0,1-3.598-1.235,4.71534,4.71534,0,0,1-1.489-3.29,5.00947,5.00947,0,0,1,2.013-4.698,4.69013,4.69013,0,0,1,3.576-.785c.312.041.625.066.937.098.03-.068.059-.136.089-.204"/><path class="cls-1" d="M53.05239,5.621c.868-.6,1.618-1.169,2.42-1.651a5.03157,5.03157,0,0,1,1.453-.548,1.418,1.418,0,0,1,1.82,1.192,2.9322,2.9322,0,0,1-.53,2.511c-.563.688-1.177,1.333-1.802,2.034,1.095,2.307,2.881,5.413,3.91,6.269.252-.519.475-1.026.745-1.507.091-.162.302-.255.459-.38.106.176.311.357.302.526a16.49326,16.49326,0,0,1-.244,2.209.72684.72684,0,0,1-.573.413,2.878,2.878,0,0,1-1.476-.315,23.37979,23.37979,0,0,1-2.654-2.341c-.717-.725-1.299-1.584-2.001-2.327a5.96436,5.96436,0,0,0-1.208-.829c-.166-.105-.383-.132-.544-.242-.394-.266-.394-.589.04-.751a6.7778,6.7778,0,0,0,2.111-1.558,4.0954,4.0954,0,0,0,1.113-2.894c.041-.41-.189-.476-.522-.422a4.40755,4.40755,0,0,0-2.046,1.301c-1.121.936-1.049,2.244-1.072,3.484-.032,1.745.053,3.493.088,5.239.018.929-.083.994-.96.617-.148-.064-.293-.134-.443-.189-1.082-.403-1.08-.401-.902-1.578a21.53679,21.53679,0,0,0,.437-5.023c-.101-1.219-.144-2.444-.256-3.662-.017-.183-.256-.365-.425-.509-.161-.136-.386-.197-.545-.336-.306-.268-.273-.569.107-.692a18.25915,18.25915,0,0,1,2.374-.641c.644-.116.93.186.953.846a7.64815,7.64815,0,0,1-.059.839c-.022.277-.043.555-.07.915"/><path class="cls-1" d="M69.8809,4.29871c1.811-1.424,3.823-1.252,5.824-.998a3.36483,3.36483,0,0,1,2.478,2.482,12.22811,12.22811,0,0,1,.353,4.163,3.56378,3.56378,0,0,1-.896,2.297,16.27036,16.27036,0,0,0-1.087,1.382c.731.385,1.398.737,2.117,1.116a5.77526,5.77526,0,0,1,.476-.679.52373.52373,0,0,1,.408-.137c.08.013.178.208.184.325.024.441-1.015,1.77-1.441,1.733a8.86773,8.86773,0,0,1-2.32-.445c-.586-.221-1.052-.605-1.554.098-.064.089-.407.086-.524-.003a.58574.58574,0,0,1-.14-.51,1.812,1.812,0,0,1,.347-.552c.974-1.349,2.05-2.649,2.129-4.427.074-1.662.099-3.334-1.175-4.629a3.1223,3.1223,0,0,0-2.714-.927c-1.034.13-1.423.718-1.967,1.559a5.121,5.121,0,0,0-.449,2.804,35.10076,35.10076,0,0,0,.406,5.85,1.8111,1.8111,0,0,1,.012.596c-.129.614-.545.763-1.049.413a1.38285,1.38285,0,0,0-.539-.254c-.665-.099-.818-.498-.793-1.11.083-1.985.181-3.972.172-5.958a28.88048,28.88048,0,0,0-.333-3.767c-.024-.175-.521-.287-.801-.425-.177-.087-.359-.167-.539-.25.148-.158.267-.387.449-.461.443-.182.917-.285,1.375-.432.859-.276,1.579-.177,1.591,1.146"/><path class="cls-1" d="M99.708,10.64452a5.96285,5.96285,0,0,0-.728-3.167,4.18345,4.18345,0,0,0-1.088-1.253,5.883,5.883,0,0,0-2.754-1.161,2.16329,2.16329,0,0,0-2.049.543,4.12343,4.12343,0,0,0-1.027,2.247,7.8338,7.8338,0,0,0,.81,4.485,4.431,4.431,0,0,0,4.359,2.304,1.84245,1.84245,0,0,0,1.599-1.024,5.37865,5.37865,0,0,0,.878-2.974m2.234-1.133a6.82988,6.82988,0,0,1-2.546,5.439,4.64467,4.64467,0,0,1-1.06.513c-.108.048-.242.032-.352.076a7.91435,7.91435,0,0,1-4.903.003,3.40164,3.40164,0,0,1-1.861-1.233,6.701,6.701,0,0,1,3.613-10.749,5.90453,5.90453,0,0,1,6.956,4.773c.082.432.114.873.153,1.178"/><path class="cls-1" d="M83.13269,5.43331c-.787-.204-1.469-.355-2.134-.561-.558-.174-.697.142-.833.568a2.23827,2.23827,0,0,1-.364.534c-.124-.204-.333-.401-.353-.615a12.21634,12.21634,0,0,1-.001-1.566c.013-.375.164-.592.605-.536q2.32349.29851,4.653.556c.995.11,1.994.247,2.992.258a5.15576,5.15576,0,0,0,1.37-.409c.156-.045.414-.115.472-.045a.70728.70728,0,0,1,.135.535,8.09878,8.09878,0,0,1-.377,1.265c-.064.167-.234.406-.371.416a19.62844,19.62844,0,0,1-3.164.121c-1.516-.138-2.185.035-2.85,1.397a5.26535,5.26535,0,0,0-.312,4.807c1.043,2.157,2.388,2.608,4.609,2.425a2.7575,2.7575,0,0,0,1.143-.598c.268-.182.519-.503.821-.182.307.328-.02.593-.248.806a4.88871,4.88871,0,0,1-2.566,1.192,6.50288,6.50288,0,0,1-4.337-.749,3.72415,3.72415,0,0,1-2.109-2.999,6.536,6.536,0,0,1,2.731-6.246c.137-.108.277-.213.488-.374"/><path class="cls-1" d="M7.54209,7.163c0,1.988.059,3.978-.025,5.963a2.24282,2.24282,0,0,0,1.127,2.005c.172.132.448.435.419.474-.167.232-.39.547-.63.58a4.58921,4.58921,0,0,1-2.815-.387,1.01789,1.01789,0,0,1-.557-1.049q.258-3.8145.48-7.631a22.096,22.096,0,0,0,.005-2.229,1.99957,1.99957,0,0,0-.284-.708,4.95152,4.95152,0,0,1-.434-.847.58551.58551,0,0,1,.248-.516,12.3823,12.3823,0,0,1,1.541-.257c.444-.059.772.112.817.583.089.936.149,1.875.204,2.814.023.4.004.803.004,1.205Z"/><path class="cls-1" d="M15.88169,10.48221q0-2.32049,0-4.642a1.74783,1.74783,0,0,0-.709-1.678,1.35063,1.35063,0,0,1-.451-.746.576.576,0,0,1,.295-.476,13.31815,13.31815,0,0,1,1.735-.485c.73-.151,1.225.265,1.235,1.082.013,1.144-.067,2.289-.059,3.433.016,2.388.071,4.776.091,7.164a1.19526,1.19526,0,0,0,.952,1.21c.439.144.691.386.581.885-.11.502-.526.478-.863.431a16.24531,16.24531,0,0,1-2.266-.449c-.41-.118-.557-.503-.55-.966.025-1.588.009-3.175.009-4.763"/><path class="cls-1" d="M65.08879,5.41851q.114,3.72.228,7.44c.026.781.08,1.561.1,2.342.013.482-.548.739-1.088.512-.073-.03-.128-.104-.201-.13-1.141-.4-1.327-1.194-1.257-2.345.129-2.135.039-4.283.031-6.426-.001-.319-.078-.639-.07-.958.02-.778-.172-1.365-1.075-1.489-.147-.021-.261-.282-.39-.431a2.06494,2.06494,0,0,1,.474-.292c.535-.151,1.077-.284,1.622-.391a3.96665,3.96665,0,0,1,1.005-.09.77925.77925,0,0,1,.795.87c0,.461-.174.927-.174,1.388h0"/><path class="cls-1" d="M123.80229,7.68c.181,2.217.368,4.434.539,6.652.044.567.054,1.139.053,1.708-.002.352-.201.395-.487.244-.565-.299-1.123-.613-1.704-.876a.62848.62848,0,0,1-.396-.715c.082-1.358.22-2.718.203-4.076a22.1559,22.1559,0,0,0-.369-2.92c-.091-.615-.223-1.223-.321-1.837-.058-.364-.177-.529-.602-.407-.218.062-.494-.08-.744-.13.162-.216.279-.528.495-.63a14.7198,14.7198,0,0,1,1.853-.704c1.082-.345,1.553.004,1.588,1.148.013.422.006.845.007,1.267s0,.844,0,1.266c-.038.003-.077.007-.115.01"/><path class="cls-1" d="M45.95419,9.88352c-.134-1.559-.219-3.124-.435-4.671-.057-.403-.532-.743-.802-1.122-.094-.131-.237-.329-.196-.429a.58561.58561,0,0,1,.421-.253c.731-.092,1.465-.156,2.199-.221.675-.06.816.049.809.731-.012,1.103-.097,2.206-.086,3.309q.042,3.963.151,7.926c.017.64-.202.875-.813.681a6.63,6.63,0,0,1-1.39-.525.93436.93436,0,0,1-.31-.753c.094-1.158.264-2.309.382-3.466.04-.397.006-.802.006-1.203l.064-.004"/><path class="cls-1" d="M4.175,4.294c-.129,1.986-.276,3.866-.366,5.748-.072,1.484-.071,2.971-.113,4.455a1.70076,1.70076,0,0,1-.12.694c-.323.645-.411.657-1.059.316-1.28-.674-1.22-.668-1.071-2.133.217-2.133.372-4.274.481-6.415a12.22516,12.22516,0,0,0-.224-2.333,1.3222,1.3222,0,0,0-.367-.583c-.382-.438-.295-.858.274-.986a18.592,18.592,0,0,1,1.841-.268c.519-.063.738.205.725.707-.007.301-.001.603-.001.798"/><path class="cls-1" d="M105.88479,10.705c-.704-.01-1.358-.175-1.546-1.038-.026-.123-.047-.309.02-.379a11.408,11.408,0,0,1,.994-.922.55782.55782,0,0,1,.892.08,3.33813,3.33813,0,0,1,.611,1.22c.16,1.009-.034,1.18-.971,1.039"/><path class="cls-1" d="M12.171,11.21271a1.56436,1.56436,0,0,1-1.454-1.221,1.65474,1.65474,0,0,1,.962-1.523.77749.77749,0,0,1,.698.244,9.84065,9.84065,0,0,1,.649,1.793c.096.359-.379.715-.855.707"/><path class="cls-1" d="M13.39649,61.275a5.4748,5.4748,0,0,0,.465-.448,12.93436,12.93436,0,0,1,2.981-2.612c1.286-.838,2.499-1.801,3.834-2.549a29.31853,29.31853,0,0,1,9.436-3.601c1.874-.316,3.743-.687,5.629-.893a10.21377,10.21377,0,0,1,5.874.837c.574.29,1.199.478,1.778.759,4.179,2.024,6.234,5.399,6.5,10.009a19.261,19.261,0,0,1-1.802,8.463,98.102,98.102,0,0,1-5.703,12.285c-.905,1.568-1.816,3.134-2.737,4.723.37-.07.772-.117,1.157-.225a6.2693,6.2693,0,0,1,4.831.72c.887.481,1.804.912,2.668,1.43.622.372,1.153.896,1.774,1.272a4.54159,4.54159,0,0,0,2.332.942.63928.63928,0,0,0,.427-.336c.911-1.846,1.787-3.709,2.71-5.55a6.49994,6.49994,0,0,1,1.027-1.559,1.14389,1.14389,0,0,1,2.044.473,3.4263,3.4263,0,0,1,.278,1.163c-.036,2.512-.056,5.026-.207,7.531a10.85906,10.85906,0,0,1-.704,2.724,2.71272,2.71272,0,0,1-2.032,1.792c-1.249.321-2.488.721-3.757.917a12.32371,12.32371,0,0,1-2.86-.005,21.86627,21.86627,0,0,1-3.099-.458c-1.2-.275-2.37-.679-3.555-1.02-1.39-.4-2.764-.882-4.179-1.155a10.85962,10.85962,0,0,0-3.173-.132,14.4962,14.4962,0,0,0-4.462,1.04,33.25039,33.25039,0,0,1-3.375,1.272,2.88409,2.88409,0,0,1-3.429-1.326,1.91257,1.91257,0,0,1,.66-2.603,13.9681,13.9681,0,0,0,1.949-1.29c1.054-.909,2.046-1.893,3.044-2.866.512-.5.945-1.081,1.473-1.561a16.34654,16.34654,0,0,0,3.668-4.99,26.14653,26.14653,0,0,0,1.442-2.905c1.123-3.287,2.703-6.463,2.944-9.985a48.89293,48.89293,0,0,0-.213-5.64,6.62467,6.62467,0,0,1-.113-.88,3.57937,3.57937,0,0,0-.585-2.083,23.868,23.868,0,0,0-1.298-2.211,6.5216,6.5216,0,0,0-5.263-2.975,20.00031,20.00031,0,0,0-15.696,6.597,13.35017,13.35017,0,0,0-3.62,7.733,47.431,47.431,0,0,0-.349,4.898,117.95553,117.95553,0,0,0,.398,13.133c.108,1.246.261,2.493.488,3.721a6.29726,6.29726,0,0,0,.669,1.392,13.95211,13.95211,0,0,1,.799,1.804,1.17425,1.17425,0,0,1-.786,1.516,7.94446,7.94446,0,0,1-1.888.194c-.795.029-1.592-.007-2.388.006-1.393.021-2.786.097-4.178.076a2.87661,2.87661,0,0,1-2.381-1.581,1.04472,1.04472,0,0,1-.1-.552c.06-4.364.137-8.728.19-13.092.035-2.899-.047-5.801.073-8.696a61.401,61.401,0,0,1,3.725-19.133,30.8899,30.8899,0,0,1,4.284-7.813c.822-1.093,1.55-2.258,2.3-3.404a9.74537,9.74537,0,0,0,.532-1.114c-.828.116-1.523.205-2.214.313a18.146,18.146,0,0,0-6.606,2.656,11.23626,11.23626,0,0,1-1.784.844,1.30414,1.30414,0,0,1-1.63-.486,3.23221,3.23221,0,0,1-.612-1.617c-.018-1.6.132-3.201.176-4.803.034-1.22.014-2.443.003-3.665a2.17666,2.17666,0,0,1,1.375-2.206,2.83981,2.83981,0,0,1,2.817.303,12.43823,12.43823,0,0,0,2.937,1.31,17.31329,17.31329,0,0,0,5.175.647c4.537.036,9.076.075,13.612-.005,3.591-.064,7.179-.309,10.769-.463,2.144-.092,4.289-.153,6.433-.244,2.805-.119,5.61-.277,8.416-.366a12.3305,12.3305,0,0,1,2.436.215,1.62039,1.62039,0,0,1,1.35,1.645,5.41818,5.41818,0,0,1-.231,1.849,10.34014,10.34014,0,0,0-.685,4.303,13.40646,13.40646,0,0,1-.135,2.294,1.55493,1.55493,0,0,1-1.823,1.463,13.661,13.661,0,0,1-2.667-.854c-.646-.252-1.225-.688-1.879-.911a33.81891,33.81891,0,0,0-3.606-1.043c-2.414-.535-4.829-1.116-7.274-1.446-2.204-.297-4.449-.304-6.677-.401-1.585-.069-3.174-.055-4.76-.113a10.74284,10.74284,0,0,0-7.272,2.73,11.00661,11.00661,0,0,0-2.788,3.592,36.065,36.065,0,0,0-3.324,10.753c-.086.482-.101.976-.149,1.464.056.021.111.042.166.063"/><path class="cls-2" d="M13.39649,61.275a5.4748,5.4748,0,0,0,.465-.448,12.93436,12.93436,0,0,1,2.981-2.612c1.286-.838,2.499-1.801,3.834-2.549a29.31853,29.31853,0,0,1,9.436-3.601c1.874-.316,3.743-.687,5.629-.893a10.21377,10.21377,0,0,1,5.874.837c.574.29,1.199.478,1.778.759,4.179,2.024,6.234,5.399,6.5,10.009a19.261,19.261,0,0,1-1.802,8.463,98.102,98.102,0,0,1-5.703,12.285c-.905,1.568-1.816,3.134-2.737,4.723.37-.07.772-.117,1.157-.225a6.2693,6.2693,0,0,1,4.831.72c.887.481,1.804.912,2.668,1.43.622.372,1.153.896,1.774,1.272a4.54159,4.54159,0,0,0,2.332.942.63928.63928,0,0,0,.427-.336c.911-1.846,1.787-3.709,2.71-5.55a6.49994,6.49994,0,0,1,1.027-1.559,1.14389,1.14389,0,0,1,2.044.473,3.4263,3.4263,0,0,1,.278,1.163c-.036,2.512-.056,5.026-.207,7.531a10.85906,10.85906,0,0,1-.704,2.724,2.71272,2.71272,0,0,1-2.032,1.792c-1.249.321-2.488.721-3.757.917a12.32371,12.32371,0,0,1-2.86-.005,21.86627,21.86627,0,0,1-3.099-.458c-1.2-.275-2.37-.679-3.555-1.02-1.39-.4-2.764-.882-4.179-1.155a10.85962,10.85962,0,0,0-3.173-.132,14.4962,14.4962,0,0,0-4.462,1.04,33.25039,33.25039,0,0,1-3.375,1.272,2.88409,2.88409,0,0,1-3.429-1.326,1.91257,1.91257,0,0,1,.66-2.603,13.9681,13.9681,0,0,0,1.949-1.29c1.054-.909,2.046-1.893,3.044-2.866.512-.5.945-1.081,1.473-1.561a16.34654,16.34654,0,0,0,3.668-4.99,26.14653,26.14653,0,0,0,1.442-2.905c1.123-3.287,2.703-6.463,2.944-9.985a48.89293,48.89293,0,0,0-.213-5.64,6.62467,6.62467,0,0,1-.113-.88,3.57937,3.57937,0,0,0-.585-2.083,23.868,23.868,0,0,0-1.298-2.211,6.5216,6.5216,0,0,0-5.263-2.975,20.00031,20.00031,0,0,0-15.696,6.597,13.35017,13.35017,0,0,0-3.62,7.733,47.431,47.431,0,0,0-.349,4.898,117.95553,117.95553,0,0,0,.398,13.133c.108,1.246.261,2.493.488,3.721a6.29726,6.29726,0,0,0,.669,1.392,13.95211,13.95211,0,0,1,.799,1.804,1.17425,1.17425,0,0,1-.786,1.516,7.94446,7.94446,0,0,1-1.888.194c-.795.029-1.592-.007-2.388.006-1.393.021-2.786.097-4.178.076a2.87661,2.87661,0,0,1-2.381-1.581,1.04472,1.04472,0,0,1-.1-.552c.06-4.364.137-8.728.19-13.092.035-2.899-.047-5.801.073-8.696a61.401,61.401,0,0,1,3.725-19.133,30.8899,30.8899,0,0,1,4.284-7.813c.822-1.093,1.55-2.258,2.3-3.404a9.74537,9.74537,0,0,0,.532-1.114c-.828.116-1.523.205-2.214.313a18.146,18.146,0,0,0-6.606,2.656,11.23626,11.23626,0,0,1-1.784.844,1.30414,1.30414,0,0,1-1.63-.486,3.23221,3.23221,0,0,1-.612-1.617c-.018-1.6.132-3.201.176-4.803.034-1.22.014-2.443.003-3.665a2.17666,2.17666,0,0,1,1.375-2.206,2.83981,2.83981,0,0,1,2.817.303,12.43823,12.43823,0,0,0,2.937,1.31,17.31329,17.31329,0,0,0,5.175.647c4.537.036,9.076.075,13.612-.005,3.591-.064,7.179-.309,10.769-.463,2.144-.092,4.289-.153,6.433-.244,2.805-.119,5.61-.277,8.416-.366a12.3305,12.3305,0,0,1,2.436.215,1.62039,1.62039,0,0,1,1.35,1.645,5.41818,5.41818,0,0,1-.231,1.849,10.34014,10.34014,0,0,0-.685,4.303,13.40646,13.40646,0,0,1-.135,2.294,1.55493,1.55493,0,0,1-1.823,1.463,13.661,13.661,0,0,1-2.667-.854c-.646-.252-1.225-.688-1.879-.911a33.81891,33.81891,0,0,0-3.606-1.043c-2.414-.535-4.829-1.116-7.274-1.446-2.204-.297-4.449-.304-6.677-.401-1.585-.069-3.174-.055-4.76-.113a10.74284,10.74284,0,0,0-7.272,2.73,11.00661,11.00661,0,0,0-2.788,3.592,36.065,36.065,0,0,0-3.324,10.753c-.086.482-.101.976-.149,1.464C13.28649,61.233,13.34149,61.254,13.39649,61.275Z"/><path class="cls-1" d="M97.52949,34.29581a47.14785,47.14785,0,0,1,10.104,1.028,23.67622,23.67622,0,0,1,7.471,2.929c.799.524,1.521,1.167,2.272,1.763.685.544,1.095.51,1.606-.192a9.745,9.745,0,0,0,.72-1.153,7.9231,7.9231,0,0,1,3.668-3.531,1.64275,1.64275,0,0,1,1.779.024,1.69651,1.69651,0,0,1,.797,1.843,7.23008,7.23008,0,0,1-.25.905,30.98041,30.98041,0,0,0-1.63,6.645,22.03516,22.03516,0,0,0-.051,2.93c.102,2.441-1.181,4.001-3.177,5.112a1.95076,1.95076,0,0,1-2.101-.089,30.30785,30.30785,0,0,1-2.37-1.938c-.611-.517-1.24-1.018-1.806-1.581a78.00066,78.00066,0,0,0-7.657-6.329,10.97132,10.97132,0,0,0-4.372-1.787c-.101-.024-.224-.005-.307-.055a7.00687,7.00687,0,0,0-3.715-.6c-2.877-.039-5.765-.119-8.631.08a14.446,14.446,0,0,0-8.627,3.767,12.52224,12.52224,0,0,0-3.122,4.83,24.4881,24.4881,0,0,0-1.548,6.659,29.61324,29.61324,0,0,0,.141,7.207,2.79861,2.79861,0,0,0,.749,1.639,3.56034,3.56034,0,0,0,1.742.556,25.27938,25.27938,0,0,0,3.005.303c2.65.092,5.301.182,7.951.181,2.546-.002,5.094-.089,7.639-.193,2.859-.118,5.714-.3,8.572-.449.627-.033,1.255-.057,1.883-.066a1.35007,1.35007,0,0,0,1.183-.617,11.16471,11.16471,0,0,1,3.279-3.042,1.6715,1.6715,0,0,1,1.782-.151,1.618,1.618,0,0,1,.841,1.624c-.038.888-.056,1.778-.115,2.665a18.043,18.043,0,0,0,.683,4.27c.132.771.291,1.542.351,2.32.057.741-.227.987-.931,1.24a2.46014,2.46014,0,0,1-2.912-.807c-.534-.618-.98-1.312-1.49-1.952a1.1136,1.1136,0,0,0-.507-.283c-2.401-.801-4.865-.296-7.3-.324q-6.2295-.069-12.461.015c-2.089.031-4.177.223-6.263.373-1.319.094-2.639.216-3.951.381a10.02491,10.02491,0,0,0-1.453.428c-.401.115-.516.331-.363.739.55,1.471,1.023,2.973,1.63,4.42a42.08458,42.08458,0,0,0,2.244,4.776,31.30207,31.30207,0,0,0,5.281,6.941,11.73157,11.73157,0,0,0,4.636,2.837,31.384,31.384,0,0,1,3.768,1.796,13.62968,13.62968,0,0,0,1.446.587,20.123,20.123,0,0,0,8.039,1.38,12.78042,12.78042,0,0,0,2.212-.546.23077.23077,0,0,0,.134-.079c.621-1.039,1.74-1.484,2.649-2.166a15.05241,15.05241,0,0,0,3.264-3.514,14.13738,14.13738,0,0,1,3.294-3.256,4.81,4.81,0,0,0,.554-.656c.23-.251.437-.598.727-.706a3.81665,3.81665,0,0,1,3.925.262,2.24682,2.24682,0,0,1,1.076,1.766c.022,2.907,1.14,5.635,1.353,8.516a5.04756,5.04756,0,0,0,.853,1.992,1.83086,1.83086,0,0,1,.198,1.831,1.65641,1.65641,0,0,1-1.527.843,3.0617,3.0617,0,0,1-2.505-.941c-.837-.812-1.761-1.533-2.62-2.323a2.14894,2.14894,0,0,0-2.047-.481,12.41569,12.41569,0,0,0-3.433,1.335,19.77075,19.77075,0,0,1-8.47,2.945,3.32643,3.32643,0,0,0-.723.117,22.35349,22.35349,0,0,1-6.864.406c-1.307-.029-2.616.011-3.923-.017a10.493,10.493,0,0,1-1.555-.195q-2.4735-.432-4.941-.894a4.98679,4.98679,0,0,1-1.052-.31,31.36832,31.36832,0,0,1-7.571-3.983c-1.07-.86-2.27-1.565-3.3-2.468a14.449,14.449,0,0,1-2.935-3.983c-1.017-1.826-1.954-3.699-2.89-5.57-.647-1.295-1.24-2.617-1.841-3.934a.8743.8743,0,0,1-.088-.603,1.61251,1.61251,0,0,0-.139-1.307,15.40369,15.40369,0,0,1-.862-5.139c-.062-1.116-.137-2.232-.145-3.348a37.87326,37.87326,0,0,1,2.691-14.587,30.79123,30.79123,0,0,1,24.66-18.868c.087-.011.174-.017.261-.022,1.08-.054,2.16-.108,3.428-.171"/><path class="cls-2" d="M97.52949,34.29581a47.14785,47.14785,0,0,1,10.104,1.028,23.67622,23.67622,0,0,1,7.471,2.929c.799.524,1.521,1.167,2.272,1.763.685.544,1.095.51,1.606-.192a9.745,9.745,0,0,0,.72-1.153,7.9231,7.9231,0,0,1,3.668-3.531,1.64275,1.64275,0,0,1,1.779.024,1.69651,1.69651,0,0,1,.797,1.843,7.23008,7.23008,0,0,1-.25.905,30.98041,30.98041,0,0,0-1.63,6.645,22.03516,22.03516,0,0,0-.051,2.93c.102,2.441-1.181,4.001-3.177,5.112a1.95076,1.95076,0,0,1-2.101-.089,30.30785,30.30785,0,0,1-2.37-1.938c-.611-.517-1.24-1.018-1.806-1.581a78.00066,78.00066,0,0,0-7.657-6.329,10.97132,10.97132,0,0,0-4.372-1.787c-.101-.024-.224-.005-.307-.055a7.00687,7.00687,0,0,0-3.715-.6c-2.877-.039-5.765-.119-8.631.08a14.446,14.446,0,0,0-8.627,3.767,12.52224,12.52224,0,0,0-3.122,4.83,24.4881,24.4881,0,0,0-1.548,6.659,29.61324,29.61324,0,0,0,.141,7.207,2.79861,2.79861,0,0,0,.749,1.639,3.56034,3.56034,0,0,0,1.742.556,25.27938,25.27938,0,0,0,3.005.303c2.65.092,5.301.182,7.951.181,2.546-.002,5.094-.089,7.639-.193,2.859-.118,5.714-.3,8.572-.449.627-.033,1.255-.057,1.883-.066a1.35007,1.35007,0,0,0,1.183-.617,11.16471,11.16471,0,0,1,3.279-3.042,1.6715,1.6715,0,0,1,1.782-.151,1.618,1.618,0,0,1,.841,1.624c-.038.888-.056,1.778-.115,2.665a18.043,18.043,0,0,0,.683,4.27c.132.771.291,1.542.351,2.32.057.741-.227.987-.931,1.24a2.46014,2.46014,0,0,1-2.912-.807c-.534-.618-.98-1.312-1.49-1.952a1.1136,1.1136,0,0,0-.507-.283c-2.401-.801-4.865-.296-7.3-.324q-6.2295-.069-12.461.015c-2.089.031-4.177.223-6.263.373-1.319.094-2.639.216-3.951.381a10.02491,10.02491,0,0,0-1.453.428c-.401.115-.516.331-.363.739.55,1.471,1.023,2.973,1.63,4.42a42.08458,42.08458,0,0,0,2.244,4.776,31.30207,31.30207,0,0,0,5.281,6.941,11.73157,11.73157,0,0,0,4.636,2.837,31.384,31.384,0,0,1,3.768,1.796,13.62968,13.62968,0,0,0,1.446.587,20.123,20.123,0,0,0,8.039,1.38,12.78042,12.78042,0,0,0,2.212-.546.23077.23077,0,0,0,.134-.079c.621-1.039,1.74-1.484,2.649-2.166a15.05241,15.05241,0,0,0,3.264-3.514,14.13738,14.13738,0,0,1,3.294-3.256,4.81,4.81,0,0,0,.554-.656c.23-.251.437-.598.727-.706a3.81665,3.81665,0,0,1,3.925.262,2.24682,2.24682,0,0,1,1.076,1.766c.022,2.907,1.14,5.635,1.353,8.516a5.04756,5.04756,0,0,0,.853,1.992,1.83086,1.83086,0,0,1,.198,1.831,1.65641,1.65641,0,0,1-1.527.843,3.0617,3.0617,0,0,1-2.505-.941c-.837-.812-1.761-1.533-2.62-2.323a2.14894,2.14894,0,0,0-2.047-.481,12.41569,12.41569,0,0,0-3.433,1.335,19.77075,19.77075,0,0,1-8.47,2.945,3.32643,3.32643,0,0,0-.723.117,22.35349,22.35349,0,0,1-6.864.406c-1.307-.029-2.616.011-3.923-.017a10.493,10.493,0,0,1-1.555-.195q-2.4735-.432-4.941-.894a4.98679,4.98679,0,0,1-1.052-.31,31.36832,31.36832,0,0,1-7.571-3.983c-1.07-.86-2.27-1.565-3.3-2.468a14.449,14.449,0,0,1-2.935-3.983c-1.017-1.826-1.954-3.699-2.89-5.57-.647-1.295-1.24-2.617-1.841-3.934a.8743.8743,0,0,1-.088-.603,1.61251,1.61251,0,0,0-.139-1.307,15.40369,15.40369,0,0,1-.862-5.139c-.062-1.116-.137-2.232-.145-3.348a37.87326,37.87326,0,0,1,2.691-14.587,30.79123,30.79123,0,0,1,24.66-18.868c.087-.011.174-.017.261-.022C95.18149,34.41282,96.26149,34.35881,97.52949,34.29581Z"/><path class="cls-1" d="M14.67439,134.57a1.41017,1.41017,0,0,0,.317-.106,75.09442,75.09442,0,0,0,6.334-4.591,50.22808,50.22808,0,0,1,4.119-3.041c.254-.185.501-.38.742-.581q3.756-3.1305,7.51-6.264c2.422-2.024,4.859-4.031,7.25-6.091a4.80707,4.80707,0,0,0,1.513-2.152,2.27622,2.27622,0,0,0-.82-2.602,2.27633,2.27633,0,0,1-.879-2.172,1.264,1.264,0,0,1,1.369-1.231,7.65223,7.65223,0,0,1,1.953.28,10.6444,10.6444,0,0,0,6.335.049,6.5242,6.5242,0,0,1,3.76.044,1.35762,1.35762,0,0,1,.907.794c.88,1.847.593,3.305-1.081,4.843a31.75312,31.75312,0,0,1-8.019,5.719,22.82684,22.82684,0,0,0-3.556,2.456c-2.259,1.638-4.523,3.271-6.753,4.95-.945.711-1.809,1.53-2.709,2.302q-2.085,1.788-4.17,3.58a3.80018,3.80018,0,0,0-.575.597c1.522-.261,2.548.558,3.665,1.367,2.384,1.727,3.591,4.238,4.735,6.784,1.216,2.705,2.172,5.532,3.468,8.195,2.22,4.561,4.195,9.258,7.032,13.5a2.32453,2.32453,0,0,0,1.26,1.063c-.094-.812.587-1.018.976-1.461.885-1.008,1.732-2.051,2.596-3.077q1.5465-1.839,3.098-3.674a1.03925,1.03925,0,0,1,.156-.139c.563-.428,1.147-.872,1.903-.588a1.97876,1.97876,0,0,1,1.272,1.782,10.34333,10.34333,0,0,1,.031,2.606,25.28451,25.28451,0,0,1-2.137,6.875,8.03257,8.03257,0,0,1-.647,1.074,1.24933,1.24933,0,0,1-.489.457c-1.506.61-3.007,1.24-4.544,1.763a11.36216,11.36216,0,0,1-2.409.442c-1.832.2-3.263-.76-4.728-1.666-3.129-1.935-4.985-5.019-7.147-7.825a31.42943,31.42943,0,0,1-1.851-2.729c-.294-.477-.433-1.047-.685-1.553a16.30823,16.30823,0,0,0-.893-1.591c-.829-1.29-1.669-2.574-2.533-3.841-.629-.922-1.322-1.801-1.952-2.723-1.062-1.555-2.153-3.095-3.128-4.704-1.055-1.741-2.781-2.484-4.506-3.227a1.36044,1.36044,0,0,0-1.188.256,25.21042,25.21042,0,0,0-4.752,6.142,2.31871,2.31871,0,0,0-.26,1.143c.139,3.557.305,7.113.472,10.669q.183,3.9225.394,7.843a3.74177,3.74177,0,0,0,.187.75c.019.067.062.127.079.193a1.96825,1.96825,0,0,1-.114,1.903c-.486.572-1.153.342-1.765.212a2.23538,2.23538,0,0,1-.692-.233c-1.319-.807-2.797-.53-4.192-.508a6.05959,6.05959,0,0,0-2.468.89,4.441,4.441,0,0,1-2.647.599,2.05943,2.05943,0,0,1-1.916-2.538c.304-1.389.811-2.733,1.249-4.091.89-2.754,1.877-5.481,2.655-8.266a23.57041,23.57041,0,0,0,.583-4.341,82.10877,82.10877,0,0,0,.362-8.942c-.1-4.381-.115-8.763-.232-13.143-.035-1.355-.32-2.702-.425-4.057-.167-2.14-.254-4.286-.423-6.426-.1-1.25-.304-2.492-.443-3.74a2.07792,2.07792,0,0,0-1.437-1.854,1.32313,1.32313,0,0,1-.925-1.413,1.20076,1.20076,0,0,0-.05-.307c-.184-.701.153-1.232.869-1.176a6.06387,6.06387,0,0,0,2.725-.618c.844-.332,1.658-.746,2.513-1.041q2.2455-.7755,4.528-1.443c.938-.277,1.196.199,1.837,1.311a3.68753,3.68753,0,0,1,.336,1.725c.026,1.691-.022,3.383-.038,5.075-.017,1.762.045,3.53-.06,5.287-.204,3.431-.53,6.854-.747,10.284-.116,1.828-.113,3.663-.159,5.496a3.58837,3.58837,0,0,0,.054.466"/><path class="cls-2" d="M14.67439,134.57a1.41017,1.41017,0,0,0,.317-.106,75.09442,75.09442,0,0,0,6.334-4.591,50.22808,50.22808,0,0,1,4.119-3.041c.254-.185.501-.38.742-.581q3.756-3.1305,7.51-6.264c2.422-2.024,4.859-4.031,7.25-6.091a4.80707,4.80707,0,0,0,1.513-2.152,2.27622,2.27622,0,0,0-.82-2.602,2.27633,2.27633,0,0,1-.879-2.172,1.264,1.264,0,0,1,1.369-1.231,7.65223,7.65223,0,0,1,1.953.28,10.6444,10.6444,0,0,0,6.335.049,6.5242,6.5242,0,0,1,3.76.044,1.35762,1.35762,0,0,1,.907.794c.88,1.847.593,3.305-1.081,4.843a31.75312,31.75312,0,0,1-8.019,5.719,22.82684,22.82684,0,0,0-3.556,2.456c-2.259,1.638-4.523,3.271-6.753,4.95-.945.711-1.809,1.53-2.709,2.302q-2.085,1.788-4.17,3.58a3.80018,3.80018,0,0,0-.575.597c1.522-.261,2.548.558,3.665,1.367,2.384,1.727,3.591,4.238,4.735,6.784,1.216,2.705,2.172,5.532,3.468,8.195,2.22,4.561,4.195,9.258,7.032,13.5a2.32453,2.32453,0,0,0,1.26,1.063c-.094-.812.587-1.018.976-1.461.885-1.008,1.732-2.051,2.596-3.077q1.5465-1.839,3.098-3.674a1.03925,1.03925,0,0,1,.156-.139c.563-.428,1.147-.872,1.903-.588a1.97876,1.97876,0,0,1,1.272,1.782,10.34333,10.34333,0,0,1,.031,2.606,25.28451,25.28451,0,0,1-2.137,6.875,8.03257,8.03257,0,0,1-.647,1.074,1.24933,1.24933,0,0,1-.489.457c-1.506.61-3.007,1.24-4.544,1.763a11.36216,11.36216,0,0,1-2.409.442c-1.832.2-3.263-.76-4.728-1.666-3.129-1.935-4.985-5.019-7.147-7.825a31.42943,31.42943,0,0,1-1.851-2.729c-.294-.477-.433-1.047-.685-1.553a16.30823,16.30823,0,0,0-.893-1.591c-.829-1.29-1.669-2.574-2.533-3.841-.629-.922-1.322-1.801-1.952-2.723-1.062-1.555-2.153-3.095-3.128-4.704-1.055-1.741-2.781-2.484-4.506-3.227a1.36044,1.36044,0,0,0-1.188.256,25.21042,25.21042,0,0,0-4.752,6.142,2.31871,2.31871,0,0,0-.26,1.143c.139,3.557.305,7.113.472,10.669q.183,3.9225.394,7.843a3.74177,3.74177,0,0,0,.187.75c.019.067.062.127.079.193a1.96825,1.96825,0,0,1-.114,1.903c-.486.572-1.153.342-1.765.212a2.23538,2.23538,0,0,1-.692-.233c-1.319-.807-2.797-.53-4.192-.508a6.05959,6.05959,0,0,0-2.468.89,4.441,4.441,0,0,1-2.647.599,2.05943,2.05943,0,0,1-1.916-2.538c.304-1.389.811-2.733,1.249-4.091.89-2.754,1.877-5.481,2.655-8.266a23.57041,23.57041,0,0,0,.583-4.341,82.10877,82.10877,0,0,0,.362-8.942c-.1-4.381-.115-8.763-.232-13.143-.035-1.355-.32-2.702-.425-4.057-.167-2.14-.254-4.286-.423-6.426-.1-1.25-.304-2.492-.443-3.74a2.07792,2.07792,0,0,0-1.437-1.854,1.32313,1.32313,0,0,1-.925-1.413,1.20076,1.20076,0,0,0-.05-.307c-.184-.701.153-1.232.869-1.176a6.06387,6.06387,0,0,0,2.725-.618c.844-.332,1.658-.746,2.513-1.041q2.2455-.7755,4.528-1.443c.938-.277,1.196.199,1.837,1.311a3.68753,3.68753,0,0,1,.336,1.725c.026,1.691-.022,3.383-.038,5.075-.017,1.762.045,3.53-.06,5.287-.204,3.431-.53,6.854-.747,10.284-.116,1.828-.113,3.663-.159,5.496A3.58837,3.58837,0,0,0,14.67439,134.57Z"/><path class="cls-1" d="M98.17248,149.45112c.044-.003.089-.006.133-.008-.159-1.981-.275-3.965-.494-5.939a12.49293,12.49293,0,0,0-.656-3.057,17.39816,17.39816,0,0,0-1.642-3.092,6.81161,6.81161,0,0,0-2.709-2.484,21.06633,21.06633,0,0,0-3.517-1.338,11.14961,11.14961,0,0,0-2.829-.401c-1.269-.026-2.541.119-3.812.165a8.75639,8.75639,0,0,0-1.795-.002c-2.342.604-4.71,1.204-6.294,3.275a7.72786,7.72786,0,0,0-1.072,1.524,26.87532,26.87532,0,0,0-.916,2.774,19.679,19.679,0,0,0-.133,11.73,20.545,20.545,0,0,0,7.93,11.12,6.71248,6.71248,0,0,0,1.67.851c1.383.478,2.779.927,4.192,1.303a5.2784,5.2784,0,0,0,2.26.257,9.09727,9.09727,0,0,0,2.853-1.114,13.379,13.379,0,0,0,6.089-8.35,24.71557,24.71557,0,0,0,.742-7.214m5.906,4.166a4.95491,4.95491,0,0,0-.206.717,11.83306,11.83306,0,0,1-1.176,4.477,31.57352,31.57352,0,0,1-3.277,5.274,38.63753,38.63753,0,0,1-4.357,3.949c-2.101.716-3.989,2.085-6.391,1.876-1.154-.1-2.332.126-3.499.128-1.149.001-2.301-.058-3.446-.153-1.667-.14-3.329-.334-4.992-.508a18.43862,18.43862,0,0,1-2.12-.247,12.31465,12.31465,0,0,1-2.842-.84,32.85445,32.85445,0,0,1-4.166-2.502,7.73714,7.73714,0,0,1-2.286-2.969c-.246-.49-.613-.918-.886-1.397-.28-.488-.523-.998-.763-1.508-.292-.618-.595-1.233-.839-1.871a18.67543,18.67543,0,0,1-.757-2.303,12.55454,12.55454,0,0,1-.283-2.154c-.047-.783-.033-1.572-.006-2.357.027-.766.064-1.536.164-2.295a20.35881,20.35881,0,0,1,2.629-7.12,24.61053,24.61053,0,0,1,6.233-7.267,16.34609,16.34609,0,0,1,5.419-3.209c1.665-.511,3.32-1.053,4.986-1.562a3.86334,3.86334,0,0,1,.983-.14c2.163-.076,4.326-.167,6.489-.192.865-.01,1.731.132,2.69.213-.462-.978-.903-1.881-1.317-2.796a31.28923,31.28923,0,0,0-3.068-5.287c-1.379-1.931-2.672-3.924-4.052-5.854a12.89041,12.89041,0,0,0-1.465-1.483c-.147-.147-.296-.293-.429-.453s-.227-.358-.373-.504a18.64475,18.64475,0,0,1-1.866-1.98,2.20757,2.20757,0,0,0-3.34.303,5.28516,5.28516,0,0,0-.302.49,18.70915,18.70915,0,0,1-2.984,4.211c-.868.977-1.601,2.074-2.463,3.057a11.5608,11.5608,0,0,1-1.842,1.68.97137.97137,0,0,1-1.524-.812,12.635,12.635,0,0,1,.927-4.998c.38-1.196.876-2.362,1.166-3.579a12.9537,12.9537,0,0,0,.159-2.547,3.21437,3.21437,0,0,1,.516-1.67,2.88677,2.88677,0,0,1,2.413-1.096,3.94379,3.94379,0,0,1,.889-.003,24.24871,24.24871,0,0,0,3.41-.169,17.07359,17.07359,0,0,1,5.516.37,2.37875,2.37875,0,0,0,.775-.067,3.72907,3.72907,0,0,1,1.121-.064,19.38415,19.38415,0,0,1,5.554,2.38,22.59358,22.59358,0,0,1,6.479,6.383c1.576,2.196,3.044,4.471,4.518,6.738a10.06924,10.06924,0,0,1,1.159,2.282c.926,2.816,2.712,5.178,3.998,7.801.453.924.868,1.87,1.37,2.767,1.054,1.888,2.192,3.729,3.228,5.625q4.1925,7.671,8.323,15.377a45.55443,45.55443,0,0,0,4.672,6.939c.266.332.496.218.663-.042a5.46417,5.46417,0,0,0,.411-.903c.572-1.403,1.072-2.84,1.73-4.202a28.71831,28.71831,0,0,1,1.786-2.888,1.30209,1.30209,0,0,1,.342-.318c.474-.348.947-.698,1.438-1.022a.49143.49143,0,0,1,.431-.052,4.30747,4.30747,0,0,1,.799.738,1.13285,1.13285,0,0,1,.214.617,19.19683,19.19683,0,0,1-.444,5.878c-.339,1.313-.74,2.609-1.087,3.92a1.80953,1.80953,0,0,0-.061.967,1.65414,1.65414,0,0,1-.083,1.257c-.144.337-.261.686-.387,1.03a4.00858,4.00858,0,0,1-3.946,2.812,7.99324,7.99324,0,0,1-3.688-.558,9.27248,9.27248,0,0,0-1.914-.503,1.16953,1.16953,0,0,0-.564.012,3.80475,3.80475,0,0,1-2.547-.307c-.371-.149-.729-.33-1.1-.478a2.716,2.716,0,0,1-1.838-1.98,1.454,1.454,0,0,0-1.023-1.095.99388.99388,0,0,1-.497-.461c-.459-.902-.866-1.831-1.323-2.734a20.30614,20.30614,0,0,0-1.738-2.835c-1.129-1.544-2.027-3.256-3.054-4.877a8.21567,8.21567,0,0,0-.989-1.057"/><path class="cls-2" d="M98.17248,149.45112c.044-.003.089-.006.133-.008-.159-1.981-.275-3.965-.494-5.939a12.49293,12.49293,0,0,0-.656-3.057,17.39816,17.39816,0,0,0-1.642-3.092,6.81161,6.81161,0,0,0-2.709-2.484,21.06633,21.06633,0,0,0-3.517-1.338,11.14961,11.14961,0,0,0-2.829-.401c-1.269-.026-2.541.119-3.812.165a8.75639,8.75639,0,0,0-1.795-.002c-2.342.604-4.71,1.204-6.294,3.275a7.72786,7.72786,0,0,0-1.072,1.524,26.87532,26.87532,0,0,0-.916,2.774,19.679,19.679,0,0,0-.133,11.73,20.545,20.545,0,0,0,7.93,11.12,6.71248,6.71248,0,0,0,1.67.851c1.383.478,2.779.927,4.192,1.303a5.2784,5.2784,0,0,0,2.26.257,9.09727,9.09727,0,0,0,2.853-1.114,13.379,13.379,0,0,0,6.089-8.35A24.71557,24.71557,0,0,0,98.17248,149.45112Zm5.906,4.166a4.95491,4.95491,0,0,0-.206.717,11.83306,11.83306,0,0,1-1.176,4.477,31.57352,31.57352,0,0,1-3.277,5.274,38.63753,38.63753,0,0,1-4.357,3.949c-2.101.716-3.989,2.085-6.391,1.876-1.154-.1-2.332.126-3.499.128-1.149.001-2.301-.058-3.446-.153-1.667-.14-3.329-.334-4.992-.508a18.43862,18.43862,0,0,1-2.12-.247,12.31465,12.31465,0,0,1-2.842-.84,32.85445,32.85445,0,0,1-4.166-2.502,7.73714,7.73714,0,0,1-2.286-2.969c-.246-.49-.613-.918-.886-1.397-.28-.488-.523-.998-.763-1.508-.292-.618-.595-1.233-.839-1.871a18.67543,18.67543,0,0,1-.757-2.303,12.55454,12.55454,0,0,1-.283-2.154c-.047-.783-.033-1.572-.006-2.357.027-.766.064-1.536.164-2.295a20.35881,20.35881,0,0,1,2.629-7.12,24.61053,24.61053,0,0,1,6.233-7.267,16.34609,16.34609,0,0,1,5.419-3.209c1.665-.511,3.32-1.053,4.986-1.562a3.86334,3.86334,0,0,1,.983-.14c2.163-.076,4.326-.167,6.489-.192.865-.01,1.731.132,2.69.213-.462-.978-.903-1.881-1.317-2.796a31.28923,31.28923,0,0,0-3.068-5.287c-1.379-1.931-2.672-3.924-4.052-5.854a12.89041,12.89041,0,0,0-1.465-1.483c-.147-.147-.296-.293-.429-.453s-.227-.358-.373-.504a18.64475,18.64475,0,0,1-1.866-1.98,2.20757,2.20757,0,0,0-3.34.303,5.28516,5.28516,0,0,0-.302.49,18.70915,18.70915,0,0,1-2.984,4.211c-.868.977-1.601,2.074-2.463,3.057a11.5608,11.5608,0,0,1-1.842,1.68.97137.97137,0,0,1-1.524-.812,12.635,12.635,0,0,1,.927-4.998c.38-1.196.876-2.362,1.166-3.579a12.9537,12.9537,0,0,0,.159-2.547,3.21437,3.21437,0,0,1,.516-1.67,2.88677,2.88677,0,0,1,2.413-1.096,3.94379,3.94379,0,0,1,.889-.003,24.24871,24.24871,0,0,0,3.41-.169,17.07359,17.07359,0,0,1,5.516.37,2.37875,2.37875,0,0,0,.775-.067,3.72907,3.72907,0,0,1,1.121-.064,19.38415,19.38415,0,0,1,5.554,2.38,22.59358,22.59358,0,0,1,6.479,6.383c1.576,2.196,3.044,4.471,4.518,6.738a10.06924,10.06924,0,0,1,1.159,2.282c.926,2.816,2.712,5.178,3.998,7.801.453.924.868,1.87,1.37,2.767,1.054,1.888,2.192,3.729,3.228,5.625q4.1925,7.671,8.323,15.377a45.55443,45.55443,0,0,0,4.672,6.939c.266.332.496.218.663-.042a5.46417,5.46417,0,0,0,.411-.903c.572-1.403,1.072-2.84,1.73-4.202a28.71831,28.71831,0,0,1,1.786-2.888,1.30209,1.30209,0,0,1,.342-.318c.474-.348.947-.698,1.438-1.022a.49143.49143,0,0,1,.431-.052,4.30747,4.30747,0,0,1,.799.738,1.13285,1.13285,0,0,1,.214.617,19.19683,19.19683,0,0,1-.444,5.878c-.339,1.313-.74,2.609-1.087,3.92a1.80953,1.80953,0,0,0-.061.967,1.65414,1.65414,0,0,1-.083,1.257c-.144.337-.261.686-.387,1.03a4.00858,4.00858,0,0,1-3.946,2.812,7.99324,7.99324,0,0,1-3.688-.558,9.27248,9.27248,0,0,0-1.914-.503,1.16953,1.16953,0,0,0-.564.012,3.80475,3.80475,0,0,1-2.547-.307c-.371-.149-.729-.33-1.1-.478a2.716,2.716,0,0,1-1.838-1.98,1.454,1.454,0,0,0-1.023-1.095.99388.99388,0,0,1-.497-.461c-.459-.902-.866-1.831-1.323-2.734a20.30614,20.30614,0,0,0-1.738-2.835c-1.129-1.544-2.027-3.256-3.054-4.877A8.21567,8.21567,0,0,0,104.07849,153.61711Z"/><path class="cls-1" d="M85.24639,154.88641c-3.172-.052-4.703-2.323-5.299-5.441-.429-2.24,1.532-5.738,4.068-6.383a4.56768,4.56768,0,0,1,5.139,1.739c1.383,2.616,1.166,3.658.862,6.855-.166,1.734-2.547,3.266-4.77,3.23"/><path class="cls-3" d="M85.24639,154.88641c-3.172-.052-4.703-2.323-5.299-5.441-.429-2.24,1.532-5.738,4.068-6.383a4.56768,4.56768,0,0,1,5.139,1.739c1.383,2.616,1.166,3.658.862,6.855C89.85039,153.39042,87.46939,154.92242,85.24639,154.88641Z"/></g></g></svg>