<svg xmlns="http://www.w3.org/2000/svg" viewBox="0 0 78.702 88.811"><defs><style>.cls-1{fill:#babab9;}.cls-2{fill:#f1e51c;}</style></defs><g id="Layer_2" data-name="Layer 2"><g id="Layer_1-2" data-name="Layer 1"><path class="cls-1" d="M13.58229,30.6544a1.00687,1.00687,0,0,1-.838.889,2.51118,2.51118,0,0,1-.477.036c-.929.018-1.858.033-2.791.055h-.033a1.06187,1.06187,0,0,1-.998-.597,1.15957,1.15957,0,0,1,.251-1.254,1.39385,1.39385,0,0,1,.208-.156,2.38639,2.38639,0,0,0,1.108-2.194,4.16773,4.16773,0,0,0-.091-.819c-.073-.328-.186-.441-.445-.441a1.43748,1.43748,0,0,0-.178.011,3.11323,3.11323,0,0,0-2.132,1.147,1.17093,1.17093,0,0,1-.226.27,1.12211,1.12211,0,0,0-.437,1.115,2.864,2.864,0,0,1,.004.393.78807.78807,0,0,0,.375.769.99652.99652,0,0,1,.379,1.235,1.04288,1.04288,0,0,1-1.027.652.25029.25029,0,0,1-.055-.004c-.652-.021-1.297-.047-1.946-.069a39.24459,39.24459,0,0,1,5.083-7.651c.087-.007.171-.011.258-.011a2.52606,2.52606,0,0,1,.711.099,2.17056,2.17056,0,0,1,1.541,1.475,5.71855,5.71855,0,0,1,.087,3.308c-.025.099-.051.197-.072.296a.58488.58488,0,0,0,.01.145c.128.03.277.062.423.088a3.367,3.367,0,0,1,.641.109,1.01632,1.01632,0,0,1,.667,1.104"/><path class="cls-1" d="M59.8937,18.0524a1.46323,1.46323,0,0,0-.175-.007h-.022a38.74705,38.74705,0,0,0-7.345-4.412,39.54594,39.54594,0,0,0-6.812-2.401,39.01285,39.01285,0,0,1,14.354,6.82"/><path class="cls-1" d="M64.2745,22.1692a1.36161,1.36161,0,0,1-.568.9,6.11365,6.11365,0,0,1-.7.444,1.63448,1.63448,0,0,1-.765.197,1.46584,1.46584,0,0,1-1.424-1.177,2.80583,2.80583,0,0,1-.095-.776.70544.70544,0,0,0-.335-.655,35.4508,35.4508,0,0,0-14.213-6.409,1.05786,1.05786,0,0,0-.251-.029.76274.76274,0,0,0-.656.397,8.13386,8.13386,0,0,1-5.294,3.414,10.02671,10.02671,0,0,1-1.77.164,8.30921,8.30921,0,0,1-6.525-3.203c-.299-.353-.328-.499-.554-.499a2.85028,2.85028,0,0,0-.608.12,35.23406,35.23406,0,0,0-12.945,6.3,1.36432,1.36432,0,0,0-.539.845,1.738,1.738,0,0,1-1.843,1.391c-.062,0-.128,0-.194-.003a1.32507,1.32507,0,0,1-1.366-1.447c-.003-.142-.003-.291.004-.433a1.50628,1.50628,0,0,1,1.494-1.523,1.9262,1.9262,0,0,0,1.104-.441,37.0179,37.0179,0,0,1,13.45-6.645c.073-.018.142-.036.212-.058.346-.11.375-.142.269-.499a9.19639,9.19639,0,0,1-.273-1.286,39.6275,39.6275,0,0,1,16.937-.438,9.3887,9.3887,0,0,1-.196,1.228c-.117.528-.106.55.437.667a37.90838,37.90838,0,0,1,7.684,2.572,36.75692,36.75692,0,0,1,7.126,4.303,1.16513,1.16513,0,0,0,.754.287c.036,0,.076,0,.117-.003.043-.004.087-.008.131-.008a1.28294,1.28294,0,0,1,1.158.736,2.34058,2.34058,0,0,1,.237,1.567"/><path class="cls-1" d="M66.26,20.7556c-.066.062-.131.12-.193.182a3.65867,3.65867,0,0,0-.12-.477c.105.098.211.193.313.295"/><path class="cls-1" d="M74.43179,31.6199a.7601.7601,0,0,1-.142-.12,5.34359,5.34359,0,0,1-.499-.663c-.113-.153-.175-.226-.27-.226a.56371.56371,0,0,0-.233.076,5.29852,5.29852,0,0,1-2.474.496c-.4,0-.805-.018-1.206-.037a.5489.5489,0,0,1-.175-.029,6.924,6.924,0,0,1-2.954-1.77,3.64015,3.64015,0,0,1-.86-2.059,6.41187,6.41187,0,0,1,.863-3.989,5.45039,5.45039,0,0,1,1.086-1.261c.499.51.984,1.039,1.454,1.578.364.415.721.841,1.064,1.275q.792.984,1.512,2.018.579.8205,1.107,1.669.9345,1.4805,1.727,3.042"/><path d="M69.77219,28.006a1.60916,1.60916,0,0,0,.259.087,3.65355,3.65355,0,0,0,.823.101,2.473,2.473,0,0,0,1.353-.381c.01-.014.04-.057.045-.063-.034.006-.069.012-.104.017a9.08277,9.08277,0,0,1-1.064.087,8.43522,8.43522,0,0,0-1.312.152m5.268,4.726a1.95889,1.95889,0,0,1-1.4-.591,3.46749,3.46749,0,0,1-.365-.45,6.58749,6.58749,0,0,1-2.461.404c-.382,0-.763-.017-1.131-.035l-.119-.005a1.34656,1.34656,0,0,1-.485-.099c-.139-.059-.279-.116-.418-.174a6.7029,6.7029,0,0,1-2.89-1.861,4.5612,4.5612,0,0,1-1.063-2.569,7.33455,7.33455,0,0,1,1.005-4.54,5.79291,5.79291,0,0,1,3.613-2.647,4.38307,4.38307,0,0,1,.994-.111,6.48,6.48,0,0,1,1.838.296c.067.019.134.04.201.061.048-.041.097-.08.148-.117a1.84211,1.84211,0,0,1,1.967-.174,1.85017,1.85017,0,0,1,1.091,1.638,3.3013,3.3013,0,0,1-.551,1.931,1.83324,1.83324,0,0,1-1.552.835c-.043,0-.087-.001-.13-.004a2.03632,2.03632,0,0,1,.205,2.363,1.96388,1.96388,0,0,1,.376-.036,1.98509,1.98509,0,0,1,1.66.922c.128.197.234.391.337.579l.325.588c.134.244.269.489.411.73a2.012,2.012,0,0,1,.12,1.986,1.90915,1.90915,0,0,1-1.726,1.08"/><path d="M7.4163,29.1424a2.14469,2.14469,0,0,1,.366.329,1.8845,1.8845,0,0,1,.292-.351,2.39307,2.39307,0,0,1,.343-.265,1.48327,1.48327,0,0,0,.683-1.414,2.88917,2.88917,0,0,0-.016-.293,2.08283,2.08283,0,0,0-1.205.751l-.031.042a1.53323,1.53323,0,0,1-.386.406c-.031.022-.069.048-.049.299a3.72467,3.72467,0,0,1,.003.496m-1.272,3.531-.482-.018c-.694-.027-1.387-.053-2.08-.072a1.99786,1.99786,0,0,1-1.461-.635,1.95,1.95,0,0,1-.468-1.846,1.91721,1.91721,0,0,1,1.31-1.336,2.79067,2.79067,0,0,1,.545-.1l.003-4.295a1.95364,1.95364,0,0,1-1.892-1.714,1.931,1.931,0,0,1,1.518-2.159,3.01713,3.01713,0,0,1,.682-.072c.056,0,.111.001.165.004.127.005.254.007.38.007a21.85391,21.85391,0,0,0,2.542-.2l.243-.029a8.65254,8.65254,0,0,1,.984-.056c.111,0,.221.002.331.006a1.92377,1.92377,0,0,1,1.925,1.882,1.98734,1.98734,0,0,1-.273,1.121,3.25059,3.25059,0,0,1,2.578,2.163,6.67252,6.67252,0,0,1,.222,3.284,1.96574,1.96574,0,0,1,.313.086,1.95076,1.95076,0,0,1-.298,3.742,3.00158,3.00158,0,0,1-.576.051l-1.163.023q-.846.015-1.692.035l-.057.001a2.00033,2.00033,0,0,1-1.551-.696,1.98511,1.98511,0,0,1-1.658.825Z"/><path d="M64.8398,20.172a2.19016,2.19016,0,0,0-1.961-1.215c-.07,0-.14.003-.212.01l-.036.001c-.033,0-.067,0-.198-.1a37.895,37.895,0,0,0-7.3-4.407,38.75559,38.75559,0,0,0-7.541-2.56,8.73232,8.73232,0,0,0,.079-3.075,9.29327,9.29327,0,0,0-5.9-7.493,2.08052,2.08052,0,0,0-.37-.112l-.069-.016-.837-.222a1.7454,1.7454,0,0,1-.502.787l.26.653a2.04907,2.04907,0,0,0,.49.709,3.271,3.271,0,0,1,.356,3.755,3.47513,3.47513,0,0,1-2.939,1.574l-.086.001a2.24332,2.24332,0,0,1-1.985-1.092l-.054-.079a3.76533,3.76533,0,0,0-.224-.307,3.07933,3.07933,0,0,1-.669-1.715,1.71467,1.71467,0,0,1,.216-1.113c.208-.348.439-.692.683-1.055.114-.17.229-.342.346-.518l.436-.673a1.6965,1.6965,0,0,1-.572-.798l-.72.064a1.146,1.146,0,0,0-.341.058c-.159.053-.319.108-.474.173a9.47262,9.47262,0,0,0-5.815,8.668,9.15,9.15,0,0,0,.257,2.223,38.10079,38.10079,0,0,0-13.486,6.729,1.02865,1.02865,0,0,1-.608.251,2.40373,2.40373,0,0,0-2.337,2.366,4.41083,4.41083,0,0,0-.006.542,2.21764,2.21764,0,0,0,2.215,2.311c.086.006.171.009.254.009a2.63283,2.63283,0,0,0,2.728-2.098.48052.48052,0,0,1,.209-.33,34.47467,34.47467,0,0,1,12.613-6.138c.04-.01.091-.023.144-.037.03.038.063.079.1.122a9.20015,9.20015,0,0,0,7.219,3.524,10.89679,10.89679,0,0,0,1.932-.179,9.00759,9.00759,0,0,0,5.874-3.779l.002-.003A34.649,34.649,0,0,1,56.1448,19.4a36.22441,36.22441,0,0,1,3.665,2.407,3.66545,3.66545,0,0,0,.125.948,2.38012,2.38012,0,0,0,2.306,1.866,2.5469,2.5469,0,0,0,1.187-.3,6.91815,6.91815,0,0,0,.804-.508,2.27551,2.27551,0,0,0,.94-1.48,3.233,3.233,0,0,0-.332-2.161"/><path class="cls-2" d="M74.432,31.623V31.62a.72975.72975,0,0,1-.142-.12,5.41919,5.41919,0,0,1-.499-.663c-.113-.153-.175-.226-.27-.226a.56375.56375,0,0,0-.233.076,5.29845,5.29845,0,0,1-2.474.496c-.401,0-.805-.019-1.206-.037a.549.549,0,0,1-.175-.029,6.91026,6.91026,0,0,1-2.954-1.771,3.6208,3.6208,0,0,1-.86-2.058,6.41186,6.41186,0,0,1,.863-3.989,5.40616,5.40616,0,0,1,1.086-1.261,4.6509,4.6509,0,0,1,1.964-.987,3.5697,3.5697,0,0,1,.787-.088,5.66109,5.66109,0,0,1,1.584.263c.153.043.306.094.456.149a.48821.48821,0,0,0,.167.036.33241.33241,0,0,0,.263-.138,1.29849,1.29849,0,0,1,.251-.24,1.01183,1.01183,0,0,1,.59-.208.98937.98937,0,0,1,.437.109.95449.95449,0,0,1,.587.856,2.4381,2.4381,0,0,1-.404,1.407.92783.92783,0,0,1-.787.415,1.00723,1.00723,0,0,1-.339-.058,2.713,2.713,0,0,0-.896-.168,1.34881,1.34881,0,0,0-.168.007h-.055a2.25014,2.25014,0,0,1-.462-.076,2.77385,2.77385,0,0,1-.335-.099,2.45433,2.45433,0,0,0-.751-.12,2.28732,2.28732,0,0,0-1.435.518,3.43355,3.43355,0,0,0-.908,1.089,2.38979,2.38979,0,0,0-.145.503,5.959,5.959,0,0,0,.623-.062,13.81492,13.81492,0,0,1,1.493-.255c.51-.059,1.021-.095,1.534-.131.04-.004.08-.004.12-.004a1.07692,1.07692,0,0,1,1.17,1.137.98415.98415,0,0,1-.889.972c-.142.019-.281.037-.423.044-.178.018-.357.029-.532.033a22.2198,22.2198,0,0,0-3.06.473.513.513,0,0,0-.138.092,1.37571,1.37571,0,0,0,.699.881,4.6866,4.6866,0,0,0,1.261.594,4.55313,4.55313,0,0,0,1.027.124,3.408,3.408,0,0,0,1.851-.528c.018-.011.04-.026.058-.037a1.45162,1.45162,0,0,0,.281-.328,1.05347,1.05347,0,0,1,1.767.051c.149.234.277.481.411.722.212.382.419.765.638,1.14a1.125,1.125,0,0,1,.087,1.126.99664.99664,0,0,1-.907.568,1.02531,1.02531,0,0,1-.608-.197M64.274,22.169a1.352,1.352,0,0,1-.568.9,6.24982,6.24982,0,0,1-.699.445,1.64893,1.64893,0,0,1-.766.196,1.46675,1.46675,0,0,1-1.424-1.176,2.81158,2.81158,0,0,1-.095-.776.70213.70213,0,0,0-.335-.656,35.80734,35.80734,0,0,0-3.793-2.492,35.30691,35.30691,0,0,0-10.419-3.917,1.06034,1.06034,0,0,0-.252-.029.76334.76334,0,0,0-.655.397,8.13635,8.13635,0,0,1-5.294,3.414,10.0377,10.0377,0,0,1-1.771.164,8.31119,8.31119,0,0,1-6.525-3.202c-.298-.354-.328-.5-.553-.5a2.8671,2.8671,0,0,0-.609.121,35.22,35.22,0,0,0-12.944,6.299,1.36564,1.36564,0,0,0-.54.845,1.7381,1.7381,0,0,1-1.843,1.392c-.062,0-.128,0-.193-.004a1.32371,1.32371,0,0,1-1.366-1.446c-.004-.142-.004-.292.003-.434a1.50756,1.50756,0,0,1,1.494-1.523,1.9235,1.9235,0,0,0,1.104-.441,37.01428,37.01428,0,0,1,13.451-6.645c.073-.018.142-.036.211-.058.346-.109.375-.142.27-.499a9.34562,9.34562,0,0,1-.274-1.286,7.94179,7.94179,0,0,1-.076-1.173A8.55409,8.55409,0,0,1,35.07,2.248a4.13722,4.13722,0,0,1,.412-.149.49144.49144,0,0,1,.142-.015c-.368.557-.729,1.071-1.049,1.607a2.63657,2.63657,0,0,0-.339,1.679,3.99523,3.99523,0,0,0,.878,2.201,3.33977,3.33977,0,0,1,.226.32,3.16923,3.16923,0,0,0,2.732,1.483c.037,0,.077-.004.113-.004a4.38078,4.38078,0,0,0,3.658-1.956,4.15008,4.15008,0,0,0-.463-4.933,1.109,1.109,0,0,1-.28-.397,2.39022,2.39022,0,0,1,.317.087A8.40494,8.40494,0,0,1,46.772,8.97a7.32732,7.32732,0,0,1,.055,1.851,9.411,9.411,0,0,1-.197,1.227c-.116.529-.105.55.437.667a37.86728,37.86728,0,0,1,7.684,2.572,36.72791,36.72791,0,0,1,7.126,4.303,1.16818,1.16818,0,0,0,.754.288c.037,0,.077,0,.117-.004.044-.004.087-.007.131-.007a1.28262,1.28262,0,0,1,1.159.736,2.33637,2.33637,0,0,1,.236,1.566M13.582,30.654a1.00482,1.00482,0,0,1-.838.889,2.59579,2.59579,0,0,1-.477.037c-.929.018-1.858.033-2.791.054H9.444a1.06334,1.06334,0,0,1-.999-.597,1.15862,1.15862,0,0,1,.252-1.253,1.39333,1.39333,0,0,1,.207-.157,2.38278,2.38278,0,0,0,1.108-2.193,4.16936,4.16936,0,0,0-.091-.82c-.073-.328-.186-.441-.445-.441a1.67794,1.67794,0,0,0-.178.011,3.10836,3.10836,0,0,0-2.131,1.148,1.19077,1.19077,0,0,1-.226.269,1.12287,1.12287,0,0,0-.437,1.115,3.04593,3.04593,0,0,1,.003.394.78919.78919,0,0,0,.375.768.99571.99571,0,0,1,.379,1.235,1.04368,1.04368,0,0,1-1.027.653.25483.25483,0,0,1-.055-.004c-.652-.022-1.297-.047-1.945-.069-.208-.008-.419-.015-.627-.018a1.11419,1.11419,0,0,1-.82-.347,1.01791,1.01791,0,0,1,.438-1.69,3.78756,3.78756,0,0,1,.732-.091c.368-.029.415-.069.452-.441.011-.117.011-.233.011-.35q0-2.1855.003-4.368v-.087c-.011-.784-.029-.802-.794-.835a1.06435,1.06435,0,0,1-1.104-.914,1.02063,1.02063,0,0,1,.816-1.166,2.07021,2.07021,0,0,1,.477-.047H3.95c.138.007.276.01.415.01a24.76328,24.76328,0,0,0,2.889-.236,7.84849,7.84849,0,0,1,.882-.051c.098,0,.196.003.295.007A1.02055,1.02055,0,0,1,9.48,22.078a1.00306,1.00306,0,0,1-.962,1.086c-.492.062-.987.069-1.479.117-.484.047-.532.098-.532.597a3.18057,3.18057,0,0,0,.084,1.071,5.882,5.882,0,0,1,2.353-.856,3.16724,3.16724,0,0,1,.372-.051c.088-.007.171-.011.259-.011a2.51776,2.51776,0,0,1,.71.098,2.16839,2.16839,0,0,1,1.541,1.476,5.71864,5.71864,0,0,1,.088,3.308c-.026.098-.051.197-.073.295a.61726.61726,0,0,0,.011.146c.127.029.277.062.422.087a3.47241,3.47241,0,0,1,.642.109,1.01627,1.01627,0,0,1,.666,1.104M75.379,33.62a2.793,2.793,0,0,0,2.204-1.567,2.93709,2.93709,0,0,0-.153-2.849c-.135-.233-.266-.47-.397-.706-.073-.135-.149-.27-.222-.401-.033-.062-.069-.124-.102-.186-.106-.193-.226-.412-.372-.638a2.92361,2.92361,0,0,0-1.614-1.216.82758.82758,0,0,0,.008-.095,3.06792,3.06792,0,0,0-.073-.794,2.71574,2.71574,0,0,0,1.122-.988,4.25173,4.25173,0,0,0,.696-2.455,2.76767,2.76767,0,0,0-1.596-2.423,2.75115,2.75115,0,0,0-2.689.109,7.19317,7.19317,0,0,0-1.872-.269,5.44639,5.44639,0,0,0-1.199.134,6.53432,6.53432,0,0,0-2.86,1.48c-.066.062-.131.12-.193.182a3.61864,3.61864,0,0,0-.12-.477,3.95841,3.95841,0,0,0-.306-.722,3.11384,3.11384,0,0,0-2.587-1.687,1.463,1.463,0,0,0-.175-.007h-.022a38.84994,38.84994,0,0,0-7.345-4.412A39.54671,39.54671,0,0,0,48.7,11.232c-.026-.007-.055-.014-.081-.022a9.25832,9.25832,0,0,0-.047-2.528A10.16681,10.16681,0,0,0,42.124.492a2.9589,2.9589,0,0,0-.525-.16L41.562.324,40.338,0a.66047.66047,0,0,0-.441.16,1.76616,1.76616,0,0,0-.506,1.53l.222,1.072a3.12022,3.12022,0,0,0,.492,1.02,2.36762,2.36762,0,0,1,.252,2.579,2.56832,2.56832,0,0,1-2.223,1.188l-.062.004a1.38187,1.38187,0,0,1-.597-.121,1.68756,1.68756,0,0,1-1.184-1.373,2.68107,2.68107,0,0,1-.244-.893.812.812,0,0,1,.065-.492,1.97715,1.97715,0,0,1,.288-.776c.149-.32.313-.604.408-.874.011-.015.018-.029.029-.044l.496-1.545c-.03.004-.081.033-.084.004A1.361,1.361,0,0,0,36.732.306,1.03166,1.03166,0,0,0,36.225.2l-.739.066a2.0355,2.0355,0,0,0-.587.106c-.164.054-.343.113-.539.196a10.383,10.383,0,0,0-6.369,9.495,9.50379,9.50379,0,0,0,.113,1.585,39.02828,39.02828,0,0,0-12.992,6.659.29194.29194,0,0,1-.087.059.07133.07133,0,0,1-.025.003,3.27751,3.27751,0,0,0-3.152,2.955c-.189.182-.379.368-.561.557A2.828,2.828,0,0,0,8.5,19.247c-.124-.003-.244-.007-.364-.007a8.97265,8.97265,0,0,0-1.093.066l-.244.025a20.69012,20.69012,0,0,1-2.434.197c-.117,0-.23-.004-.346-.007-.066-.004-.131-.004-.201-.004a3.771,3.771,0,0,0-.885.095A2.85254,2.85254,0,0,0,.714,22.763a2.80857,2.80857,0,0,0,1.888,2.339v.102l-.004,2.722a2.83624,2.83624,0,0,0-1.144,4.641,2.86315,2.86315,0,0,0,1.927.915A39.35448,39.35448,0,1,0,78.702,49.461,39.12885,39.12885,0,0,0,75.379,33.62"/><path d="M21.07869,68.9032c.241.359.448.708.696,1.025a4.51512,4.51512,0,0,0,.574.538c.134.12.272.235.413.347.29.23.576.466.878.68.132.093.316.113.443.21.261.198.477.464.753.634.512.315,1.06.571,1.58.874.194.113.329.338.529.429.685.311,1.387.586,2.082.875a3.32545,3.32545,0,0,0,.35.147c.58.159,1.162.309,1.744.464.009.002.015.018.025.02.208.049.416.11.627.142.188.027.384,0,.569.037.225.046.472.238.655.183a8.19665,8.19665,0,0,0,1.385-.602c.119-.062.186-.25.245-.394.056-.135.034-.308.107-.428a6.04767,6.04767,0,0,0,.641-.979,4.064,4.064,0,0,0,.09-1.122c.002-.025-.036-.052-.054-.078a12.01528,12.01528,0,0,0-1.174-1.654,10.93187,10.93187,0,0,0-1.957-1.565,5.36914,5.36914,0,0,0-1.439-.412c-.137-.037-.273-.081-.407-.126a4.05147,4.05147,0,0,1-.775-.278c-.354-.211-.672-.483-1.008-.725-.326-.234-.665-.45-.978-.699-.13-.103-.18-.313-.314-.404-.26-.174-.623-.237-.82-.457-.38-.424-.663-.935-1.012-1.391-.237-.309-.52-.583-.778-.877a1.53349,1.53349,0,0,1-.286-.369c-.101-.237-.15-.495-.236-.738-.048-.136-.184-.261-.182-.389.009-.661.083-1.323.068-1.982a1.84033,1.84033,0,0,1,1.003-1.431,3.07678,3.07678,0,0,0,.922-.371,3.66434,3.66434,0,0,1,2.389-.143,4.72708,4.72708,0,0,0,.992.219,1.75879,1.75879,0,0,1,.564.18c.506.332.983.709,1.487,1.044.66.44,1.323.879,2.01,1.273a4.44319,4.44319,0,0,0,1.034.367c.303.085.783.022.895.203a1.13111,1.13111,0,0,0,.885.532,12.88114,12.88114,0,0,0,1.589.237,16.57629,16.57629,0,0,0,2.017-.054,3.88836,3.88836,0,0,0,.919-.247,5.17408,5.17408,0,0,1,1.103-.398,1.29886,1.29886,0,0,0,1.109-.472.283.283,0,0,1,.127-.088c.522-.205,1.18-.283,1.52-.654.231-.251.363-.079.515-.153a.92021.92021,0,0,0,.199-.143c.052-.045.083-.126.141-.15.508-.205,1.031-.375,1.526-.608.313-.147.461-.47.903-.559a16.31512,16.31512,0,0,1,2.531-.39,2.77265,2.77265,0,0,1,2.148,1.124,3.47121,3.47121,0,0,1,.868,1.848,2.81379,2.81379,0,0,1-.357,1.913,8.22158,8.22158,0,0,1-2.142,2.521c-.546.432-1.091.868-1.65,1.284a10.81338,10.81338,0,0,1-1.09.721c-.302.172-.636.286-.954.431a11.233,11.233,0,0,0-1.017.479c-.455.264-.885.569-1.328.855-.181.116-.361.314-.55.323-.595.029-.825.462-1.091.87-.025.037-.005.103-.006.155,0,.05.018.114-.006.148a2.03211,2.03211,0,0,1-.309.384,1.3858,1.3858,0,0,0-.515,1.425,3.36539,3.36539,0,0,1,.003.643,1.79887,1.79887,0,0,0,.01.493c.075.249.223.475.303.722a1.96058,1.96058,0,0,0,1.837,1.118,10.83012,10.83012,0,0,1,2.432-.427,3.71568,3.71568,0,0,0,1.562-.281,7.58469,7.58469,0,0,0,2.379-1.353c.116-.102.287-.141.411-.237.135-.104.225-.271.367-.357.382-.232.789-.421,1.171-.653.316-.193.608-.424.913-.635a6.594,6.594,0,0,1,.593-.391c.219-.118.073-.644.643-.452.223.076.679-.439.982-.734a8.48037,8.48037,0,0,0,.719-.895c.156-.199.195-.505.559-.514.076-.002.145-.278.217-.428.028-.058.043-.152.086-.167a4.86666,4.86666,0,0,0,.523-.154c.114-.057.177-.208.283-.291a6.81624,6.81624,0,0,0,1.224-.968c.715-.912,1.332-1.901,2.002-2.849.106-.151.311-.233.414-.384.304-.445.537-.944.877-1.356.378-.455.263-1.073.648-1.54a6.05847,6.05847,0,0,0,.725-1.448,3.29948,3.29948,0,0,0,.202-.744c.021-.116-.069-.251-.048-.366.047-.241.168-.471.195-.712.032-.288-.094-.622.009-.869.278-.668.829-1.188.909-1.98.101-.991.37-1.964.492-2.954a17.63074,17.63074,0,0,0,.048-2.045,14.49992,14.49992,0,0,0-.032-1.561c-.049-.474-.188-.938-.283-1.407-.025-.128-.023-.262-.054-.388-.147-.598-.323-1.189-.446-1.791a3.7957,3.7957,0,0,0-1.9-2.945c-.052-.025-.173.081-.259.132-.03.019-.064.083-.072.078a4.88234,4.88234,0,0,1-.474-.253,1.31191,1.31191,0,0,0-1.496-.026,5.35119,5.35119,0,0,0-.953,1.013,1.09771,1.09771,0,0,0-.214.429c-.062.247-.082.504-.124.755a3.52593,3.52593,0,0,0-.115.656c.02.698.082,1.394.11,2.091.02.503.032,1.007.014,1.51-.035,1.022-.088,2.044-.142,3.065-.019.369-.071.736-.089,1.105a6.795,6.795,0,0,1,.01.712,5.9161,5.9161,0,0,1-.246.843,1.4796,1.4796,0,0,1-.125.264,4.02042,4.02042,0,0,1-.388.655,6.87515,6.87515,0,0,1-.984,1.018c-.42.325-.931.53-1.363.843-.402.292-.768.551-1.3.34-.416-.164-.875-.159-1.315-.29a2.28707,2.28707,0,0,1-1.545-1.578,12.707,12.707,0,0,1-.275-2.933c-.08-1.205-.098-2.416-.234-3.614a14.24437,14.24437,0,0,0-.541-2.531c-.271-.882-.65-1.731-1.002-2.586-.142-.344-.337-.666-.508-.998a3.0084,3.0084,0,0,0-.289-.545c-.251-.302-.548-.565-.807-.862a14.87024,14.87024,0,0,0-1.121-1.31,11.16451,11.16451,0,0,0-1.59-1.161c-.651-.405-1.338-.752-2.011-1.122-.39-.214-.784-.422-1.176-.634a6.26926,6.26926,0,0,1-.627-.349,4.649,4.649,0,0,1-1.202-.936,1.52716,1.52716,0,0,1-.371-1.507c.087-.219-.154-.547-.135-.818a2.49685,2.49685,0,0,1,.274-.823c.109-.238.41-.471.384-.675-.132-1.052,1.215-2.103,2.016-2.193.953-.107,1.888.259,2.88-.034.418-.123,1.022.379,1.539.6.205.088.405.188.608.28.15.069.304.129.453.2.19.092.374.2.566.287a3.95153,3.95153,0,0,1,.658.278c.634.445,1.243.925,1.871,1.379.68.492,1.356.991,2.062,1.444a2.45261,2.45261,0,0,0,1.178.514,4.78545,4.78545,0,0,0,1.87-.397,2.04129,2.04129,0,0,0,.756-.989,1.59154,1.59154,0,0,0,.014-.808,3.29335,3.29335,0,0,0-.226-1.254,20.106,20.106,0,0,0-1.761-2.58,24.18672,24.18672,0,0,0-1.81-1.767c-.24-.238-.677-.056-.858-.496-.076-.183-.519-.21-.791-.317-.437-.172-.871-.35-1.305-.53-.385-.159-.761-.34-1.151-.481-.608-.218-1.224-.414-1.838-.614-.587-.191-1.169-.403-1.767-.552a10.69679,10.69679,0,0,0-1.307-.178c-.274-.034-.548-.067-.823-.086-.312-.022-.716.132-.825-.321-.128-.528-.532-.389-.861-.398-.167-.005-.341.155-.504.141-.236-.021-.459-.16-.696-.198-.561-.089-1.121.148-1.71-.126-.457-.213-.961.393-1.514.14a6.94766,6.94766,0,0,0-1.149.042c-.363.041-.722.123-1.084.185-.357.06-.715.113-1.072.174-.042.007-.077.052-.12.065-.388.122-.773.261-1.169.354s-.816.098-1.203.217c-.397.121-.78.493-1.144.462-.358-.032-.679-.132-.991.088-.425.3-1.128-.062-1.406.591-.002.007-.124-.058-.187-.052a2.34622,2.34622,0,0,0-.531.086c-.117.04-.2.175-.316.224a5.99053,5.99053,0,0,0-.815.302c-.39.233-.725.561-1.119.788a16.08991,16.08991,0,0,0-1.486.744c-.834.604-1.58,1.331-2.414,1.936a6.00718,6.00718,0,0,0-1.569,2.27,1.49045,1.49045,0,0,0-.068.778,6.30764,6.30764,0,0,0,.182,1.028c.057.226.326.471.333.588.057,1.031,1.054.795,1.564,1.185.2.153.637.017.961-.024a2.25833,2.25833,0,0,0,.783-.198c.426-.233.738-.68,1.298-.658.055.002.114-.072.168-.115.544-.43,1.067-.889,1.636-1.281.434-.299.929-.505,1.39-.767.873-.495,1.709-1.073,2.622-1.477a10.99571,10.99571,0,0,1,2.013-.456c.118-.027.241-.2.327-.177a9.78278,9.78278,0,0,1,.977.357c.4.155.802.307,1.199.472.303.126.697.193.874.423a2.80682,2.80682,0,0,1,.512,1.212c.074.451.501.869.187,1.373-.006.008.059.049.072.082a.76159.76159,0,0,1,.041.188c.009.115.009.23.015.344.005.089.053.198.017.262a12.36985,12.36985,0,0,1-.832,1.368,3.63819,3.63819,0,0,1-.948.909,12.39354,12.39354,0,0,1-1.362.555c-.722.329-1.439.67-2.138,1.045a8.50583,8.50583,0,0,0-.746.602c-.332.232-.711.401-1.027.652a9.65454,9.65454,0,0,0-1.078,1.014,4.968,4.968,0,0,0-.857,1.1c-.367.749-1.083,1.294-1.226,2.174a7.71848,7.71848,0,0,1-.332.926c-.131.434-.557.749-.376,1.327a2.74633,2.74633,0,0,1-.138,1.167c-.073.405-.179.802-.256,1.206-.103.548-.192,1.098-.284,1.648-.003.015.05.036.051.057a2.114,2.114,0,0,1,.017.469c-.054.343-.148.68-.202,1.024-.05.325-.063.656-.105.982-.04.308-.087.616-.149.92a2.76044,2.76044,0,0,1-.243.906,4.58835,4.58835,0,0,1-.784.806c-.25.237-.478.573-.778.664a5.23329,5.23329,0,0,1-1.283.058,3.59247,3.59247,0,0,1-.883.048,2.60187,2.60187,0,0,1-.884-.437,5.83358,5.83358,0,0,1-.729-.688c-.036-.036-.015-.124-.043-.176-.054-.099-.108-.253-.19-.275-.792-.205-.713-.984-.985-1.514a4.39951,4.39951,0,0,1-.319-1.267c-.04-.234.034-.485.014-.724-.049-.612-.15-1.221-.177-1.833-.027-.608.026-1.22.013-1.829-.005-.209-.153-.418-.146-.625.024-.782.085-1.563.131-2.344.001-.019-.021-.038-.027-.058a7.00647,7.00647,0,0,1-.215-.777,11.802,11.802,0,0,0-.178-1.342,2.25639,2.25639,0,0,0-.54-.945,1.8512,1.8512,0,0,0-1.852-.519,2.3217,2.3217,0,0,0-1.7,1.099,6.97745,6.97745,0,0,0-.512,1.366c-.184.686-.312,1.387-.46,2.082a2.6688,2.6688,0,0,0-.149.833,5.07983,5.07983,0,0,1-.068,1.868c-.048.194-.066.395-.099.593-.013.076-.03.151-.045.227.087-.016.173-.032.266-.048-.034.288-.423.486-.204.879.097.174-.016.459-.012.693.002.11.073.218.083.33.062.7.11,1.401.176,2.101.049.522.109,1.044.183,1.563a7.38685,7.38685,0,0,0,.176.804c.076.299.195.59.241.893a9.39655,9.39655,0,0,0,.097,1.113c.1.348.433.605.314,1.053-.052.194.09.449.171.667.102.276.252.536.342.815.11.341.167.698.272,1.04.034.109.165.184.225.289.202.357.384.725.59,1.078.193.331.424.639.607.974.195.356.338.74.537,1.092.067.118.285.153.347.271.141.27.204.582.348.85.072.135.281.19.375.32.157.215.263.465.406.691.046.073.146.111.217.17a1.83871,1.83871,0,0,1,.163.156.59269.59269,0,0,1,.12.155,1.71021,1.71021,0,0,1,.071.25c.012.042.012.105.039.123.202.131.501.205.598.387.306.579.914.901,1.2,1.486.013.028.078.06.099.05.457-.22.27.45.585.421.007.54.231.258.346.164m3.387-23.089c-.107-.144-.215-.23-.227-.327-.008-.059.143-.129.205-.208a.787.787,0,0,0,.142-.26c.28-1.016.525-2.044.846-3.047.094-.294.442-.497.596-.784.142-.264.677-.436.275-.88-.016-.018.009-.099.038-.126.236-.22.478-.434.716-.65a.85813.85813,0,0,0,.132-.138,6.6126,6.6126,0,0,0,.79-1.166c.255-.612.924-.351,1.267-.716a.34684.34684,0,0,0,.097-.237c-.008-.081-.089-.153-.138-.23.144-.014.288-.029.433-.042.077-.007.154-.011.231-.016-.202-.551.546-.275.565-.645.003-.055.086-.134.147-.152a3.89745,3.89745,0,0,0,.469-.101c.116-.052.289-.184.282-.268-.031-.382.201-.236.39-.247a1.90034,1.90034,0,0,0,.631-.131c.659-.283,1.299-.613,1.964-.882.313-.127.378-.181.225-.465a.139.139,0,0,1,.039-.124c.078-.063.186-.174.253-.155.571.155.437-.257.455-.546.008-.123.005-.247.017-.37.004-.047.06-.124.049-.132-.434-.332-.139-.94-.482-1.286a1.61309,1.61309,0,0,0-.616-.352,3.677,3.677,0,0,0-.846-.174,1.65808,1.65808,0,0,0-.771.033c-.401.169-.754.45-1.145.648-.104.052-.305-.092-.411-.041-.41.2-.796.449-1.198.667-.173.094-.373.141-.541.241-.541.324-1.074.661-1.608.996a8.17914,8.17914,0,0,0-.846.557c-.256.209-.453.491-.707.703-.223.187-.493.316-.734.483a.707.707,0,0,0-.154.203c-.02.03-.031.098-.041.097-.127-.012-.255-.03-.381-.053-.064-.012-.146-.072-.187-.049a4.31524,4.31524,0,0,1-.986.533,12.34961,12.34961,0,0,1-1.673.134,1.23875,1.23875,0,0,1-1.095-.358c-.187-.193-.563-.198-.85-.297-.174-.06-.409-.089-.498-.216a8.73531,8.73531,0,0,1-.566-1.033,3.85277,3.85277,0,0,1-.296-.632,5.35751,5.35751,0,0,1-.198-.969,8.71182,8.71182,0,0,0-.049-1.16c-.153-.634.399-1.008.477-1.546a2.68028,2.68028,0,0,1,.163-.772,8.64433,8.64433,0,0,1,.923-1.656,12.5721,12.5721,0,0,1,1.395-1.286c.042-.039.024-.147.028-.223.002-.024-.017-.049-.026-.073.388.054.451-.244.639-.485a2.3199,2.3199,0,0,1,.929-.526c.255-.11.674.013.611-.491,0-.003.076-.011.114-.024.534-.187,1.072-.367,1.601-.567.41-.154.816-.322,1.212-.508.438-.206.853-.461,1.297-.651a4.80036,4.80036,0,0,1,.828-.195c.288-.066.581-.117.862-.204,1.006-.312,1.99-.718,3.015-.938a33.73861,33.73861,0,0,1,3.892-.573c.837-.079,1.692.044,2.537.01a12.63169,12.63169,0,0,0,1.26-.268,4.38145,4.38145,0,0,1,.733.06c.53.019,1.061.013,1.59.039.228.011.453.094.681.108.391.022.761.237,1.103.256.481.027.927.182,1.395.232a14.17371,14.17371,0,0,1,1.625.439,12.12767,12.12767,0,0,1,1.211.175c.641.219,1.247.539,1.877.792a1.606,1.606,0,0,0,.498.021.16812.16812,0,0,1,.106.034c.18.193.354.393.535.586a.34158.34158,0,0,0,.142.072,8.84645,8.84645,0,0,1,1.272.417c.422.21.772.559,1.187.786a10.98709,10.98709,0,0,0,1.197.487.28161.28161,0,0,1,.101.068c.754.885,1.549,1.739,2.244,2.668a12.74408,12.74408,0,0,1,1.029,1.881c.225.44.424.894.616,1.349.033.078-.025.196-.045.295a1.18225,1.18225,0,0,1-.037.115c.036.003.085-.009.108.011.051.042.131.106.125.15-.064.425-.159.847-.209,1.274-.02.169.141.415.068.512-.52.689-.971,1.449-1.91,1.705-.35.096-.616.528-.962.599a2.78349,2.78349,0,0,1-1.247-.137c-.814-.229-1.613-.513-2.413-.789a2.12536,2.12536,0,0,1-.393-.246,11.11905,11.11905,0,0,0-1.424-.834c-.14-.06-.369.008-.54-.148-.118-.107-.296-.147-.424-.246a10.823,10.823,0,0,0-1.021-.821c-.549-.329-1.136-.596-1.716-.869a8.53191,8.53191,0,0,0-1.639-.691,3.656,3.656,0,0,0-1.339.096,1.97994,1.97994,0,0,0-.984.294,2.42954,2.42954,0,0,0-.831,1.202c-.236,1.437.349,2.107,1.742,2.782a22.13957,22.13957,0,0,1,3.402,2.13,15.24838,15.24838,0,0,1,2.276,2.102,10.44337,10.44337,0,0,1,2.123,3.645c.338.987.751,1.948,1.091,2.934a6.63893,6.63893,0,0,1,.27,1.31c.084.653.16,1.311.181,1.968.027.869-.017,1.739-.003,2.608a8.81926,8.81926,0,0,0,.129,1.836c.06.263.453.467.723.657.257.181.557.297.826.46.503.305.847-.061,1.246-.257.67-.33.78-.989.987-1.59a12.35194,12.35194,0,0,0,.605-1.976,13.78032,13.78032,0,0,0,.101-2.274c-.005-.732-.054-1.464-.117-2.193-.039-.447-.166-.887-.206-1.334-.051-.568-.071-1.14-.074-1.71-.002-.446.033-.892.071-1.337.011-.125.135-.245.133-.366-.005-.338.589-.496.27-.92-.008-.01.044-.076.078-.104.313-.262.613-.544.949-.773a5.65069,5.65069,0,0,1,.655-.248c.407-.204.8-.436,1.201-.65a.43215.43215,0,0,1,.159-.013,8.97785,8.97785,0,0,1,1.355-.088,3.88824,3.88824,0,0,1,.911.329,6.73614,6.73614,0,0,1,1.08.383c.192.108.514.102.546.497.02.248.287.479.451.711.022.031.093.026.142.038-.241.474.328.472.427.732.185.486.295,1.002.483,1.487.123.318.369.588.484.907.092.252.028.559.103.82.126.433.308.85.467,1.273.007.019.022.038.022.056.006.655.019,1.309.011,1.964-.008.72-.01,1.443-.063,2.161-.089,1.186-.158,2.379-.342,3.552a15.86033,15.86033,0,0,1-1.007,4.056c-.38.857-.625,1.774-.948,2.658-.04.111-.229.164-.28.275-.179.397-.328.808-.489,1.214l-.576,1.193c-.898.71-1.125,1.829-1.685,2.746a9.32857,9.32857,0,0,1-.64.719,2.21569,2.21569,0,0,0-.16.446.83471.83471,0,0,1-.183.204c-.376.378-.746.761-1.13,1.131-.433.416-.881.817-1.317,1.23-.252.239-.484.499-.741.732-.352.321-.709.637-1.081.934-.88.702-1.751,1.416-2.665,2.073a10.68527,10.68527,0,0,1-1.243.574,13.25974,13.25974,0,0,0-1.292.792,10.599,10.599,0,0,1-1.077.817c-.353.181-.683.523-1.174.362-.111-.037-.283.156-.439.196-.092.025-.247-.099-.307-.058-.827.56-1.839.319-2.718.641-.307.113-.609.237-.916.348-.044.016-.106-.025-.158-.021a.82939.82939,0,0,0-.181.046.66462.66462,0,0,1-.195.064.196.196,0,0,1-.13-.101.5031.5031,0,0,1-.023-.177.92827.92827,0,0,1-.243.07,1.81839,1.81839,0,0,1-.395-.05,2.03171,2.03171,0,0,0-.45-.12c-.786.03-1.078-.735-1.661-1.007a1.92044,1.92044,0,0,1-.903-1.04,2.90637,2.90637,0,0,1-.3-.998c-.021-.289.2-.599.169-.884a3.53965,3.53965,0,0,1,.328-1.889,12.56578,12.56578,0,0,1,.767-1.503,5.20026,5.20026,0,0,1,.72-.691c.076-.078.083-.22.128-.329a.22922.22922,0,0,1,.083-.111c.717-.403,1.432-.81,2.158-1.198a4.48131,4.48131,0,0,1,.535-.156c.142-.055.268-.15.406-.218.379-.188.763-.366,1.14-.557a15.12027,15.12027,0,0,0,1.553-.823,9.452,9.452,0,0,0,1.476-1.198,17.09961,17.09961,0,0,0,1.491-1.764c.274-.364.544-.759.219-1.281-.234-.376-.319-.846-.562-1.213-.126-.191-.451-.251-.688-.366-.035-.017-.08-.01-.117-.024-.944-.355-1.692.224-2.503.516-.279.1-.583.137-.85.26-.208.096-.364.302-.566.419-.229.133-.593.11-.524.542.004.02-.264.056-.377.129-.323.206-.614.466-.95.645a5.23374,5.23374,0,0,1-.79.231c-.243.081-.47.207-.714.283-.52.161-1.044.315-1.572.448a11.17739,11.17739,0,0,1-1.857.403,7.90451,7.90451,0,0,1-1.542-.193c-.153-.019-.311.001-.466-.008-.489-.027-.977-.061-1.465-.087-.117-.007-.25.046-.35.007-.663-.255-1.334-.497-1.975-.801-.927-.441-1.835-.924-2.744-1.404-.52-.274-1.035-.56-1.531-.874a9.88357,9.88357,0,0,1-.78-.632c-.04-.031-.119-.016-.18-.018-.542-.024-1.084-.042-1.626-.073a.41681.41681,0,0,1-.225-.102c-.237-.199-.34-.129-.545.109a2.06483,2.06483,0,0,0-.633,1.252,8.10766,8.10766,0,0,0,.297,1.636c.011.056.077.1.093.157a4.45874,4.45874,0,0,0,1.829,2.244c.924.684,1.932,1.256,2.917,1.854a3.82823,3.82823,0,0,0,.974.429c.503.135,1.027.186,1.534.308.158.038.28.204.432.286,1.072.579,1.586,1.718,2.481,2.481a1.7089,1.7089,0,0,1,.336.922,9.75676,9.75676,0,0,1,.23,1.711,5.44618,5.44618,0,0,1-.267,1.114c-.057.274-.061.559-.112.834-.014.078-.108.198-.171.202-.384.023-.301.343-.423.555a3.48051,3.48051,0,0,1-.838.922c-.148.121-.444.04-.639.128a3.546,3.546,0,0,1-1.146.231c-.126-.003-.255.128-.382.198-.042.024-.104.078-.123.066-.481-.302-.962-.098-1.443-.012a.10575.10575,0,0,1-.053-.004c-.554-.213-1.101-.446-1.663-.634-.426-.142-.879-.203-1.306-.344a2.7548,2.7548,0,0,1-.526-.351c-.297-.184-.592-.371-.901-.531-.46-.236-.929-.455-1.399-.669a6.22621,6.22621,0,0,1-.857-.358c-.507-.336-.959-.757-1.472-1.082-.546-.345-1.149-.599-1.7-.938-.166-.102-.235-.357-.359-.535-.024-.034-.106-.023-.148-.051a2.751,2.751,0,0,1-.508-.371c-.372-.406-.716-.838-1.077-1.255-.374-.433-.751-.863-1.136-1.287-.086-.095-.231-.139-.308-.238-.401-.517-.781-1.05-1.182-1.567-.358-.461-.743-.901-1.097-1.366-.151-.198-.238-.445-.381-.651-.189-.273-.429-.513-.6-.795-.152-.251-.224-.55-.359-.813-.175-.339-.398-.654-.561-.998-.146-.306-.221-.645-.356-.956-.369-.854-.766-1.696-1.122-2.555-.094-.227-.014-.675-.131-.721-.505-.197-.311-.711-.551-1.004-.363-.443-.222-1-.348-1.495-.06-.237-.139-.469-.197-.706a4.72137,4.72137,0,0,1-.099-.528c-.15-1.19-.336-2.377-.43-3.571a24.4275,24.4275,0,0,1,.005-2.524c.015-.606.049-1.213.112-1.815.037-.358.158-.707.217-1.063a21.79536,21.79536,0,0,1,.362-2.222,14.65061,14.65061,0,0,1,.833-2.078,5.78625,5.78625,0,0,1,.814-1.518,2.63758,2.63758,0,0,1,1.257-.656,4.65321,4.65321,0,0,1,3.125.42,3.18648,3.18648,0,0,1,1.851,1.945,10.09786,10.09786,0,0,1,.582,3.903c-.037.505.014,1.015.006,1.522-.011.631-.089,1.264-.052,1.891.053.893.169,1.784.289,2.671a9.938,9.938,0,0,0,.291,1.318,2.02433,2.02433,0,0,0,1.589,1.145c.395-.015.88.081,1.165-.11a1.9269,1.9269,0,0,0,1.096-1.622c-.026-.565-.276-1.125-.262-1.683a20.882,20.882,0,0,1,.3-2.417c.083-.575.185-1.147.287-1.719a.47945.47945,0,0,1,.076-.181"/><path class="cls-2" d="M48.3975,49.2927a9.825,9.825,0,1,0-9.825,9.825,9.82526,9.82526,0,0,0,9.825-9.825"/><path d="M39.6201,39.5751c0-.202.034-.317-.007-.392-.09-.166-.347-.394-.31-.453.326-.509-.436-.212-.357-.507-.289.15-.678.228-.846.464a14.04161,14.04161,0,0,0-.975,1.749c-.095.184-.089.421-.19.599-.122.216-.271.488-.475.571-.4.162-.887.134-1.264.329-.368.192-.643.557-1.131.377-.045-.016-.168.052-.166.058.112.444-.586.2-.57.734.01.361-.549.735-.848,1.107-.216.269-.422.544-.632.816a6.66223,6.66223,0,0,0-.776,1.04,7.12133,7.12133,0,0,0-.404,1.321c-.11.412-.386.833.024,1.237-.019.009-.054.018-.054.027a5.33913,5.33913,0,0,0-.028,1.254c.123.602.374,1.176.552,1.768.04.133-.04.308.013.429a16.52663,16.52663,0,0,0,.737,1.507c.307.537.659,1.05,1.006,1.564a1.2096,1.2096,0,0,0,.378.385c.299.164.637.259.934.426.251.141.452.37.702.512a10.72274,10.72274,0,0,0,1.2.585,7.21232,7.21232,0,0,0,.735.169c.207.06.54.11.582.242.158.485.118,1.035.503,1.447.014.015-.016.072-.023.11-.131.686.542.785.858,1.142a2.773,2.773,0,0,0,.326-.245c.15-.125.351-.229.429-.392.152-.319.225-.675.348-1.009.177-.483.344-.973.567-1.434.085-.177.369-.434.465-.397a1.13443,1.13443,0,0,0,1.138-.267,16.83812,16.83812,0,0,0,2.006-1.291,7.6365,7.6365,0,0,0,1.385-1.865,6.38333,6.38333,0,0,0,.514-1.574,6.58678,6.58678,0,0,0,.213-1.259c.04-.709.041-1.422.025-2.132a2.93856,2.93856,0,0,0-.151-1.196c-.432-.876-.969-1.699-1.453-2.55-.1-.176-.101-.427-.231-.563a5.231,5.231,0,0,0-.841-.683c-.544-.374-1.092-.743-1.66-1.077a5.39824,5.39824,0,0,0-.996-.42c-.33-.112-.628-.219-.723-.615-.083-.346-.212-.68-.322-1.02-.078-.241-.159-.481-.207-.628m-18.541,29.328c-.115.094-.339.376-.346-.164-.315.029-.128-.641-.586-.421-.021.01-.085-.022-.099-.05-.285-.585-.893-.907-1.2-1.486-.097-.182-.396-.256-.597-.387-.028-.018-.027-.081-.039-.123a1.71147,1.71147,0,0,0-.071-.25.59645.59645,0,0,0-.121-.155,1.71633,1.71633,0,0,0-.163-.156c-.071-.059-.17-.097-.216-.17-.144-.226-.25-.476-.406-.691-.094-.13-.303-.185-.375-.32-.144-.268-.207-.58-.349-.85-.061-.118-.28-.153-.346-.271-.199-.352-.343-.736-.537-1.092-.184-.334-.415-.643-.607-.974-.207-.353-.388-.721-.591-1.078-.06-.105-.191-.18-.224-.289-.106-.342-.162-.699-.272-1.04-.09-.279-.24-.538-.342-.815-.081-.218-.223-.473-.172-.667.119-.448-.214-.705-.313-1.053a9.19032,9.19032,0,0,1-.097-1.113c-.046-.303-.166-.593-.242-.893a7.42416,7.42416,0,0,1-.176-.803q-.10949-.78-.183-1.564c-.066-.7-.113-1.401-.176-2.101-.01-.112-.08-.22-.082-.33-.004-.234.108-.519.012-.692-.22-.394.169-.592.204-.88-.093.016-.18.032-.267.048.016-.076.033-.151.046-.227.033-.198.051-.399.099-.593a5.0792,5.0792,0,0,0,.067-1.868,2.69972,2.69972,0,0,1,.15-.833c.148-.695.275-1.396.459-2.082a7.04549,7.04549,0,0,1,.513-1.366,2.31982,2.31982,0,0,1,1.699-1.099,1.85127,1.85127,0,0,1,1.853.52,2.23431,2.23431,0,0,1,.539.944,11.805,11.805,0,0,1,.179,1.342,7.0092,7.0092,0,0,0,.215.777c.006.02.027.039.026.058-.045.781-.106,1.562-.131,2.344-.006.207.142.416.146.625.013.609-.039,1.221-.012,1.829.027.612.128,1.221.177,1.833.019.24-.055.49-.015.724a4.40079,4.40079,0,0,0,.32,1.267c.271.53.193,1.309.985,1.514.082.022.136.176.19.275.028.052.006.14.043.177a5.82141,5.82141,0,0,0,.728.687,2.61093,2.61093,0,0,0,.884.437,3.5925,3.5925,0,0,0,.883-.048,5.292,5.292,0,0,0,1.284-.057c.299-.092.527-.428.777-.665a4.63139,4.63139,0,0,0,.785-.806,2.75989,2.75989,0,0,0,.242-.906c.063-.304.11-.612.15-.92.042-.326.054-.657.105-.982.053-.344.147-.681.201-1.024a2.11373,2.11373,0,0,0-.016-.469c-.002-.02-.054-.042-.052-.057.092-.55.181-1.1.285-1.648.076-.403.183-.801.255-1.206a2.73083,2.73083,0,0,0,.138-1.167c-.18-.578.245-.893.377-1.327a7.7138,7.7138,0,0,0,.331-.926c.144-.88.859-1.425,1.227-2.174a4.90874,4.90874,0,0,1,.857-1.1,9.749,9.749,0,0,1,1.078-1.014c.315-.251.694-.42,1.027-.652a8.2217,8.2217,0,0,1,.746-.602c.698-.375,1.416-.716,2.137-1.045a12.41379,12.41379,0,0,0,1.363-.555,3.63438,3.63438,0,0,0,.947-.909,12.37811,12.37811,0,0,0,.833-1.368c.036-.064-.012-.173-.017-.262-.007-.114-.006-.229-.016-.344a.71874.71874,0,0,0-.041-.188c-.012-.033-.077-.073-.072-.082.315-.504-.112-.922-.186-1.373a2.79632,2.79632,0,0,0-.513-1.212c-.176-.23-.571-.297-.874-.423-.396-.165-.798-.317-1.198-.472a10.03531,10.03531,0,0,0-.977-.357c-.086-.023-.209.15-.328.177a11.00471,11.00471,0,0,0-2.012.456c-.913.404-1.749.982-2.623,1.477-.46.262-.956.468-1.389.767-.569.392-1.093.851-1.636,1.281-.054.043-.114.117-.168.115-.561-.022-.873.425-1.299.658a2.24712,2.24712,0,0,1-.783.198c-.324.041-.761.177-.96.024-.511-.39-1.507-.153-1.565-1.185-.006-.117-.275-.362-.332-.588a6.20318,6.20318,0,0,1-.182-1.028,1.48008,1.48008,0,0,1,.068-.778,5.9846,5.9846,0,0,1,1.569-2.27c.834-.605,1.579-1.332,2.413-1.936a16.23519,16.23519,0,0,1,1.487-.744c.393-.227.729-.554,1.119-.788a6.163,6.163,0,0,1,.814-.302c.117-.049.2-.184.317-.223a2.28425,2.28425,0,0,1,.53-.087c.063-.006.185.059.188.052.278-.653.98-.29,1.405-.591.313-.22.633-.12.992-.088.363.031.746-.341,1.143-.462.387-.119.807-.124,1.204-.217.396-.093.78-.232,1.169-.354.043-.013.078-.058.12-.065.357-.061.715-.114,1.072-.174.361-.062.72-.143,1.084-.185a6.93466,6.93466,0,0,1,1.148-.042c.554.253,1.058-.353,1.515-.14.589.274,1.149.037,1.71.126.237.038.46.178.696.198.162.014.337-.146.503-.141.33.01.734-.13.861.398.109.453.513.299.826.321.275.019.549.052.823.086a10.751,10.751,0,0,1,1.307.178c.597.149,1.18.361,1.767.552.614.2,1.23.396,1.837.614.391.141.767.322,1.151.481.434.18.869.358,1.306.53.272.108.715.134.79.317.182.44.618.258.859.496a24.77718,24.77718,0,0,1,1.81,1.767,20.10535,20.10535,0,0,1,1.761,2.58,3.33193,3.33193,0,0,1,.226,1.254,1.591,1.591,0,0,1-.015.808,2.04738,2.04738,0,0,1-.755.99,4.78419,4.78419,0,0,1-1.87.396,2.45573,2.45573,0,0,1-1.179-.514c-.705-.452-1.381-.952-2.061-1.444-.628-.454-1.237-.934-1.871-1.379a4.022,4.022,0,0,0-.658-.278c-.193-.087-.376-.194-.567-.286-.148-.072-.302-.132-.452-.201-.204-.092-.404-.192-.609-.28-.517-.221-1.12-.723-1.538-.6-.992.293-1.928-.073-2.88.034-.802.091-2.148,1.141-2.016,2.193.026.204-.275.437-.385.675a2.49464,2.49464,0,0,0-.273.823c-.019.271.221.599.135.818a1.52264,1.52264,0,0,0,.371,1.507,4.63209,4.63209,0,0,0,1.202.936,6.05657,6.05657,0,0,0,.627.349c.392.212.785.42,1.176.634.673.37,1.36.717,2.01,1.123a11.03385,11.03385,0,0,1,1.591,1.16,15.07566,15.07566,0,0,1,1.121,1.311c.259.296.555.559.806.861a2.88948,2.88948,0,0,1,.289.545c.171.332.367.654.508.998.352.855.732,1.704,1.002,2.586a14.247,14.247,0,0,1,.542,2.531c.136,1.198.153,2.409.233,3.614a12.6532,12.6532,0,0,0,.276,2.933,2.2832,2.2832,0,0,0,1.545,1.578c.44.131.898.126,1.314.291.533.21.898-.049,1.3-.341.432-.312.943-.518,1.364-.843a6.8182,6.8182,0,0,0,.983-1.018,3.95655,3.95655,0,0,0,.389-.655,1.40977,1.40977,0,0,0,.124-.264,5.7874,5.7874,0,0,0,.246-.843,6.78946,6.78946,0,0,0-.01-.712c.018-.369.07-.736.09-1.105.053-1.021.107-2.043.142-3.065.017-.503.006-1.007-.014-1.51-.029-.697-.09-1.393-.11-2.091a3.4583,3.4583,0,0,1,.114-.656c.043-.251.063-.508.125-.754a1.06851,1.06851,0,0,1,.214-.43,5.37791,5.37791,0,0,1,.952-1.013,1.31185,1.31185,0,0,1,1.496.026,5.25447,5.25447,0,0,0,.474.254c.009.004.043-.06.073-.079.085-.051.207-.157.258-.132a3.79324,3.79324,0,0,1,1.9,2.945c.124.602.3,1.194.446,1.791.031.126.029.26.055.388.095.469.233.933.282,1.407a14.49714,14.49714,0,0,1,.033,1.561,17.63313,17.63313,0,0,1-.048,2.045c-.122.99-.391,1.963-.492,2.954-.081.792-.632,1.312-.909,1.98-.104.247.022.581-.01.869-.026.242-.148.471-.194.712-.022.115.068.251.048.366a3.27139,3.27139,0,0,1-.203.745,6.03012,6.03012,0,0,1-.724,1.447c-.385.467-.27,1.085-.648,1.54-.341.412-.574.911-.877,1.356-.104.151-.308.233-.414.384-.67.949-1.288,1.937-2.002,2.849a6.88782,6.88782,0,0,1-1.224.968c-.106.084-.169.234-.284.291a4.79928,4.79928,0,0,1-.523.154c-.043.015-.058.109-.085.167-.072.15-.141.426-.217.428-.364.009-.403.315-.559.514a8.612,8.612,0,0,1-.719.895c-.304.295-.76.81-.982.734-.57-.192-.425.334-.644.452a6.43995,6.43995,0,0,0-.592.391c-.305.211-.598.442-.914.635-.381.232-.788.422-1.17.653-.142.086-.233.253-.367.357-.124.096-.295.135-.412.237a7.59135,7.59135,0,0,1-2.378,1.353,3.71572,3.71572,0,0,1-1.562.281,10.84822,10.84822,0,0,0-2.433.427,1.96231,1.96231,0,0,1-1.837-1.117c-.08-.248-.228-.474-.302-.723a1.75959,1.75959,0,0,1-.011-.493,3.28572,3.28572,0,0,0-.003-.643,1.39012,1.39012,0,0,1,.515-1.425,2.03172,2.03172,0,0,0,.309-.384c.024-.034.006-.097.007-.147.001-.053-.019-.119.005-.156.267-.408.497-.841,1.092-.87.188-.009.369-.207.55-.323.442-.286.873-.591,1.327-.855.323-.187.676-.324,1.018-.479.318-.145.652-.259.953-.431a10.82816,10.82816,0,0,0,1.091-.721c.559-.416,1.103-.852,1.65-1.284a8.24308,8.24308,0,0,0,2.142-2.52,2.81715,2.81715,0,0,0,.356-1.914,3.464,3.464,0,0,0-.868-1.848,2.77106,2.77106,0,0,0-2.148-1.124,16.3206,16.3206,0,0,0-2.53.39c-.442.089-.59.412-.904.559-.494.233-1.018.403-1.525.609-.058.023-.09.104-.141.149a.92615.92615,0,0,1-.2.143c-.151.074-.283-.098-.514.154-.34.37-.999.448-1.521.653a.28849.28849,0,0,0-.127.088,1.29774,1.29774,0,0,1-1.108.473,5.09732,5.09732,0,0,0-1.103.397,3.89568,3.89568,0,0,1-.92.247,16.56551,16.56551,0,0,1-2.017.054,12.8654,12.8654,0,0,1-1.588-.237,1.1313,1.1313,0,0,1-.886-.532c-.112-.181-.591-.118-.894-.202a4.45306,4.45306,0,0,1-1.035-.368c-.687-.394-1.349-.833-2.009-1.273-.505-.335-.982-.712-1.488-1.044a1.743,1.743,0,0,0-.564-.18,4.70387,4.70387,0,0,1-.991-.219,3.66731,3.66731,0,0,0-2.39.143,3.05584,3.05584,0,0,1-.922.371,1.83927,1.83927,0,0,0-1.002,1.431c.015.66-.06,1.321-.069,1.982-.001.128.134.253.182.389.086.243.136.501.236.738a1.55884,1.55884,0,0,0,.286.369c.259.294.542.568.779.877.349.456.631.967,1.012,1.391.197.22.559.283.819.458.135.09.185.3.315.403.313.249.652.465.977.699.337.242.654.514,1.009.725a4.06644,4.06644,0,0,0,.774.278c.135.045.27.089.407.126a5.3763,5.3763,0,0,1,1.44.412,10.8899,10.8899,0,0,1,1.956,1.565,11.847,11.847,0,0,1,1.174,1.654c.019.026.056.053.055.078a4.0605,4.0605,0,0,1-.091,1.122,6.04071,6.04071,0,0,1-.64.979c-.073.12-.052.293-.107.428-.059.144-.126.332-.245.394a8.26723,8.26723,0,0,1-1.385.602c-.183.055-.431-.137-.656-.183-.184-.037-.381-.01-.568-.037-.212-.032-.419-.093-.628-.142-.009-.002-.015-.018-.024-.02-.582-.155-1.164-.305-1.745-.464a3.19274,3.19274,0,0,1-.349-.147c-.696-.289-1.398-.564-2.083-.875-.2-.091-.335-.316-.529-.429-.519-.303-1.067-.559-1.579-.874-.277-.17-.492-.436-.753-.634-.128-.097-.312-.117-.443-.21-.302-.214-.589-.45-.879-.68-.141-.112-.279-.227-.413-.347a4.44062,4.44062,0,0,1-.573-.538c-.248-.317-.456-.666-.696-1.025"/><path d="M38.211,56.3802c-.029.038-.059.077-.089.115.108.263.205.532.329.788.042.086.155.134.227.208a1.27954,1.27954,0,0,1,.121.174,1.97248,1.97248,0,0,0,.221-.275c.038-.071.009-.177.045-.251.148-.303.303-.604.469-.899.218-.388.42-.799.932-.874.394-.058.792-.095,1.18-.178.09-.019.126-.227.224-.285a12.09189,12.09189,0,0,0,1.267-.725c.241-.187.54-.337.589-.795.04-.375.479-.702.723-1.063a1.50691,1.50691,0,0,0,.229-.501c.104-.462.198-.929.259-1.398.073-.563.132-1.131.151-1.698a12.3156,12.3156,0,0,0-.073-1.256.43288.43288,0,0,0-.035-.152,8.20279,8.20279,0,0,0-.648-1.355,8.23076,8.23076,0,0,0-1.313-1.463,8.27335,8.27335,0,0,0-1.387-.82,4.45414,4.45414,0,0,0-.578-.279,3.32733,3.32733,0,0,0-.842-.259c-.19-.018-.448.543-.563-.086a.56416.56416,0,0,0-.083.009c-.062.01-.124.021-.186.032.014-.088.032-.175.039-.264a.54094.54094,0,0,0-.005-.205q-.36-1.0995-.728-2.196c-.022-.067-.051-.131-.076-.196a1.05849,1.05849,0,0,0-.131.2c-.091.23-.159.469-.257.695-.111.257-.344.501-.352.756-.018.562-.175.931-.773,1.063a2.54992,2.54992,0,0,0-.66.365c-.168.098-.329.207-.5.299a.26131.26131,0,0,1-.187.009,1.39176,1.39176,0,0,0-1.432.604c-.055.108-.217.171-.341.232-.138.067-.348.066-.421.169a2.03679,2.03679,0,0,0-.313.696c-.158.67-.621,1.2-.819,1.863-.071.239-.288.452-.298.779-.015.484-.181.966-.181,1.448a4.036,4.036,0,0,0,.253,1.086,15.76253,15.76253,0,0,0,.565,1.769,6.12932,6.12932,0,0,0,.746,1.177c.32.436.666.853,1.027,1.255.056.061.281-.057.38-.004a3.32764,3.32764,0,0,1,.843.565,2.817,2.817,0,0,0,1.577.632,3.71009,3.71009,0,0,1,.875.489m1.409-16.805c.048.147.129.387.207.628.11.339.239.674.322,1.02.095.396.393.503.723.615a5.36971,5.36971,0,0,1,.996.42c.568.334,1.116.703,1.66,1.077a5.188,5.188,0,0,1,.841.683c.13.136.131.387.231.563.484.851,1.021,1.674,1.454,2.55a2.95577,2.95577,0,0,1,.15,1.196c.016.71.015,1.423-.025,2.132a6.51107,6.51107,0,0,1-.213,1.259,6.36247,6.36247,0,0,1-.514,1.573,7.62306,7.62306,0,0,1-1.385,1.866,16.75166,16.75166,0,0,1-2.006,1.29,1.13428,1.13428,0,0,1-1.138.268c-.096-.037-.38.22-.465.396-.223.462-.39.952-.567,1.435-.123.334-.196.69-.348,1.009-.078.162-.279.267-.429.392a2.77424,2.77424,0,0,1-.326.245c-.316-.357-.989-.457-.858-1.143.007-.037.037-.094.023-.109-.385-.412-.345-.962-.502-1.447-.043-.132-.376-.182-.583-.242a7.21274,7.21274,0,0,1-.735-.169,10.722,10.722,0,0,1-1.2-.585c-.25-.142-.451-.371-.702-.512-.297-.167-.635-.262-.933-.426a1.20228,1.20228,0,0,1-.379-.385c-.346-.514-.699-1.027-1.006-1.565a16.53234,16.53234,0,0,1-.737-1.507c-.053-.12.027-.296-.012-.428-.179-.592-.43-1.166-.553-1.768a5.3934,5.3934,0,0,1,.028-1.254c0-.01.035-.018.054-.027-.41-.404-.134-.825-.024-1.237a7.0982,7.0982,0,0,1,.404-1.321,6.66167,6.66167,0,0,1,.776-1.04c.21-.273.417-.548.632-.816.299-.372.858-.746.848-1.107-.016-.534.682-.29.57-.734-.002-.006.122-.074.166-.058.488.18.763-.185,1.131-.377.377-.195.864-.167,1.264-.33.204-.083.353-.354.475-.57.101-.178.095-.416.19-.599a14.0429,14.0429,0,0,1,.975-1.749c.168-.236.557-.315.846-.465-.079.296.683-.001.357.508-.037.059.22.287.31.453.041.075.007.19.007.392"/><path d="M36.3855,49.8467c-.044.036-.088.073-.132.109.308.327.561.765.938.955.503.252,1.047.647,1.691.253.308-.189.674-.282.991-.459a1.90846,1.90846,0,0,0,.52-.458c.064-.078.011-.244.037-.364.061-.288.269-.625.18-.846-.168-.415.095-.94-.393-1.306-.1-.075-.153-.439-.443-.514-.284-.075-.563-.181-.851-.227-.523-.085-1.069-.346-1.548.128-.066.066-.114.159-.191.204a2.159,2.159,0,0,0-.879,1.662c.032.287.054.575.08.863m5.151,3.401c-.6.204-1.01.341-1.419.483a2.63251,2.63251,0,0,1-1.858.198.77143.77143,0,0,0-.438-.027c-.779.206-1.271-.313-1.814-.699a6.10965,6.10965,0,0,1-.938-.729c-.153-.161-.154-.457-.252-.681a1.95926,1.95926,0,0,0-.308-.505c-.119-.135-.381-.201-.42-.341a5.19182,5.19182,0,0,1-.272-1.506,6.39071,6.39071,0,0,1,.336-1.897c.117-.334.524-.566.801-.844.008-.008.027-.014.026-.017-.135-.557.426-.545.658-.801a.91712.91712,0,0,1,.216-.127,4.775,4.775,0,0,1,1.076-.637c.462-.13.749-.561,1.181-.633a3.53944,3.53944,0,0,1,1.313.085,5.10984,5.10984,0,0,1,1.283.477c.733.393,1.537.719,1.819,1.639.087.286.341.519.433.804.212.656.353,1.335.555,1.994.292.949-.278,1.625-.738,2.313a11.24945,11.24945,0,0,1-1.037,1.121,1.45223,1.45223,0,0,0-.203.33"/><path class="cls-2" d="M36.3856,49.8464c-.026-.288-.048-.576-.081-.863a2.16124,2.16124,0,0,1,.88-1.661c.077-.046.125-.139.191-.205.478-.473,1.025-.212,1.548-.128.288.046.567.153.851.227.29.076.343.439.443.514.488.366.225.892.393,1.307.089.22-.119.558-.18.845-.026.121.027.286-.037.364a1.87585,1.87585,0,0,1-.52.458c-.317.177-.683.27-.992.459-.643.395-1.187-.001-1.69-.253-.377-.189-.63-.627-.938-.955.044-.036.088-.073.132-.109"/><path d="M70.793,75.6628l.101-.071a.62237.62237,0,0,0,.064.164c.381.496.762.991,1.151,1.482a4.84263,4.84263,0,0,0,1.237,1.094,2.01178,2.01178,0,0,0,.471.223,1.10106,1.10106,0,0,0,1.108-1.829,4.75549,4.75549,0,0,0-.372-.302,4.62815,4.62815,0,0,1-.591-.513c-.378-.442-.743-.897-1.086-1.367-1.08-1.481-2.144-2.974-3.221-4.457a4.80274,4.80274,0,0,0-2.231-1.618,1.46078,1.46078,0,0,0-1.19.029,1.07718,1.07718,0,0,0-.651.963,1.032,1.032,0,0,0,.532.986,2.13,2.13,0,0,0,.567.213,1.77616,1.77616,0,0,1,.994.599c.414.52.783,1.076,1.211,1.672-.143-.012-.212-.014-.279-.024a3.47183,3.47183,0,0,0-3.772,2.145,2.59276,2.59276,0,0,0,.958,3.42c.085.056.171.11.255.169a2.48039,2.48039,0,0,0,2.412.261,8.825,8.825,0,0,0,1.297-.622,1.83231,1.83231,0,0,0,.605-.549,2.56752,2.56752,0,0,0,.46-1.737c-.013-.11-.02-.221-.03-.331m-8.758,3.191a2.84915,2.84915,0,0,0-.346.272,10.69526,10.69526,0,0,1-2.197,1.714c-.584.382-1.177.753-1.781,1.102a7.42689,7.42689,0,0,1-1.364.682,10.04362,10.04362,0,0,1-1.518.261c.032.235-.165.339-.394.428-1.084.422-2.162.863-3.253,1.269a.801.801,0,0,0-.619.672,2.05918,2.05918,0,0,1-2.259,1.628,1.25271,1.25271,0,0,1-.945-.56,1.34777,1.34777,0,0,1-.239-.509,9.40769,9.40769,0,0,1-.18-1.73,1.80971,1.80971,0,0,1,2.585-1.514,1.031,1.031,0,0,0,.909.051c1.12-.452,2.244-.895,3.367-1.339a10.011,10.011,0,0,1,1.669-.589,3.34621,3.34621,0,0,0,1.025-.47c.941-.58,1.897-1.146,2.787-1.797a17.28143,17.28143,0,0,0,1.621-1.517c.176-.168.133-.366.082-.57a8.66271,8.66271,0,0,1-.284-2.334,8.81591,8.81591,0,0,1,4.183-7.534,8.435,8.435,0,0,1,4.537-1.375c.102-.002.204-.011.306-.005a.51256.51256,0,0,0,.543-.348c.165-.388.346-.77.515-1.157.63-1.439,1.263-2.878,1.884-4.322.253-.587.51-1.176.705-1.784a14.19168,14.19168,0,0,0,.403-1.697,34.44126,34.44126,0,0,0,.618-7.034,35.47423,35.47423,0,0,0-1.827-10.719c-.06-.179-.13-.355-.193-.534a.49622.49622,0,0,0-.36-.343,3.02449,3.02449,0,0,1-.566-.226,1.67019,1.67019,0,0,1-.769-2.263c.081-.171.162-.342.247-.511a1.56611,1.56611,0,0,1,1.929-.762c.271.1.549.182.815.291a1.2407,1.2407,0,0,1,.668.717,1.838,1.838,0,0,1,.014,1.487,1.02371,1.02371,0,0,0-.018.834,34.93231,34.93231,0,0,1,1.296,4.53,37.56321,37.56321,0,0,1-.208,16.881.52347.52347,0,0,1-.226.397c-.093.056-.129.217-.177.336-.441,1.109-.865,2.224-1.324,3.325-.352.846-.749,1.674-1.125,2.51-.06.133-.121.266-.171.402-.11.301-.091.345.189.47.079.035.164.06.244.093a8.753,8.753,0,0,1,5.741,7.639,8.86984,8.86984,0,0,1-7.657,9.625,8.73184,8.73184,0,0,1-8.498-3.577c-.115-.147-.229-.296-.384-.496"/><path class="cls-2" d="M67.8531,77.2088a1.17752,1.17752,0,0,0,1.221-1.291,1.21379,1.21379,0,0,0-1.183-1.299,1.39392,1.39392,0,0,0-1.347,1.382,1.18945,1.18945,0,0,0,1.309,1.208m2.94-1.546c.01.11.017.221.03.331a2.56758,2.56758,0,0,1-.46,1.737,1.83238,1.83238,0,0,1-.605.549,8.82425,8.82425,0,0,1-1.297.622,2.48041,2.48041,0,0,1-2.412-.261c-.084-.059-.17-.113-.255-.169a2.59276,2.59276,0,0,1-.958-3.42,3.47182,3.47182,0,0,1,3.772-2.145c.067.01.136.012.279.024-.428-.596-.797-1.152-1.211-1.672a1.77616,1.77616,0,0,0-.994-.599,2.12977,2.12977,0,0,1-.567-.213,1.032,1.032,0,0,1-.532-.986,1.07605,1.07605,0,0,1,.651-.963,1.46069,1.46069,0,0,1,1.19-.029,4.80277,4.80277,0,0,1,2.231,1.618c1.077,1.483,2.141,2.976,3.221,4.457.343.47.708.925,1.086,1.367a4.68867,4.68867,0,0,0,.59.513,4.77167,4.77167,0,0,1,.373.302,1.10105,1.10105,0,0,1-1.108,1.829,2.038,2.038,0,0,1-.472-.223,4.855,4.855,0,0,1-1.236-1.094c-.389-.491-.77-.986-1.151-1.482a.62235.62235,0,0,1-.064-.164l-.101.071"/><path class="cls-2" d="M8.0266,72.4894a2.806,2.806,0,0,1-.039-1.39c.017-.089.146-.169.241-.226.148-.089.322-.139.466-.235a1.02179,1.02179,0,0,0,.42-1.113.85414.85414,0,0,0-.758-.741,11.43027,11.43027,0,0,0-1.893.155c-.274.046-.538.183-.833.217a1.0008,1.0008,0,0,0-.903.921.977.977,0,0,0,.646,1.071.61866.61866,0,0,1,.47.714q-.0195,1.7685,0,3.537a.68634.68634,0,0,1-.468.771.95317.95317,0,0,0-.492,1.185.99837.99837,0,0,0,.947.766c.624-.021,1.247-.08,1.871-.115a1.02394,1.02394,0,0,0,.689-1.627c-.097-.127-.218-.235-.317-.36a.48119.48119,0,0,1,.021-.671,7.89776,7.89776,0,0,1,.759-.656.32174.32174,0,0,1,.303-.022,5.48186,5.48186,0,0,1,.828,1.002.55251.55251,0,0,1-.039.092.945.945,0,0,1-.115.129,1.096,1.096,0,0,0-.342,1.3,1.01456,1.01456,0,0,0,1.029.657c.871.052,1.74.135,2.609.2a1.08009,1.08009,0,0,0,1.12-.73,1.03982,1.03982,0,0,0-.537-1.254,3.3536,3.3536,0,0,1-.499-.332c-.2-.167-.369-.371-.569-.537a10.7418,10.7418,0,0,1-1.705-1.745c-.249-.326-.24-.375.087-.63.08-.063.164-.121.248-.179q.873-.6135,1.747-1.225a1.08813,1.08813,0,0,0,.412-1.236,1.04106,1.04106,0,0,0-1.035-.717,1.66965,1.66965,0,0,0-1.032.418c-.975.761-1.943,1.531-2.914,2.296-.121.095-.248.182-.423.31m8.442.812a6.6735,6.6735,0,0,1-5.355,6.6,6.348,6.348,0,0,1-5.594-1.421,6.3642,6.3642,0,0,1-2.401-5.081,6.51447,6.51447,0,0,1,3.349-5.806,9.84235,9.84235,0,0,1,1.098-.533,3.45474,3.45474,0,0,1,1.581-.245c.639.028,1.278.041,1.917.067a2.27059,2.27059,0,0,1,.473.062,6.649,6.649,0,0,1,4.889,5.796c.018.218.033.435.043.561"/><path d="M67.8527,77.2093a1.19,1.19,0,0,1-1.309-1.208,1.39343,1.39343,0,0,1,1.348-1.382,1.21213,1.21213,0,0,1,1.182,1.298,1.17831,1.17831,0,0,1-1.221,1.292"/><path d="M8.0264,72.4898c.175-.128.302-.215.423-.31.971-.765,1.939-1.535,2.914-2.296a1.66994,1.66994,0,0,1,1.033-.418,1.04108,1.04108,0,0,1,1.035.716,1.09148,1.09148,0,0,1-.413,1.237q-.873.6135-1.747,1.225c-.083.058-.168.116-.248.178-.327.255-.336.304-.087.63a10.66163,10.66163,0,0,0,1.705,1.745c.201.166.37.37.569.537a3.167,3.167,0,0,0,.5.332,1.04051,1.04051,0,0,1,.536,1.255,1.07964,1.07964,0,0,1-1.119.73c-.87-.065-1.739-.148-2.609-.2a1.0158,1.0158,0,0,1-1.03-.657,1.096,1.096,0,0,1,.342-1.3,1.09907,1.09907,0,0,0,.116-.129.879.879,0,0,0,.038-.092,5.55616,5.55616,0,0,0-.827-1.003.324.324,0,0,0-.304.023,8.15889,8.15889,0,0,0-.759.655.48247.48247,0,0,0-.021.672c.099.125.22.233.317.36a1.02278,1.02278,0,0,1-.689,1.626c-.624.036-1.247.095-1.871.116a.9995.9995,0,0,1-.947-.766.95323.95323,0,0,1,.492-1.185.68594.68594,0,0,0,.468-.771q-.01951-1.7685,0-3.537a.61733.61733,0,0,0-.47-.714.977.977,0,0,1-.646-1.071,1.00272,1.00272,0,0,1,.904-.922c.294-.033.558-.17.832-.217a11.43367,11.43367,0,0,1,1.894-.155.85319.85319,0,0,1,.757.742,1.02087,1.02087,0,0,1-.42,1.113c-.143.096-.317.145-.466.235-.094.057-.224.137-.241.225a2.80991,2.80991,0,0,0,.039,1.391"/><path d="M16.46859,73.3011c-.01-.126-.025-.343-.043-.561a6.649,6.649,0,0,0-4.889-5.796,2.33946,2.33946,0,0,0-.473-.062c-.639-.026-1.278-.039-1.917-.066a3.4409,3.4409,0,0,0-1.581.244,10.10937,10.10937,0,0,0-1.098.533,6.516,6.516,0,0,0-3.349,5.807,6.36694,6.36694,0,0,0,2.401,5.081,6.35039,6.35039,0,0,0,5.594,1.42,6.67268,6.67268,0,0,0,5.355-6.6m1.197,4.052c1.122.738,2.083,1.639,3.253,2.25.643.336,1.261.724,1.868,1.123a3.53529,3.53529,0,0,0,1.895.697,1.3145,1.3145,0,0,1,.453.147,37.652,37.652,0,0,0,4.776,1.677,1.18031,1.18031,0,0,0,1.099-.15,1.51617,1.51617,0,0,1,2.205.483,2.89467,2.89467,0,0,1,.423,1.967,1.28631,1.28631,0,0,1-.427.839,2.06716,2.06716,0,0,1-2.074.454,1.15261,1.15261,0,0,1-.786-.82.93656.93656,0,0,0-.783-.701,35.86905,35.86905,0,0,1-4.676-1.561,7.77192,7.77192,0,0,0-1.21-.354,3.88518,3.88518,0,0,1-1.422-.533c-1.005-.701-2.09-1.266-3.133-1.902-.57-.347-1.091-.774-1.636-1.161a4.405,4.405,0,0,0-.617-.406c-.428-.204-.507-.184-.842.155a8.76816,8.76816,0,0,1-14.887-4.747,8.51812,8.51812,0,0,1,3.812-8.779c.059-.042.119-.083.182-.12.185-.111.2-.247.113-.442-.504-1.13-.994-2.266-1.493-3.398a26.01068,26.01068,0,0,1-1.258-3.857,2.66208,2.66208,0,0,1-.028-1.082,2.63033,2.63033,0,0,0-.01-.863,37.26632,37.26632,0,0,1-.616-8.912,36.64546,36.64546,0,0,1,2.128-10.668,1.7316,1.7316,0,0,0,.079-1.062,3.02387,3.02387,0,0,1-.06-.867,1.5717,1.5717,0,0,1,1.451-1.536,2.22751,2.22751,0,0,1,1.493.38,1.45109,1.45109,0,0,1,.577.799,2.45369,2.45369,0,0,1-.091,1.709,1.32946,1.32946,0,0,1-.93.796.80223.80223,0,0,0-.578.583,35.73866,35.73866,0,0,0-1.692,7.036,34.118,34.118,0,0,0-.319,4.615,35.4,35.4,0,0,0,.784,7.456c.055.253.164.509-.145.698-.055.034-.061.188-.05.281a2.79742,2.79742,0,0,0,.105.513,27.748,27.748,0,0,0,1.113,3.263c.494,1.086.953,2.189,1.429,3.283.214.493.442.561.925.347a5.6068,5.6068,0,0,1,.829-.242c.083-.022.175-.01.26-.027a6.91828,6.91828,0,0,1,4.748.905,8.56282,8.56282,0,0,1,4.624,6.888,8.33308,8.33308,0,0,1-.641,4.275c-.078.184-.144.373-.22.571"/></g></g></svg>